<mxfile host="65bd71144e">
    <diagram id="Ism-I4JZAfCVvEjbJDLI" name="Page-1">
        <mxGraphModel dx="2887" dy="1866" grid="1" gridSize="10" guides="1" tooltips="1" connect="1" arrows="1" fold="1" page="1" pageScale="1" pageWidth="850" pageHeight="1100" math="0" shadow="0">
            <root>
                <mxCell id="0"/>
                <mxCell id="1" parent="0"/>
                <mxCell id="2" value="" style="shape=image;verticalLabelPosition=bottom;labelBackgroundColor=default;verticalAlign=top;aspect=fixed;imageAspect=0;image=data:image/png,iVBORw0KGgoAAAANSUhEUgAABJYAAASACAYAAACtGMf1AAAAAXNSR0IArs4c6QAAAARnQU1BAACxjwv8YQUAAAAJcEhZcwAAFiUAABYlAUlSJPAAAP+lSURBVHhe7N0LfFT1nf//z+TGJRe1BRGJ0IJaiQUvdGsQb78uF9nVrUooW+mvRXig3W2r0Ozav7u1FOuuv9qmgG23VX+A7U90KfHSn26RwHZVpMT+itclWCtYMdyEVgkJCITkf97fc04YIEAymUlm5ryeu9PzPd9zmZMEM5n3fL7fE2tpaWnduHGjvf/++1ZQUGC9evWynJwcQ2ZobW21/fv328GDB61v37529tlnW35+frAVAAAAAAAgdWIvv/xyq4Kk/v37B13IVAoH9+zZYyNGjHAhEwAAAAAAQCrlECplj9NOO81OOeUU27RpU9ADAAAAAACQOjmEStlFwVJzc7Nt37496AEAAAAAAEgNJlPKQr1797ampqZgDQAAAAAAIDViW7dubQ3ayBIffvihC5Y++clPBj2Imv1NZrvfM9vxttl73uPDYF2P4znldLPehf6yxHsM+Lj/6OX1AQAAAADQHoKlLKShcH/605/swgsvDHqQ7RQkbf5v//HmiycOkDpLQZMCpnMuMRv8SX8dAAAAAAA5YbC0Zs0a27Ztm1111VXWr1+/oDd1FIg8/vjj9n//7/+1q6++2q677jorKioKtqKjCJaiQ0HSC//uVyYpXOoOCpk+dS0hEwAAAADgJHMs/e///b/tjjvusI0bNwY9qbVv3z77wx/+YK+++qp7zsbGxmBLetu/f7+tXbvWvvGNb9hjjz0W9AKpoQBJYdK8qWaPfNMPl7orVBKFWP9xn9lPbvaXyayOAgAAAABklrSavLu4uNgqKyvtueees3/8x3+0M844I9iS3lQhtHnzZqupqbHXX3896AWS7/Vfm/3bzX6w1J1h0vHoehQwpcv1AAAAAAC6V25lZeW3g/YxfvnLX7rA5IYbbrDS0tKgt32aLPqll16y//f//p/t3bvXSkpKrKCgINjqa21tdUPrNMRuy5YtLkhqaWmx999/3y3z8vJc9Y8e+fn57qFzhdvV/9///d/ueQ4dOmSnnnqq5ebmBmc/lp5PVU+qgFJF0Z49e6x///7ueQ4ePGgffPCB265zqC+kyqk///nPduDAAXcNOTk5bv/169fbs88+azt27LCBAwe6bboO7avn+O1vf2tnnXWWjRw50mKxWNvXr+vQ0LT/+q//sjfeeMNdd/wQP022re16Dj2nwqm6ujrr06eP20/9mzZtshdffNEaGhrsIx/5yBHXezR9r/Q1ZEowh5NTaPOLu8x+95TZoYNBZxpR1dSGF8zOvcSfABwAAAAAEA0nnGPppptushdeeMEefvhhu+QS7x1jOxR6VFdX249//GN7++23XYiiUGXEiBH2T//0TzZ69GgXwCjomD9/vj366KMuRNF+55xzjttPQdPf/u3f2tSpU90cS0uXLrUvfOELNmXKFPvVr35l999/vwtjFOK89tprLjgpLCy0yZMn21e/+lU788wzg6s5TIHUihUr7K677nJBkChAOu+882zOnDk2bNgwe/DBB90+M2fOtC996UvuuhXcPPLII7Z48WL77Gc/a7feequ9+eab9nd/93f27rvvuvPIKaecYvfee699+tOftv/1v/6Xu+aQwqvbbrvNpk+f7s733e9+137+85+76xcFTn/913/t+nv16uWu4fvf/77rV5j0u9/9zu03ePBgGz9+vAvtli1b5r7XvXv3tokTJ9rtt99uQ4YMcfsdjTmWsouGmmnIWyYMOVOo9JczzEZ8JugAAAAAAGS1Lg+FW7lypQtoFJAsWLDABVHf/va3XaAyb968tiBIgZICqAEDBrigSMPdNEH3b37zG9u5c2dwtvYplFJo9Rd/8Re2fPlyF8goTFIFkCqIwsAmpOdTGPTTn/7UTTqu0EfrP/rRj2z37t1u7igpKytzYZKqiFS9JO+9956rFlJwdf7557tzzZ071309uu533nnHhV2qtvre977nnlshj8IqBUo33nijC4oUiqn6SN8bBXN/9Vd/5SqaamtrXSCmc+j7o4BNVI2lai4FbU899ZQbCqjn1LG7du1ySz2/runll1+2559/3h2H7JZJoZJ82OTPu6QKJgAAAABA9utSsKSQRsGSKmpuueUWF54MHTrUvvjFL7qqmj/+8Y9u+JbCGAUqqhiaNWuWjR071lUrfe1rX7PLLrvMVeGciIZ9/Y//8T9cBZWCl+uvv94FN6IhdQqe4ins0bA3XZeuR8doSJmqhFatWmX/9m//5oayffzjH7dBgwa5icI11Ewhkq5VIZQqmy666CJ3HlX/aL/y8nJXfXXBBRe48/zHf/yHC7g07E8VVRoyp+fRELS+ffu6SimFRJ/85CftX/7lX9xwQg2V0yTf6lMoFoZq+hpV3aXqqYsvvtiuvfZa931S1ZK+3ssvv9w+85nP2KRJk1wYVV9f74bQIbtl6uTYj9/DnEsAAAAAEAVdCpZUSaMKn9NPP90NLVOYIqpeCsOcrVu3urBm+/btLoRR0BMGSdqu/VT9cyIaIqZKJ80tFK4rzFHIo0ofBULxFNLomvR8YfWQwiRVPWmoWXidCnkU4ujaNK+R5lvSXekUJp177rkuIDrttNNcldCGDRvsmmuusX/913918zzpazjRdeuaFKzp3AqcFET9+7//u6ueUrWS6PungEgUuul8+rpEX5uuVRVVOl7U1n5aIvtpYuxMrfxR5ZIm9AYAAAAAZLcuBUuqDNJDQcfRYYeCIA0nU9VOWFGkgOTo/RTynGgi6kToOc4++2w3hG3cuHGuGunuu+92FT9/+Zd/aY899pir+lFQpdBIIdFbb73l9tNSYZKqkhRg6fo0h9LnP/95V6Gl4XQTJkxwE3T/5Cc/aRvKdjT1a64jPdatW2df//rX2x7/3//3/7kJyIETUbCULAM+bnbOJWannG7W6wSTa2t7suj6qVoCAAAAgOzWpWBJlUl6KDzRfELxlUO6m5zmCNIQMgU42k9D0/QI91P40t5QtmRQZc/w4cPdHEeqNtIE4RqGpzvMaY4lVSgp0FKllaqoFChpfihVLH3iE59wgVNIQZMm19Z5NGeU5lZSGKU5pTRHVHsUbun8Cqeuu+46V7kV/9DXrTvJqWIKaM+Ot4NGEvzVrX7Io7u2TbrDD5kGf9KfZFthkpZ63Hh38sIlVS1l4jA+AAAAAEDHdSlY0sTYGm6m4V6a8FpDyUSBkqp0NAfQxz72MRfcqIJIk1Prtv+q/BEdo2BG+yeT7p6mCblVUfTEE0+4kEnzKWnSbM1VpKFuCphEwZfunqY7vv3yl790X4PmV/roRz/qgi9VXOk8DzzwgNtfX/PnPvc5d8c4BWIaztYeVWcptNJwOg2d0zC8kJ5fd9HTtaUiVEN2SGa1z3//2uyyvzVTfZ3Oq8BH4ZKCpjBU0rA79SsQSpZkngsAAAAAkH5OGixpDqOqqio3OXf8Q8PDFJ78zd/8jQuX5s+f7+YfWrRokf3DP/yDPf300/apT33KTUitu6UpjNFE1Kr2USijCamnTp3qqndSMRROwZHupKbnW7hwoQuwFOb8+te/dpNoK/QRzfOk+ZRUgaSgS9VVqiJSGBXSrf5VsfSDH/zA1q9fb/fdd5898sgjbrifJuHW9es4DQvUhN733HOPq2zS162JzBVa3XTTTe5784tf/MK++tWv2r333uu+R/HPA8Q70ZC1zujtnUfVSRqapiBJYY+qkjQ8LqRASQ89p/YHAAAAAKAjThosaZibhojp7mbxj+eee85VBulOad/85jfd8LFHH33UtTVh9hVXXGGzZ892d38T3WFNgYzuaqbjdDe0r3zlK/Y//+f/dNVByaSgR3Mk3XHHHW7929/+tlVUVLhQR9dx5513unBJFI4NGTLEDX1TyKSvQ9VVooBK4dC8efPc/lpqziYFTKpE+uEPf+gCKg3z+4u/+AubMWOGu4Pc//k//8dqamrcBNw33nijez5Ncq7vjYbjPf/8825CcQ2l01A5oD0KgZJBQdKqhX5w9Ng9/qTa773tL/VQ4BROtK27uSWrykjhlQItAAAAAED2im3durX92ac7ScPGNKRNw990ZzNVAB09UXd7fv7zn7sJsRW0TJs2Lekhk4IxDT3THFC661p4R7h4ujObhrsp8Pn7v/97N1H30fT16TwaKqfztHdHOO2j0EzD2/Q9iP/6Na+Uhs1pqeqmVAZK+poVcGmIHzKXhqY98s1gJQNp6J0eAAAAAIDs1aU5luIpRDnllFPc8LDwNvkhhSmq4rn66qtt8eLFbXMsaYjYf/7nf7owRlVC7YU+XaXqJU2+res6+vx6Xs2hpOFxzz77rKuu0vC99ujrUVikYX/thUqifRQY6fsQ//WLKqNOP/10V+lElRI6QtU+n7o2WMkwqlb6iwy9dgAAAABAxyUtWDoRhSoKbAoLC92wtEsuucRGjBjhhssp0PnLv/xLN6+RAqnupInENRQvHDL3mc98xk00nulUNaaKMWQ+VfycHjcXUiZQqKS7yyVrjigAAAAAQPpK2lC4jtAwspUrV7o5m9RW9c/EiRNt5MiR3R6EqIpKQ+B0y39NoF1WVubmWjq60igT/fnPf3bVVWeddVbQg0ymOY8095GGxqW7MFTSEgAAAACQ/WJvvvlmqyatRnbQ/Epbtmxxd6vj55pdwsm205WG7v31rYRKAAAAABAlsRdffLFV8/7oDmbIfJozShOgU62UnXRnt/+4L72qlxQkacjeiM8EHQAAAACAyIjV19e3akiYhk6pwkWTXSPzaGjh+++/b/369cuKeaJwYgqWVL3UkwHTgI+bffIzZiO9B/MpAQAAAEA0xVo9+/fvtz/+8Y+2d+9ed1t+TbaNzOD9+FwYqInPdee7j3zkI8EWRIEqmH73lNmbL/rtVFOApCDpnEv8oW8AAAAAgGhzwVLQBpDBFCypgikMmd57O9jQBQqSFCDpoQolwiQAAAAAQDyCJSBL7W8y2/G2f1c5hUxaV/voyiaFR72DoWyaL+noBwAAAAAAx0OwBAAAAAAAgIQwmRIQUTU1NdbQ0BCsAQAAAADQeQRLQETNnDnT1q9fH6wBAAAAANB5BEsAAAAAAABICMESAAAAAAAAEkKwBAAAAAAAgIQQLAEAAAAAACAhBEsAAAAAAABICMESAAAAAAAAEkKwBAAAAAAAgIQQLAEAAAAAACAhBEsAAAAAAABICMESAAAAAAAAEkKwBAAAAAAAgIQQLAEAAAAAACAhBEsAAAAAAABICMESAAAAAAAAEkKwBAAAAAAAgIQQLAEAAAAAACAhBEsAAAAAAABICMESAAAAAAAAEkKwBAAAAAAAgIQQLAEAAAAAACAhBEsAAAAAAABICMESAAAAAAAAEkKwBAAAAAAAgIQQLAEAAAAAACAhBEsAAAAAAABICMESAAAAAAAAEkKwBAAAAAAAgIQQLAEAAAAAACAhBEsAAAAAAABICMESEBETJ060+fPnB2tHqqursxEjRlh9fX3QAwAAAADAyREsARExY8YMmzdv3jHhkkKlKVOm2PTp0620tDToBQAAAADg5AiWgIioqKiwqqqqI8Kl+FBp9uzZrg8AAAAAgI6KtXqCNoAIqK6utsrKymDNbNasWYRKAAAAAICEULEERExYuSSESgAAAACArqBiCYiohoYGKykpCdYAAAAAAOg8giUAAAAAAAAkhGAJSKX9O8w2/5vZocagAx0y4Aaz08YEKwAAAACAdEWwBKTShkqzPa8GK+iw3CKzCx42y/OWAAAAAIC0xeTdQCod2B400Cmq8DrUFKwAAAAAANIVwRIAAAAAAAASQrAEAAAAAACAhBAsAQAAAAAAICEESwAAAAAAAEgIwRIAAAAAAAASQrAEAAAAAACAhBAsAQAAAAAAICEESwAAAAAAAEgIwRIAAAAAAAASQrAEAAAAAACAhBAsAd2kask79sATW+zZl94Pek5u3RsNbvn0C7vcsquSdZ5k2bprv23zHk951/XAk1tsz97mYAsAAAAAIBPEWj1BG0CyvTrVbP8O11SodPP1g+zbD25yS4U8xX1zbWC/XrZt5wErLsw1/cfY2HTIrhp1quu/5Z4NVjl1iDt2YL8Cd5zaonZx3zx7dMUOO3dwH++/ZnOh1Zkf7WUD+x8+59ad++1M79hrLu/vwq0zvfNq3yLvubXPuUP6WuPeQ+65PzG4r63bsMdrtdrnJ5zhgp5Ha/zrL+6T59bP9M59zWX9XCikr0Hn07nWbWhw26zVO7ln1PBie2r1TnfuK0ed5vbTuQf2L3Bh0h6vX1+/ltd653t23fvetRTaqPOK3fF2wRKzXgP8NgAAAAAgLVGxBHQzhSlPr95lN183yIU+b76z1w9YmpqDoOVw1c6o80rs3MF93eOqi09zx4lCGoVCEu7vgpo+ea4df05RqCQKolxg1HTIW/MDIAVZ/nU0uXDHHbdP28NzKjTa455HYdbvvf1EgZG2aV2hkgKwz4/3w6jPTxjgnlvXr1BJ16Pn0DY9t/qVZJ17Vl/XVjClEKwtVAIAAAAAZASCJaCbqMJH1UYKha4adZo9umK7qxBSxZACF1UZKchR4uIHP+aqlDQcTmGPgpdwH51LlT+iY8Phddrv95v3HnFO9YXCtpaNLsjKcaGOnkfXouvScQqMZFsQBqkiKjzWVTx5FChpm6giStVQz770Z7ffA0/Ue9eb5yqaFDopaNLXoevW9vCh61OgJUV9/VAMAAAAAJA5GAoHpFLcUDh0EkPhAAAAACDtUbEEAAAAAACAhBAsAQAAAAAAICEESwAAAAAAAEgIwRIAAAAAAAASQrAEAAAAAACAhBAsAQAAAAAAICEESwAAAAAAAEgIwRIAAAAAAAASQrAEAAAAAACAhBAsAQAAAAAAICEES0Aq9Tk7aKBTcgvNeg0IVgAAAAAA6SrW6gnaAJJt/3azTd8LVtAheUVmHx1v9pExQQcAAAAAIF0RLAEAAAAAACAhDIUDIqq2ttYaGhqCNQAAAAAAOo9gCYioKVOm2Pr164M1AAAAAAA6j2AJAAAAAAAACSFYAgAAAAAAQEIIlgAAAAAAAJAQgiUAAAAAAAAkhGAJAAAAAAAACSFYAgAAAAAAQEIIlgAAAAAAAJAQgiUAAAAAAAAkhGAJAAAAAAAACSFYAgAAAAAAQEIIlgAAAAAAAJAQgiUAAAAAAAAkhGAJAAAAAAAACSFYAgAAAAAAQEIIlgAAAAAAAJAQgiUAAAAAAAAkhGAJAAAAAAAACSFYAgAAAAAAQEIIlgAAAAAAAJAQgiUAAAAAAAAkhGAJAAAAAAAACSFYAgAAAAAAQEIIlgAAAAAAAJAQgiUAAAAAAAAkhGAJAAAAAAAACSFYAgAAAAAAQEIIlgAAAAAAAJAQgiUAAAAAAAAkhGAJAAAAAAAACSFYAgAAAAAAQEIIlgAAAAAAAJAQgiUAAAAAAAAkhGAJAAAAAAAACSFYAgAAAAAAQEIIloCImDhxos2fPz9YO1JdXZ2NGDHC6uvrgx4AAAAAAE6OYAmIiBkzZti8efOOCZcUKk2ZMsWmT59upaWlQS8AAAAAACdHsAREREVFhVVVVR0RLsWHSrNnz3Z9AAAAAAB0VKzVE7QBREB1dbVVVlYGa2azZs0iVAIAAAAAJISKJSBiwsolIVQCAAAAAHQFFUtARDU0NFhJSUmwBgAAAABA5xEsAQAAAAAAICEES0DEtDbtsYNPLrbm12otZ0CpFVx3k+UMHR5sBQAAAACg45hjCYiIQ6+9aHu/caM1Vlxo+x9e4NYPrnzMmr5yjTV99VrXjqrWJ182+2CvtTz0G2v945/ceuuzb/obvX63be5T/noXtSz4z6DVzfR1xAvWk/V1AQAAAIim3G97gjaALOOqk5bdbx/e/x074C1bd2wJthyp9f2d1rx2pTWvetxaNm2w3KFlFiuKzvxLrUt/Z7GrP2mtv3zFcq4614U/sWmXWuzDg37wcuFZZs+9afb7HRY77wxrrd1k9uybFvvYR828fVqf+W9v23az3gVe/+/NtjdYTOfVPjrHivXW6h0fKx9qrV7bhTpvbPe2NVvLM/6629c7X4vO5R3v9tfz/nGXtTz5ilvGeudbi3eNjncNrS++bbFT+1jLz9Z6z53vfx26Pp2j9m13jJ5H+7l9vecPHfq7h73n6+dfd3g94fl1Pa+8685pf/yTxc44xQ/b4p5PfS36Wr3j3NercwEAAACIHCqWgCykaqQP77/bmr50hatOUljUES076l3lUuO0K1x1U2SqmE7tGzQ8XlshSUx9wcOFJmp/9kIXPrX+7DemMcQufPH6W1+tN3t/n9krm61FAZTX5yqTTuvjr//xT5Zz21/65/fErrvIP+ZjH3XPoxDJ3vmTq5Zy6975dUyr12fBtbT88lU7NPdpy/nSpd6+u/zr8q5Hz6Nzu2MUEOl4nVsuGuza7uu5oNTvC7g+BVdqB9fjAjXvmly1ls7xavD16evcvc89n9btYx/xAyidW8fq+gEAAABEEsESkCVUnXTgicUuEHKh0JOLvb6GYGvnuXDqB7db07Qr3fJ41U5ZQYFMe0tR+6j+VotZ7H98oi2YUb8LgTwKfloU8iiAObXQWx995PlCXp+rhvq4X+kTu/Jca12wyj+nQh9VTA35qLX+8mVvo/f/p/bxQx8FPkP6uYBLYY97nj96z62lx22Pfz61T+njgitVMLmQKBBecxsXoHnXPM27ZgVKb//ZPad73iBccuGT9/zuvO19XQAAAAAihcm7gQzn5krSMLaVj3UpSOqIvNHjLH/cJLfMJppbKeeqT1irho597KN+UHPhWX71kKtK6uP3adsHCnO8dW8ZBktt+0j8sRoqdvT54vvC83l0Lj2/KoncdRx9fo/bR8er34U6saDCKK4v7vrc+XWstnnPp+MVein8Cp/DHRNcT0zfg/Bc3rr2ybnuIvfcbfuH5xbvWHdN3nPoWAAAAADRQ7AEZCBVJx16tdYO/HKxC5a6m7ub3NRbLW9kucUGDAp6M1urQpKg6idrKUTq4NeoOZU0zA0AAAAAToRgCcggbjLuJxe7IW+prk7qKFUw5Y+dZLkjLwl6AAAAAABRwRxLgKehocHq6uqsvj6Y9Pgoc+fODVo9Q1VJmjepseJCNxl3uoRKogm+dW2ai0ntTJ6LyQ0DU1VPMmjomIa7HUeXnkvHBcPj2nWC5z2Z1lfa/2/gpHRNXXheAAAAAJmJiiVE2rJly6ympsZKSkqsrKzMJkyYYKWlR949S2HTwoULbc6cOUFP90jH6qSOiBWWWN6l46zX1NuSPkwu/FkoCKytrXU/M/28Ro8ebePHjw/2SsAHmnz7z2Yvbza7cLCbKFvzDmly65gmvtbcSLoD2pCP+G31D9H8SHu9RzCX0VEhke7w5u6qdtUnjtzXWv0JtjUkzevTpN1t5/R+G7dqom49Z0CTdMc0J1Kw3T2XRxN/58y51r8u3fEt/BrE+zpi113omupruyOc9tHd3YLradsW9nvP6+5Mp3mTgq837D/662zbX8vgusJrAgAAABAdBEuILIVKCigUJkl8oKR+hU2iIEPBhUIMWbRoke3evdtmz57t1hVw6NijA6lEqTpp/5IFPTJ3UrJpeJyGyWm4XLJNmTLFli5dGqyZqzhTZZl+LvpZ6WeoR9jWz6nd8OmPu9yt/HXntJjWFSg996YfvqitYOeCs9yE1rqlv5tce8hH/Im4dVc1TXB921h/gu3d+/yJwG/7SxfA6Lyxj3n7fla38/e2v7LZ3dHNYjE/vPGO1XG53v4tumW/wqhT+uo3szvGnUOTbXvPr8BJ28PgRiGOmxNKd5PTsd6+7s5yXttNuu3t1zL3actRcOU9l5u4e/ZS77wXujvEtTz7ezeJtybddnd68/ZToNbys7Vt521ZsMo9l/v6dB3zpvh3qfvA+zq963aTgOvudB80WexLY7zz7nJfn54LAAAAQDQwFA6RpUolPcIKGAnDifihb2FljMyfP/+IUEnh1Nq1a23evHluPVGqTlJlUtNXrnHDyrIhVBJ9HR/+4HY3TE7LZA2TU+VSfJCnsE8/RwVN69evdw/9TPSzkpkzZ7qfk36+R2v9YJ8LVHKmXep3BLf/VyWOa4fVRAqZVLXz2Qv8MOWPf/LvhnblJ9w+Lih69vcuuHHDyVT55B3jbs3v7edvu8hiF3n9QQWRwiv/TnFvmr29yx2ra9Gk2TpW583ReVUVFN51LagYEjfhuLYr1NL16ToVFn2sX/DwzqGvIe4Yd+c3VSVpe3DOWPA1ua9PPvYRFz7lzPkbfz89R7hNX4/HhU/6uvU1Xnex/xynFh7xXAAAAACyH8ESIk1BhIa4KThS6KCg6KyzzmoLmhRghJVL6gurnBRkiIIm7TNjxgy3DI/rKBe83H+3NX3pCtv/wN3WsmlDsCW7tOyod/MvNU67wgVnaneFflZh2CdhpZJom36GCg21DH9m4XDHo8MlF5p4SxfOKCx5XwFJH3+ImvouKLXYl0b7lUtXeX0f7LMcVRNpiJt3rAIYR8d+rJ/luCFo3hkVsARVT3qElUIKldxQuLBYVMPudJ7TCoN17zxv73JNhUwKdHI+e0HbtWi7G2YXXKOraFIVk7ddRU0u9NJxCqt07rhhda666Ul/aJ3bR+fxuIBMVVkSPKeuX1VKLrBSEHVhEIYF64728dqt7zf5gZXCszAAAwAAABAJDIVDZKmK5cEHHwzW/HWFE6psUUikECKsVlJwpDBJ/7moXVlZaVVVVe4YBVPV1dWugqaioiI42/G5uZNqqq25dmXWVCYlImdAadsd5To7F5OqkcrLy90QRVUn6Wejn4foZ6OfhX6G6gv3jcVitmLFCvfzS9awxXTihsZpyJz3fznXXRT0JkbD+WIf/6irvHLD+o5DgZTCpJxZY/11BVAK0gAAAABERu63PUEbiJSdO3faxRdfHKyZPffcc67v7//+7+3AgQPWv39/mzx5sqtKUvXL+eefb3/zN39jX/ziF13/sGHD7OWXX7aNGze6dYUXJ9Kysc4OLn/UPrznNhcqZfLd05JBE5IrWDvw5GJrfW+Lm/RbYVNHKDRSqNSrVy/3Mzv99NPdz0P0c9Ij3EeBkn5+vXv3dj/bsAIt26hSKHbeGd5jYNCTOFViuSFw5UODnvbFzjjliH3c8DgAAAAAkULFEpBiCk+SORl3rKjEckd82lre22I5pw+y5rWrLGfo8KwYRqdgqWDqrZY3sjzpd5QDAAAAACQfwRKykubU6ex8R8kUDrU6sGSB7X/4PtdOFgVLeaPHWv7YCjuw8jFrXvWY9f3uEjdvUfPrL7rtOf0HWcvOwxVRrdvrvWPG2aFNG1wAFSssduva3xob2tqaoyd3xCVHnOeQ184ZVmatO+rNvD5XWXS61//2Buv99XvdpNwtG5Mbaun5Cn/0lGur8ggAAADpR5Xg2VoNDqDjCJaQVTQnkubU0QTNPRksae4m3dped3lLdiWRm5to6q2WU1jiKqF0foUwB375kOWMuMRbr3MVP82v1Vr+6HHW2rjHDnl9ucPKXCDU9NVrXXCTVz7W8i4d7w/RW/WY5Q4ts9zRY+3AkvssdnqpFYyb5IapqRoqb+QlLiDL9Zb54yrs4JOLzLznz7t0nO27faob1pZsRQ89ZzHvax0xYkSP/iwBAABwfOF8pB2ZaxRAdiJYQlZQ8KCJtBUo6UVNoY7uCNbTkzQrmNl//93BWnKEwZKqixT2tL5X7yqWPvzBN1y/C5XW1tihjXWWf+l4a21s8KuOhg433axMd5/TcDOFQQqJDr1W6+7apkokhU+aWDx2RqkVqCJq1WOWowqpsZPcOXWu+JBJYdSHD3wn6fNF5QwbboU/ejpYAwAAQLrR39+6iYo+2NWNbER3XM7Gm6QAODGCJWQ8vahNmTLFLdPxxUyVQ26Y2qrHg56u0RA1hUCqGFJ1koRD1dQfzk2k4Wna17W9bRruFk6YrXAqZ+h51vLeVnechr+p3w1/Gzq8rZ078tPetT/u9td5XYDk9YfP5XjrqnpKBl1HwfU3uWsFAABAZtDUBXPnznUf8hIuAdFDsISMd9ddd7nbyKf7i5jCnXAi76jfES6em+9p3CTL9x6qgAIAAEBm0ggChUzLly8PegBEAcESMppeuMaMGWNr1qzJqE9Gkl3FlIlUnaTKpPzxkw5XPwEAACBjaQSB/jafM2cOcy4BEUKwhIwWX3KbiVTFpIBJk2dHoYoprE5SoKS5oAAAAJBddCMdzbuUqX+fA+g8giVkNM2tVF5ebrNnzw56MpcLmLyHJtrONjlDyyxv9Fg3fxLVSQAAANlLoZL+Rn/nnXeCHgDZLidYAhlJQ+GyZXJAzTHU995HrPCh5yxv7A1tk3BnMg136/PdJVb446es1xduI1QCAADIcuHf5vo7HUA0ECwBaUZ3YOtT+T0reuh56/31e104k0k03K1g6q1WVP2yC8oY8gYAAAAA2YtgCUhjYRVT3x895VcxFRYHW9JPWJ1UVP0K1UkAAAAAEBEES0AGyB1W5qqY+v74aVfFlC7D5KhOAgAAAIBoI1gCMoiGyamKScPkVB2kKqae4KqTvvVTK/zZ81QnAQAAAECEESwBGUrVQapi0mTf3VHFpOqk/OumuUDLVSeNHkegBAAAAAARF2v1BG0g44wZM8ZmzZplkydPDnqi7eBvaqx55WPWXLsq6Ok6VScpRMofP4kgCV2mWxCvX7/e6urqgh4AAJCpdAe40aNHW3n54ekQdDc4/Y2+Zs2arLl7M4ATo2IJyCL5l463PnPud1VMbrLvBKuYXHXSuBvaqpMKrr+JUAldokBpypQp7lFdXR30AgCATBa+vitI4vUdiC4qlpDRqFg6uYMrH3OPQ6+/GPQcX86AQZY3dhJBEpJq/vz5Nm/ePJs+fbrNnj3bSkr4twUAQLZQhdKyZcvc671e5ysqKqhYAiKGiiUgy2myb1UdnaiKyU3G/d0l3j5Mxo3kWrRokQuVqqqqbM6cOYRKAABkGYVHCpSWLl1qCxcudK/9AKKFiiVkNCqWEqMKpubf1FjOsDKqk5Ay+gRz4sSJ7r/RGTNmBL0AACBbaThcZWWla1OxBEQHFUtABKmKSXMxUZ2EVNKnlqpQIlQCACAaNAwufiJvANFAsAQASAlN6Kl5lQAAQHSMHz8+aAGICoIlAEBK1NXVWVlZWbAGAACiYMKECUELQFQQLAEAkk7zK8lZZ53llgAAAACyE8ESAAAAAAAAEkKwBAAAAAAAgIQQLAEAAAAAACAhBEsAAAAAAABICMESAAAAAAAAEkKwBAAAAAAAgIQQLAEAAAAAACAhBEsAAAAAAABICMESAAAAAAAAEkKwBAAAAAAAgIQQLAEAAAAAACAhBEsAAAAAAABICMESAAAAAAAAEkKwBAAAAAAAgITEWj1BG8g4Y8aMsVmzZtnkyZODHgDpoL6+3v33uWbNGistLQ1604+uEwAAJI9eW6dMmZL2fwMASB6CJWQ0giUgPaVzsKRrW7hwoVVXV1tDQ0PQCwAAkolgCYgOgiVkNIIlID2la7C0aNEimzt3rpWXl1tFRYWNHj2aP3oBAEiidP5wCUBqMMcSACAS5s+fb/PmzbOqqipbunSpC6T5gxcAAADoGoIlAEDWW7ZsmQuVHnjgAVepBAAAACA5CJYAAFlP1Urh0DcAAAAAyUOwBADIauvXr3fzPcyePTvoAQAAAJAsBEsAgKxWW1trZWVlzKcEAAAApADBEgAgqzU0NFhJSUmwBgAAACCZCJYAAFmPaiUAAAAgNQiWAAAAAAAAkBCCJQAAAAAAACSEYAkAAAAAAAAJIVgCAAAAAABAQgiWkFEmTpxo8+fPD9aOVF9fb2PGjLG6urqgBwAAAAAApBLBEjJKVVWVLVy48JhwSaHSlClTrLy83MrKyoJeAAAAAKk2c+ZM9/d4e9Sv7QCyF8ESMopCo6VLlx4RLsWHSgqeAAAAAHSfkpIS9/f40eFS+He6tgPIXgRLyDjx4ZJerBQwESoBAAAAPUN/h+vv8fhwiQ9/geggWEJGCsMlffpRUVHBixUAAADQg8JwKRz2piWhEhANBEvIWAqX1qxZw4sVAAAAkAb0d/n48eNdW0v+TgeigWAJGY3x2gAAAED6UJj0wAMPECoBERJr9QRtoH37d5i9fa+33B504KRyi8zOmGTWz//EBogazaswZswYV1VYWloa9PaMefPmuevhD1wAAAAg+QiWcHKbvme2a0Wwgk65+EmzvKJgBYgOgiUAAKLp0Gsv2sFV1ZY7otzyx00KegFkM4bC4eSoVErcoaagAQAAAGSn1qY9dmDJfdZYcZHt/caNdnDl4/bhD263pmlXumXrji3BngCyEcESAAAAAKDTVJ2kIKmx4kLb//ACa21qCLb4WnbU28GVj1njtCts311ftua1K4MtALIJwRIAAAAAoEOOrk5SuNQRCpUULqmKSWETVUxA9iBYAgAAAIAeoDkAa2pq3LI9lZWVQavnKUDad9ct1vSlK9qtTuooVTFpeJyqmLTsaDDVHRoaGtzP4ng/DwDtI1gCAAAAgG6i8GL+/Pk2c+ZMW7hwoe3evdtKSkqCrYetX7/eRo8eHaz1DFed9MRiV5mkR/PaVQkHSu1R5ZLO25NVTMuWLXM/i4kTJ7ogT+tr164NtgLoCIIlAAAAAOgmultpeXm5zZgxwz0mT57sgqWwWia0aNEit19IYZSODSkASVVljaqIPrz/br866YG7U15VFFYxNX3lGrds2bQh2JJ6+v4/+OCD7ns9e/Zs91CfvrcKnKqrq62urs7tqyAwpDaVTYCPYAkAAAAAuolCCoUSqkgKK5Vqa2tt7ty5Rwx9U9BUWlrq2gqV1FboEa7HYjF3TLIcXZ108MnFSa1O6gg9nyqXFDC5a/Da3UU/l7KyMtfW8EQFd3PmzHGBk35e+hnpIfr+62cXH/QBUUawBAAAAADdRIGEKmRUraS2QgwNvVKoEQYbCjnCUEkBUxhEhRUz2l/rCj4UdnSlcqZlY52bjLu7qpM6ylVNqYpp2pVu2Z3D5PT9Peuss9zPQN/bCRMmuBAp/PmsWLHCfd8V9HX1+w9kA4IlAAAAAOgmYZVSSCGFQoyQqmEUICnECEOlpUuXuhAjnOhb27SuqhoFTGEI1RkKbtz8Rl+9tkuTcaeahsmpckmTfaeqiknf5/ifi4K98ePHu/a7777rvs/aruolff+1TcGgfjbxlWVAVBEsAQAAAEA3UfXL0TSBt4IKbVNooUokze2joXHqU3ChYW/qV1shh0KNcJ6mjnLD3ZbcZ40VF7mQJl2qkzoqvopJX0cyq5g0r1JIP4MwaFL/rFmzXN/555/vvv8KkxQIKtwLAyggymKtnqANtG9DpdmeV4MVdMoFS8x6DQhWgOjQp3ljxoyxNWvW9PineCpd1/VUVVUFPQAARIsCmf1LFmRckNQR+eMmWf7YSZY78pKgB0B3o2IJAAAAALJMW3XStCszsjqpozQ0zg3p875OtbtzLiYAPoIlAAAAAMgSbrjY/Xf7k3Fr7qQd0ZhYWnMxaZic5mLSMluDNCAdESyhy/bsbbZnX3rftu3a75Zdse6N9Jw0sD1vbt4btAAAAICe46qTnljsKnfcBNdPLk7bybi7wzFVTN73B0DqECyhy6qWbLYz+/Wy329usuK+uS5oemr1LhcSKXwJQyfZ6i21Xf1Hb5Nn173vtj+6YofrD/dZ98Yee/qFXf4+3roeT3nrem6dU88X/xzhuo5TW+c8epvOffQ5Jf65JbxWPZ/6v/3gJv+6vGsFAAAAesoR1UkP3N3tVTqxwuKgdXwd2SdVwiomfX+0ZJgckBoES+iyq0adFoQsMVu3YY898MQW+9TwYnt69S7X/4nBfV2YI9reuPeQ6w+33e/tLwp/ivvmueOvGnWqC4EeWbHdzvX2eXr1Treu8Ef76NxnfrTAHf8DBVv9e7l9ZdvO/VZcmOvW121osE8M6eP2Fz23hM9/8XnF9qi3X2OTnjvXhUp6bl2Ttof7PuU9/1UXn+rOqRBN1yRhYAUAAAB0pwNLFvR4dVL+dTcFLT9Ayhk6vK0dGzDILXNHlh+xrSfo+6PKJQ2T07xTAJKLu8Lh5E5yVzgFM6OGl7jlwH69vJ5Wb/0Ut64A5ubrB7mwSEsFTMWFefbcuj+7fXWcQptvzxzqzlW15B0X8Fw16iOuKmjrzv32+QkDvOO3uoCoqG9eW/+NXr8qkn7/zl4Xbul5r7r4I+4cOu9z6953z3HN5f1csKTn1zadW4GTaD8FVm9659D59zQdarsmBUjxX1f4dci13jn1tajvhLgrHCKKu8Ih3dXW1tqyZcvcUv8+ACBTLF++3MrKyqyx4sIeH+JVMPXWtqCm99fvtYOrHrPY6YMsb2S5Na9d2RYm5QwodesKmw4++ZDr6ymxohIrWvayNTQ0uL9VtExX+htKj8mTJ1tFRUXQC6QfgiWc3EmCpTCYGTW82PbsPeSqgt7c3GRbdx5woY4CGu2jpagC6NwhqkLa5aqDVIHkB1LWFkBpn/B84fGqRFLQo22qUFJopYBI51IllPbXucJ9B3r7iD8878jzhNvCc8YHTeFzy7ZdB6zIO17C40NhWHVCBEuIKIIlpCv9W6isrLS6ujr3R7renPX0v1EA6KiSkhI7//zzXVvVSj09QXV8sNTr5m+64XhaysFfLra8sZNcW7Rf/P49JXfEJdb33kdce+3atW6ZrhR61dTUuA9BZM6cOTZ+/HjXBtIJwRJO7iTB0tE0PCw+6Dme+LApaxEsIaIIlpCO9O9g4sSJVl5e7v496A0aAGQqzR+k4V2qEuqpuYNyR17igpqWTXWuekoVSs1rV1neyE+bFZ7ihsAdet0PvxSCaf+eCsN0LRq6V3D9TV47837/6++Z+fPnu9cvqpeQbgiWcHKdDJYQh2AJEUWwhHSjfwNTpkxxn/TqE18AyCYuYPIeYYjT0/LHTXJD4g6uetxad/TscGMFXwVfuNUNz8t0YbgUDocE0gWTdwMAgKynP8aFUAlANlKQo+FdhQ89Z3ljb3BzGfUkhVwa8tZToZKqkzTsru+Pn3Lfl2wIlWT27NmuWmnu3LlBD5AeCJYAAEDW0/wU+oMcALKZJsnuU/k9K3roeTeZtqp1okRfr+Z4KvzZ89brC7dZ7tDsq+qZPn26e03TXIFAuiBYAgAAWS288xsTngKIkmOqmAr9m9NkG3/upGnW57tL3NebqXModZQmb9cwuHSfeBzRQrAEAACy2rvvvuvm+mKybgBRFFYxqYpHVUw9PUwuWeKrk3rfcmfWDHfrCAVL+sAESBcESwAAAACQ5VTFoyomDZNTdY+qmDKNqpPyRo+LTHXSiTQ0NAQtoOcRLAEAAABAhKi6x1UxPfRcRlQxhZNxqzqpz7d+GqnqJCATECwBAAAAQARpmNwRVUzlY4Mt6UHD3XRdRdWvuMm4o1qdBKQ7giUAAAAAiDhXxTTn/sOTffdQFVNYnVRU/bIb7kZ1EpD+CJYAAAAAAE442beqmDRMTlVD3cFVJ33rp1QnARmIYAkAAAAAcAwNk1PVUKqqmFSdlH/dNOv746f86qTR44ItADIJwRIAAAAA4LiOrmLKGTo82JIYVSf1uvmbbjLu3rfcablDy4ItADIRwRJOru+woIFOyy0MGgAAAEDmUxVT4Y+ftr4/espVMXVUWJ2kybhVnVRw/U0MdwOyRKzVE7SB9jU3mm35udnejUEHTiqvyGyA90JbckHQAURLfX29jRkzxtasWWOlpaVBb8+YN2+eu56qqqqgB1GzbNkymz9/vvv3CABIrpYd9XbotRdt/5IF1rpjS9B7WM7QMssbPZYgKYkqKyvdkr9tkC4IlgAASUewhHRCsAQA3aP5tVo7uPIxO/Taby1nwCAr+MKt3NUtBQiWkG4YCoeMpjcLDQ0NwRoAAACAnqIQyc3F9LPn/Mm4CZWASCBYQkbTJ9ArVqwI1gAAAAAAQHciWAIAAAAAAEBCCJYAAAAAAACQEIIlAAAAAAAAJIRgCQAAAAAAAAkhWAIAAAAAAEBCCJYAAAAAAACQEIIlAAAAAAAAJIRgCQAAAAAAAAkhWAIAAAAAAEBCCJYAAAAAAACQEIIlAAAAAAAAJIRgCQAAAAAAAAkhWAIAAAAAAEBCCJYAAAAAAACQEIIlAAAAAAAAJIRgCQAAAAAAAAkhWAIAAAAAAEBCCJYAAAAAAACQEIIlAAAAAAAAJIRgCRmlsrLS5s+fH6wdqb6+3qZMmWJ1dXVBDwAAAAAASCWCJWSU0aNH27x5844Jl8JQqaGhwcrKyoJeAAAAAACQSgRLyCgVFRVWVVV1RLgUhkolJSW2dOlS1wcAAAAAAFKPYAkZJz5cUqikgCkMlbQEAAAAAADdg2AJGSkMl0RD3wiVAAAAAADofgRLyFgKl371q18RKgEAAAAA0EMIlpDRzj//fEIlAAAAAAB6SKzVE7SBlNjeZLb4DW+5N+iIiIphZpefGawAEaP5z8aMGWNr1qyx0tLSoLdnhPOxhcNnET3Lli1z8/Hp3yMAAJmusrLSLfnbBumCYAkpd9tqs5d3BisRUpRv9our/SUQNQRLSCcESwCAbEKwhHTDUDik1PJ3ohkqSePBoAEAAAAAQJYiWEJKLd4QNCLo6iFUKwEAAAAAshvBElJG1UpRm1cp3k3DgwYAAAAAAFmKYAkpE/VqpYF9gxUAAAAAALIUwRJSgmqloAEAAAAAQBYjWEJKUK0UrAAAAAAAkMUIlpB0VCsFDQAAAAAAshzBEpKOaqVgBQAAAACALEewhKSiWiloAAAAAAAQAQRLSCqqlYIVAAAAAAAigGAJSZPMaqWKs4PGSUyO2++ygf6yo8cmG9VKAAAAAICoIVhC0iSzWqk43+xrI/2QqGKY2R2j/BDp6sGHAxxt1/oZQZXQxCF++/KBZv9SbnZhP/847VfknS+VqFYCAAAAAEQRwRKSYtlbyZ9bqfGgWbV33uICv63nuLj/4ZBIfW/tPvy8YfuVXf6+55zq9//B6091sES1EgAAAAAgigiW0GXbm/wgJ5kUEIWBUbhU5dHqrf66KoTCEOnsU/ztCppUpaT+xmZ/m8ImVRKF50iFaedRrQQAAAAAiCaCJXTZ8s3JD240X5MeYVsB0Q9fM1u9zQ+xngm2h9tE/QqTXN8HZn/wHupL5YTiGno38WPBCgAAAAAAEUOwhC5RtVIYAKVSdzxHIjTHE9VKAAAAAICoIlhCl6SiWilTUK0EAAAAAIg6giUkLBVzK2USqpUAAAAAAFFHsISEae4iTZidbJqAW3dxu2ygPzH35LP96iBN2K27r6mtpYIdLSuG+X3aT8fooYm+tVSfzhXunyx6vullwQoAAAAAABFFsISEuLmVNgcrSTaw0A+DzjnV7KL+Zq1en4Kcywf6QdblZ/rL8K5w4f57vL6/+ph/jEIvHe8CKm9/UX+yKKgCAAAAACDqCJaQkFTeaU2hkaqLFCYpLNK6hpxp2dpqtq3Jb4fUVmjUeMDb33toPX67QjD1v7wz6OgiXdfEIcEKAAAAAAARRrCETktltZKs3mq2wjv/D18ze+Yds1d3+s+n9TXbzF7wHtpH1Up/+MCf50mPjbv9fcJ5n8J+7feMd7yOSwaqlQAAAAAA8BEsodNSWa0U2rb3cNWR2qL1+Ha4jN8vfv147a6gWgkAAAAAgMMIltApqa5WSndUKwEAAAAAcBjBEjqlO6qV0hXVSgCQGerq6mzixIlWX18f9Bxp/vz5VllZGawBAACgKwiW0GFUKwUNAEBaKy0tdcspU6YcEy4pVJo3b55NmDAh6AEAAEBXECyhw6hWClYAAGmtpKTEli5d6pbx4VIYKlVVVdn48eNdHwAAALqGYAkdQrVS0AAAZIT4cEmBksKlMFSqqKgI9gIAAEBXESyhQ6hWClYAABkjDJfKysrcOqESAABA8hEs4aSoVgoaAICME4ZLv/rVrwiVAAAAUoBgCSdFtVKwAgDISAqXzj///GANAAAAyUSwhJOLBcsIumNU0AAAZKRDr71oH95/t+39xo12cOVjQS8AAACSJdbqCdpAu7Y1mf3wNbPGg0FHRFw20Oxz5wQrADpFEyWPGTPG1qxZ03br956iCZt1PZpfB9HQ2rTHDr1aawd+udgFS/FyBpRa7shLrNfU2yw2YFDQCwBA5qisrHRL/rZBuiBYAgAkHcESeoICpYNPLrYDTyz22g1B7/EpYMofO8nyx00KegAASH8ES0g3DIVDRnvvbbP9TcEKACCSVJWkoW6NFRfa/ocXdChUEjdM7ge3W9O0K+3gkw9Z644twRYAAAB0FMESMtpj95i9eeQoBwBABKg66cCS+6yx4iIXKh095K0zWnbU24f3f8cap13hgqaunAsAACBqCJYAAEDGUOiz765bOl2d1FGa4FtBlati8tpUMQEAAJwYwRIAAEhrrjrpicXW9JVrXOjTvHZVsCV1XBXTD25vq2Jq2bQh2AIAAIB4BEsAACAtuTmQ7r/bmr50he1/4O4eC3dUuaRQq+mr17o2AAAADiNYAgAAaSOsTlJlkh66y1uyh7slqmVjXdtk31oyTA4AAIBgCQAApAGFNpqMO6xOSucJtDVMTpVLGibnwi+qmAAAQIQRLAEAgB6jAMlNlv3Va1MyGXequeF6VDEBAIAII1gCAADdyg13W3KfNVZc5EKldK5O6qj4KqZ9d33ZmteuDLYAAABkN4IlAADQLcLqpMaKCzOyOqmjFCopXFIVk8ImqpgAAEA2I1gCAAApk43VSR2lKiYNj1MVk5ZR+toBAEB0ECwBAICkU4iy765b/Mm4s7g6qaNUueTmkqKKCQAAZBmCJQAAkBSuOumJxS5A0aN57apuC5RihcWWO+ISt8wZNtwt01FYxdT0lWuY7BsAAGQFgiUAAJAUCkv2P3B3jwz56v2t+y3njEFW8IXbLOf0UtenoCln6HCLDRjklnnlY13gpPXwEfZ3NwVu4WTfWgIAAGQqgiUAANBlhzZtsNYd9cFa9zu0dqXljii3QxvrLG/0OMsbN8nyvUfvW+60vBGXWK8v3GZ5l473+8cefqg/94Jyyx15SXCm7scd5AAAQCYjWAIAAF2Wc7pfAdRTYkOHu8qfgnEV/nphiasKCofiKXDSMDRvi+UMKLXcYWWuv7XR3679e4qCMAAAgExFsAQAALosVlRifb/7iPX++r09EjAdXHKfGwr34QN328FVj1lz7cq20OjQpje89VX+Y+1K9zi4stpa3/MrrFo21fVI1ZCG6vX57hJXWQUAAJCpCJYAAEBSqBJIIUnRQ89b7zt/0q1zF6ka6eDKx61lY52b46ll4wZrfW+LC5AUHKlfDw3X88MlhUyr7MAvH3LHdRfN8VQw9VYrqn7Z+t77iOWNLA+2AAAAZCaCJQAAkHT5l463PnPut8KHnrO8sTf0TBXTysdceHQ8qmhS2NQdwuqkoupX3LxOPTn0DgAAIJkIlgAAQMqoiqlP5ff8Kqav3+sClqigOgkAAEQBwRIAAOgWGiangKUnq5i6g8IzhWiFP3ue6iQAAJD1CJaQUV74d7PXfx2sHGV/k9nj9/hLAED6CquYCn/8dI9N9p1sqk7Kv26aG+6m8EwhGoESAACIAoIlZJRehWb/cd+x4ZLCpEe+abbjbbMPCZYAICMoeAkn+1YgoyqmTKPqpF43f9NVJ/W+5U6GuwEAgMghWEJG+YtrzS772yPDpTBUUqB0491mp5zu9wMAMocCGVfF9NBzaV/FpOqkvNHj2qqTCq6/ieokAAAQWQRLyDgKlsJwafd7/vA4QiUAyA4aJpeuVUzhZNyqTurzrZ9SnQQAAOAhWEJGCsMl0fA4QiUAyD7xVUwKdHqqiknD3RRyFVW/wmTcAAAARyFYQsZSsHTDHWbT5xEqAUA2UxWTAh1VMWmYnIKeVAurk4qqX3bD3ahOAgAAaB/BEjLaud57C1UsAQCiQcPkFPSoiknD5JJdxUR1EgAAQOfEWj1BG0iJxoNmy94y27436IiAonyzyWebndE36AAipr6+3saMGWNr1qyx0tLSoLdnzJs3z11PVVVV0INsc3DlY+5x6PUXg57OUXVS/nU3Wd6l4yx3aFnQCwBAeqqsrHRL/rZBuiBYQsrd8zuz5ZuDlQhRuPSLq/0lEDUES+gJLTvqbf/DC+zQ2pXW2rQn6D0+VSfp7m754ydRmQQAyBgES0g3DIVDSr2yK5qhkqhSSw8AQPfQXExusu+f+XMxtTdMzq9OmuaGu2lIXcH1NxEqAQAAdAHBElJq8YagEUEX9mMoHAD0BAVFmotJk30rQNJcTHnlY63Xzd/0Q6db7mQybgBAxli2bJndddddwdqxVMFUXV0drAHdj2AJKaNqpZd3BisRdNPwoAEA6DEKkFTF1GfO/VQnAQAy0ujRo23FihVtQ+Diqa+2ttbKy/nABD2HYAkpE/VqpYv6BysAgB7V0NDg/ugGACATab7KpUuXutey+HApDJW0rafntES0ESwhJZa/Q7USACA9HO9TXgAAMkV8uKRhbzU1NYRKSBsES0iJKFcrXT2EaiUAAAAAyRWGS1qWlJQQKiFtECwh6VSttH1vsBJBVCsBQGbSkLn6+nq3BAAgHYXh0vLlywmVkDYIlpB0Ua9WGsid4AAgIyhAmjdvns2cOdMmTpxoc+fOdXfeWbt2bbAHAADpJ6xYAtJFrNUTtIEuU7XSPeuClQhaejXBEiCq+hgzZoytWbOmxz9NU3Cg66mqqgp6EDUKi+bPn+/+PR6PwqUHH3wwWDOrq6tzQdOMGTOsrKysrW/8+PEukNK8TRMmTOAPewBAuxoPeq8/b/l3yo6SywaaTT47WEFkECwhqT73THSHwala6Z9GBStAxBEsIZ10JFiaMmWKG1ogixYtsnfffdfmzJnjJkcVVTHp37KCJu2r2zqff/75LmgCAOBoGsUR1ZEcCy5nztmoYSgckiaZcytdPThonIQS8ZBu8S8dPTbZmFsJADLT+vXr26qSREGUAiQJAyUFTNpHd+AJ52BSqBQGTwAAhLY3RXt6kMbmoIHIIFhC0iTzl+fAQrNpw/2wpmKY2VdHmH1tpN+uCEortV1llmcEQ8/C9sQh3rbzzIry/WPCdioxtxIAZK4tW7bY6NGjgzVzw9vCSjuFSAqX1Kd9VMk0a9Ys19ZQuZ6uyAMApJ8oh0p6P3Z53If/iAaCJSRFKu4EF/Me+qVcXOC1vZUfvuYHTsVBSKTtes7wed/a7bc1jlkPBUzS1Owfl0pUKwFA5lI4FFYsadhkWK0ks2fPdnMpVVRUuHUFSqpS0n4aKhdf6QQAgKqVlm8OViKI90XRRLCEpEh2Kq/J7vQI26JfUq/s9MMjVSepXwHS2af429Wv4XDu2ObDgZOqlbZ5v+BThWolAMhsCofCyiMt4+dN0roeYdiktubrCoMmAADiRb1aKfxwH9FCsIQuS0W1ku6goEfY1vn1S3r1Nv/5wu1qq1JJ1FbQpP63PvD23epXOem4MJxKBVJ5AAAAAFQrBQ1EDsESuqw7UvkwZEo3VCsBAAAAEKqVghVEDsESuiQV1UqZhFQeAAAAANVKQQORRLCEhGXabTTDuZiShWolAAAAAEK1UrCCSCJYQsKUyKeiWkm/mC4baHb1YH9dAY7W1a9Ju7UM+xQWaXLucLvWw22ayFtt1+ed6/Iz/fMlg56LVB4AAAAA1UpBA5FFsISEuF+e7wQrSabQpjjfLBbzwyFrNbuov//Yc8DffpHXr0BJD4VH071fZkrJzz7Vv3NcuL8m8Vag9MI2f99kUVBFtRIAAAAAqpWCFUQWwRISkqpqpdAZhWYD+pidc+rhO7pta/LbCop0xzcFR7qGiYPNFnm/zPVLLebt58KogPZXxZL6khUsuV+eHwtWAAAAAEQW1UpBA5FGsIROS2W1UkjPsWa7fze4pmZ/+couv61PBN7abVa90Q+W/rnW36Z+XdeOfYfb2v7D1w73JQPVSgAAAACEaqVgBZFGsIRO0y/PVFYrKTRavc3sDx/46y/vPPx8aqsKSevhdrXDPonfR8J9w/Wu0C/PyecEKwAAAAAii2qloIHII1hCp3THL0+FQnqkI/3y1PxPAAAAAKLtnpeCRgdpag59UJ0NqFZCPIIldAqlnsEKACBt1dfX28yZM62hoSHoOVJ1dbXNmzcvWAMAoPM0FYdGSnSG5n51NxzylrqLtYKmo9vhfgs/cziE0noYSmnuWO0vaodzyWqp/cLzhdt1THiclkcfm6g7RgUNwEOwhA6j1DNoAADSWklJidXV1dmUKVOOCZcUKlVWVgZrAAAkpisfuP9ruX8jIoVMag8s9N9r3DrSD39uKgt2DNx6gR8Yaf9/+pR/rAIiHRM+Jp/t92uph0Ij3fToX7zz6zjdFElhkPbR/l/znkvLRMIlHaPzACGCJXQY1UrBCgAgrSlYWrp0qQuV4sOlMFSaNWuWzZ492/UBANBZiVQrxdu+z7/LtSqNigrM9gTTgLjKo/5mjQf8fUJn9PEehX77F2/5IZOCItG1aBqRF7b5S61rbtkwMFJoJZrHdofXr6XE79tZCqSAeLFWT9AGjkvVSp9bEaxEkNJ9giWg4zQUacyYMbZmzRorLS0NenuGhjzpeqqqqoIeRIV+7gqWtFTYpICJUAkA0FWfeyaxQCYczqawR8GU2qpG0h2wta7AqFhBk4Il7/zarvBHIZH6t3nvyXSszqM7YKsiScKbGoV0nIIjhU9a6jgtdazaom3heTpD13LfFcEKECBYQofc87voDoPTL+ZfXB2sAOgQgiWki/hwiVAJANBVCmLuWResJIHCIVUvZYql3vuigd77IyAeQ+FwUsytFDQAABlHwaaGxf37v/87oRIAoMuSPT1IJoVKVw8hVEL7CJZwUsytFKwAADKSwqXRo0cHawAAJEbVSokMgcsWfOCO42EoHE7qn9eard4WrEQMcysBiWEoXETt3ej9xf14sIIOKbnArN/4YAUAkM4SnVspG6ha6Z+890ZAewiWcFKa4O2fa/0J36JEt/DUZHoAOo9gKYL27zBbf4tZc2PQgQ4b9EX/AQBIW8meWynTMLcSToRgCQCQdARLEdTwqtkblcEKOuW0MWbnzA1WAADpiGqlYAVoB3MsIaPtfi9oAACQqQ5R5QUA6Yy5lYIGcBwES8hoj91j9vqvgxUAAAAASLIo38yIO8GhIwiWkNH2NwUNAAAAAEgyqpWCBnACBEsAAAAAALSDaqVgBTgBgiUAAAAAAI5CtVLQAE6CYAkAAAAAgDiNB6lWoloJHUWwBAAAAABAnNVbo1utVJRPtRI6h2AJAAAAAIA4qliKqophVCuhc2KtnqANZJyf3Gx22d+ajfhM0AEgLdTX19uYMWNszZo1VlpaGvT2jHnz5rnrqaqqCnqQEg2vmr1RGaygU0ouMDuPf58AkG7u817a3todrETE2af61UrF+UEH0AEES8hoBEtAeiJYiiCCpcQRLAEAgAzGUDgAANAhtbW1NmXKFGtoaAh6AABAd6urq3MfmgHpgmAJAAB0SFlZmQuVCJcAAOg5CxcudBXZQLogWAIAAB1SUlJiS5cude3Ohkt79ja7h7y5uWu32QnPkyky7XoBAAA6g2AJAAB0WKLh0j8s+INVLdlsj9Zstzc3N7k+BUzbdu1vC53UljCIaW+b/MOCt9zy6OP1CEMrtde9sce1/2HBm23b48+jdnh82A7Fr4fPE7Yl/rnCbeF5wv2//b83ufbcB9922wAAALIRk3cjozF5N5Ce0n3yboUhy5Yts5qaGreNeQoSN378eHvwwQdPOnn3LfdssDP79bKbrx9k337wbRvYr8CK++a68Oeqi0/z9mi1Z1/6wB75ziftgSe22KjhJd6y3q65rL+99EaDbd21375/2znuXAqWPj9hgD237n3vKHPnVXCzZ+8h11aoc+7gvvb7zXvd+lMv7LLKqYPt6dW73PGfn3CGjTqv2KqWvNP2/DpG+1d5z6FzPrpiu9umfd98xw/CivvmuefRdW/ddcA+4T2H9lHf/XcM977GN7y9Wt35/FDLb+u6dOw1l/dz5zkGk3cDADqhstJ/veXGJEgXBEvIaARLQHpK52BJE1DPnDnTtSsqKty8QT19jZlo0aJF7nup6iV9D08ULCl4efqFXTawXy8XBimUKe6bY5+fMNCFOwpfwiBJAY1CHQUxT72w0wVLMe8cz770Z7v5+lIr6ptrP1iy2a70jlF/q/c/23bud8c/umKbjTqvxPbsO2TrNuyxcwf3cedZ90aD3XzdIKt6ZLNde1k/t68owFJgpedXAPU7b79brh/kAiZd5+/e2GM3jh/grts/Z4PdGARNCsEUkqkKSwGSrk3nUzsMmRSeaX8dp3NcNUoBWjsIlgAAnUCwhHRDsISMRrAEpKd0DZYUhsydO9emT59us2fPdsO60Hnz5893E4e2hUpykoqlp1bvtG27Dti1l/dzQY+CFgUu695otJuvPzMIdva44Edhj6qLVBlU1DfPnnvpfbvq4lPtmsv7u3Op+knVS+E+A/v3csfrDxr1KcD5/TtN1rj3kJ07pG9QMZRrW3fud31h5dCjK3a4fu2jAErPq0qm+G3aV+0z+xXYxcNL2s6vgEttfT0Kohqb/KFurbGY+xqe9r7ec4cUunM+u+59F1jpa24XwRIAoBMIlpBuCJaQ0QiWgPSUjsGSgiRd07e+9S2bMWNGsBWd1W6oJCcJlo6mwEWVSaOGF9tVF38k6D1WOI+RhraFdKyCpEyhryH++o9BsAQA6ASCJaQbJu8GAESCJprW0DdCpcRpTqp2Q6UEKBiqnDrkhKGSKJA5OpTJpFBJThgqAQAAZDiCJQBA1qurq2urWkLiNFG3qtC6GioBAAAgexAsAQCynoKl8vJyJulOAualAgAAQDyCJQBAJBAqAQAAAMlHsAQAAAAAAICEECwBAAAAAAAgIQRLAAAAAAAASAjBEgAAAAAAABJCsAQAAAAAAICEECwBAAAAAAAgIQRLAAAAAAAASAjBEgAAAAAAABJCsAQAALqu14CggU4r4HsHAAAyF8ESAADoul5nmJ35RT9g4tHxR/EFZoO87xsAAECGirV6gjaQcX5ys9llf2s24jNBB4C0UF9fb2PGjLE1a9ZYaWlp0Nsz5s2bZ/Pnz7eKigqrqqoKegEAADJTZWWlW/J3DdIFFUsAACCrNTQ0uLATAAAAyUewBAAAslptba1NmTIlWAMAAEAyESwBAICstnv37qAFAACAZCNYQkb5j/vMXvj3YOUou98ze/wefwkAAAAA2WDZsmV21113BWvH0pxL1dXVwRrQ/QiWkFEGf9IPlo4OlxQmPfJNf9m7MOgEAAAAgAw3evRoW7FiRduk3fHUpyHf5eXlQQ/Q/QiWkFF097e/vvXIcCkMlRQo3Xi3WS+CJQAAAABZQnfYXbp0qQuQ4sOlMFTStp6+Cy+ijWAJGSc+XFKopCWhEgAAAIBsFR8uadhbTU0NoRLSBsESMlIYLsmAjxMqAQAAAMhuYbikZUlJCaES0gbBEjKWwqWb5hEqAQAAAIiGMFwiVEI6IVhCRlO1EqESAAAAgKhQoESohHQSa/UEbSAltjeZLdto1ngw6IiIqwebXdQ/WAEipr6+3saMGWNr1qzp8T985s2bZ/Pnz7eKigqrqqoKehEluk2z/g3o3yMAAN1l8QbvvdDeYCUiLuxnNnFIsILIIFhCyt222uzlncFKhBTlm/3ian8JRA3BEtIJwRIAoLspVNIjihZczgfsUcNQOKTUK7uiGSqJKrSiVqUFAAAARJ1GbCx/J1iJoKhVaYFgCSn2r78LGhGkMtAz+gYrAAAAACJh+ebohit6/3Mh1UqRQ7CElFFKH+W0+o5PBQ0AAAAAkaBqpagOgRPNMzuQD9cjh2AJKRPpX6hD+IUKAAAARE2U3wOpWml6WbCCSCFYQkpEvVrppuFBAwAAAEAkuLmVNgcrEcR7oOgiWEJKUK0UrAAAAACIhKhXK0303gchmgiWkHTJqFbSxNcdcfYpQcMTTpTd0WNThaQeAAAAiBaqlYIGIolgCUmXjKT+ov5mlw00m3y2HxRVDPPbCpLUL6oM+trIw4FS2FZSrl9sRfnecd4xEwf727sD1UoAAABA9FCtFKwgkgiWkFTJnFvpnFPNlr3lh0zFBX5bv7DULwpw9Fzh8721+/D6Hz7wg6hzTjE729s/vrIplUjqAQAAgGihWiloILIIlpBUqUrqlYKrGqjxoN9WJVIorFhShVLY1n5h0LTNe6idalQrAUB6qK+vt3nz5gVrx6qrq7Pq6upgDQCArqFaKVhBZBEsIWmSWa2kX87hL2gtdd4Xtvrte9aZPeM9V9hWiCQ/fM1vq/+VXWarg/21b3cgqQeA9FBSUuKCo8rKyqDnMIVKU6ZMsXfffTfoAQAgcVQrBQ1EGsESkkYhTqro3GGAJB1ph9rrSzaqlQAgfShYWrp0qdXW1h4RLoWh0vTp02327NlBLwAAiUvle6B0R7USQgRLSIpkVitlIpJ6AEgvpaWlbeHS/PnzraGhgVAJAJBUVCsFDUQewRKSojuTes2lpMm4w/mUOkrHpQLVSgCQnsJwSRQsESoBAJIpkfdAqXpPkojOvp+KR7US4hEsocv0CzWZ1UphaKRfuhf2Ozwpt/rVvmOUv5/6wn49tO/Rx4ra6tdd4lKBpB4A0lcYLlVVVREqAQCSJtFqpX8dffj9S/x7mfC9TfjeZdp5ZpcN9I+J3yd8n3P0e5729tFS6/H9aofbw/dVieA9EOIRLKFL3C/UJE6OrV+eAwvNzvF+4emXVSxm9rWRfiiktvoUYulxUX9/XXMoafvlZ3rHneq3dUyx9wszbOucqaBf+FQrAUB6U7hUUVERrAEA0HX3vBQ0EqD3J3rfomX4XkVLvbdR6HPrBX6f3s+E+2tdQZCCofB90ILL/fdAeg+lbWqrikjbFGBpqXW9J9L2cJvOp33PSPA9kq6BaiXEi7V6gjbQaapWSuYwOP3Se3mn39YvK93pTb/4FB7pefQLUaGS2vqlKGFb/TpWxymRf2azWWGe/0tT+6g/mdeq51hwBcES0B7d7n3MmDG2Zs0a96a+J+m285pjR8GCqlaQvnRHz/A1ICr0WsIf5wCQWfR6devzwUon3ee9f9A78NtWH27rPc+t3nuebd77Gd3Z+nPn+K+Hb33grW/zA6RwH715f8HrU7jzsncdF/Xz3wcpkLrMe9/zw1e9908X+HfUVlVS9UZv3xJve4H/nuqt3cGx3vn1HmrGr/3r6gxdj8ItIESwhISpWulW7xeifpElk/7A1jm3eedXWxVR+kWpX4L65Rj/C1HCtvr10B/pWobHapvS/j94+2nfZFG10vSyYAXAEQiW0Fl6TfncimAlYvQBij5YAQBkBoVCiX4Qog+99xzwwym1K4b5H4j/4QP/PYwLivb574XU1nA7BTnhPnqvo/c2CqH0HkmVTHrPo3MpddL+auv6FP4oqNL7Ip1bx4e0j95zaXtn6P2YAjEgHsESEqI3jT95qtZWD4jm0AKqlYATI1hCZ93zO/+P4SjSH/xdmecCANB9VC30T2uDlSTQjYCeOcnUIh3Zp7tQrYT2MMcSEvLm9gZ7ZMFc271iftATLVcPJlQCgGSJ+u2a9ekvACAz3Pdq0EiSjgRG6RIqaS4nQiW0h2AJCXnRymzAV5Zaw3MLIxcuqVqJIXAAkDzJnP8u0zDHEgBkDg05S/Y0IJlEczcB7SFYQqeFnywXDMqscElVRskQThoOAOi6qFcr8ZoCAJkjyh+EaDgeIzZwPAnNsdTQ0GDLli1zc2iojWjRBNiaCDt06M/19uFbtXbadXOs5MrpQW/iNCRAk8npU1zd/UB3N4h5/ZrATrfE1JsQlWBqwjpNQvdKcEcD3RVB23R8U7N/xwRNbKd/4THvBJrcTufrCl3TL64OVgAcF3MsoaP+ubbzE4dmC15TACBzqFrpnnXBSgQt9V6vCJZwPJ2qWFKIdNddd9mIESNs0aJFhEoRpNJPdzcBpTbBo/nP9dpkrfuSd8s1hUXhHd0UKiks0nMrKFKYpFtvqq39dDedxgNm53j7KnDSLTUVImm7zlFc4H+6oOO6ik+WASB5dEecqIZKotcvAEBmoFopWAHa0eGKJX36PGXKFCspKbFvfetbNnr06GALouTou/Y0/r9q+9MjlXbqhFl2ytWzg96uCSuWRG84zjnV/1RXgZZCIleVFEwap1/w+sNcS81Rof3jJ5QL13W8dOUFgU+WgY6jYgkd0ZXbNWc6vdZxu2YAyAxUKxEs4cQ6VLEUhkrl5eW2dOlSQqWIOnoejFSEStLY7N/GU8PW9Gn2srf89jPec6u9Otimh6qQ9Ete1UwKjTRMT/uED/XrhUDbuhIqCdVKAJA8+v0e1VBJeE0BgMzR1fcRmYxqJXREh4Ilfdorc+bMcRVLiKb4X6gHttSlJFQSDXNLtzcbqlbirj0AkDxdnfMuk6laids1A0Bm0IfUUb4THB+EoCNOGiypWqm6utpmz55NqBRhR1cr5fQpsY9+virpoVK64hcqACSP/kh38/VF1B2fChoAgLRHtVKwApzASYOltWvXuvkxNDcFouvoX6h5Hym1ok9H498E1UoAkFzJ+iNdf/DqZg0doSoh0f5qh4/uxh/pAJA5qFYKGsBJdKhiqacnXkXPOrpaKWr4hQoAyZPMP9Iv6md22UCzO0aZLbjcD4rU1kPtqwf7j4ne45+8Pn1QoH7d9EE3hph8tn+c7kCqY7rj9z2vKQCQOahWClaAkyBYwklF+Rcq1UoAkFzJfk0ZWOjfuEFh1Rlxbd1dVNv02L4veHj92q6Hbv6gG0WE+6qS6exTO14BlQj+SAeAzEG1UtAAOqBDk3cj4mLBMoL4hQoAyZPsP9IVDumhylotRRVMeui5VJ2kaiQpyvM/LNB+WkrjAX9d8z25c3nrqcRrCgBkjvB1JYr4IASdFWv1BO12VVZWumVVVZVbInq2eX+wh7f0j5KKYWafOydYAdApqnYdM2aMrVmzpserXnVn0/nz57u5Ankt61mfeya1ryWqONLwuGVvBR1pRH+kazgeACBz3PeqX90aJfrw5V9GmxWnsIIX2YdgCQCQdARLOJoqiPQhRVQtvZpPfwEAQHZiKBwyWl1dnTU0NARrAIB0xQSowQoAAF2k9z/6EA9IFwRLyGgzZ860FStWBGsAgHTEBKhBAwCAJJg7d66ryAbSBcESAABIqVRUK2kOCD00QbeWqgrSUnd1C9uaxFvb9VA7PEZt7Rf2h/vEH5ssVCsBAIBsR7AEAABSJlXVShf19x8Th5hddqbZ5QP9ibu/NtIPcu4YZTb5bLNYzK8Y0lLbLgyO0zZNpq325d7x2kePc07x90sWqpUAAEC2I1gCAAApk8q5lc4u8auLtjeZvbXbD4uKCrz2B2av7PL3eXmnv1y91azY2zZx8OFbSG/f5x+nh6i/8cDhY7uKaiUAABAFBEsAACAlFCqlam4lVUK98iez6o1+EKRw6Ieve49XvY0xf3sYaoXLZW/5+2hfBU1aV/Ckh/bR462Gw2FUV1GtBAAAooBgCQAAJJ2qiBTupJLCIT1UaaSlAiEFWWprGVYehUv1q5rJLYNwSfvF7xtu66pp51GtBAAAooFgCQAAJN3yzX5gE0UanjfxY8EKAABAliNYAgAASdUd1Urp7OrBVCsBAIDoIFgCAABJRbVSsAIAABABBEsAACBpVK0UTpYdRVQrAQCAqCFYAgAASRPlUEnVStPLghUAAICIIFgCAABJ4eZW2hysRNBNw4MGAABAhBAsAQCApIh6tdLEIcEKAABAhBAsAQCALqNaKWgAAABEDMESAADossaDQSOCqFYCAABRRrAEAAC67OxTzSqGBSsRUpRv9rWRwQoAAEAExVo9QbtdlZWVbllVVeWWQDoZM2aMzZo1yyZPnhz0AEgH9fX17r/PNWvWWGlpadDbM+bNm2fz58+3iooKXssAAEDG4z060g0VSwAAIOs1NDQELQAAACQTwRIAAMhqNTU1NmXKlGANAAAAyUSwBAAAstru3bupWAIAAEgRgiUAAAAAAAAkhGAJAAAAAAAACSFYAgAAAAAAQEIIlgAAAAAAAJAQgiUAAAAAAAAkhGAJAAAAAAAACSFYAgAAAAAAQEIIlgAAAAAAAJAQgiUAAAAAAAAkhGAJAAAAAAAACSFYAgAAAAAAQEIIlgAAAAAAAJAQgiUAAAAAAAAkhGAJAAAAAAAACSFYAgAAAAAAQEIIlgAAAAAASFPLli2zu+66K1g7UkNDg02ZMsWqq6uDHqD7ESwBAAAAAJCmRo8ebStWrLDKysqgxxeGSvX19VZeXh70At2PYAkAAAAAgDRVWlpqS5cutdra2rZwKQyVtNQ27QP0FIIlAACQVfTJ7YmGBNTV1VlNTU2wBgBA+osPl/Qap9cxQiWkC4IlAACQdebOnWvz588P1g5TqKRPeNevXx/0AACQGcJwScv4NtDTCJYAAEBWCf/YXrhw4RHhUhgqTZ8+3WbPnh30AgCQOcLXuOXLlxMqIW0QLAEAgKxTVlbWFi4tWrSobS4KQiUAQKZToFRSUhKsAT0v1uoJ2u0KJwerqqpySyCdjBkzxmbNmmWTJ08OegCkA81xo/8+16xZ0+Ofps2bN89VrVRUVPBaFkFhlZKCJb1eECoBADpsy8/N9rwarKBDii8wG/TFYAVRQbCEjEawBKQngiWkE4VLa9eutRkzZgQ9AACcxK4as033BivolHPvMjv10mAFUcBQOAAAkNU0LI5QCQDQKfu3Bw10WnNj0EBUULGEjDJx4kSbMGGCq1KS+IqlcLiD5tTQmwgAPYeKJSSi8aDZC1uDlYg4o9Dswn7BCgAgfWgYnB7ovKG3m/UbH6wgCgiWkFHC8EifPCtQCoOl888/n0lZgTRCsITO2t5kNv3XfrgUNV8baTb57GAFAJAeCJYSR7AUOQyFQ0aJv8tPeAvpDRs2ECoBQIZbvCGaoZK8vDNoAAAAZCCCJWSc+HBJVRFaEioBQOZStdLyzcFKBF1+ZtAAAADIQARLyEhhuFRSUuKGwhEqAUDmUrVSVJ3R12zikGAFAAAgAxEsIWMpXNL8LYRKAJC5ol6tdNPwoAEAAJChCJaQ0VSxBADIXFQrBSsAAAAZirvCISMdeu1FO7h2pTV7j5wBgyx/7CTLu3S8xQqLgz2QlRpeNXv73mAFHZJbZDb4781KLgg6ugd3hUNHqFrpcyuClQi6YxTBEgCkLe4KlzjuChc5VCwhY7Q27bEDS+6zpq9cY3u/caMdfHKxte6odyHThz+43Zq+dIVbah1Z6u3vme3fwaMzj70b/e8bkIaoVgpWAABIkT17m4NWx3R2f0AIlpDWXJj0xGIXJDVWXGj7H15gLZvafyfS2tRgB1c+5vZtmnalC5mOty8y1P7tQQOdwvcNaYi5lYIGACDjPPvS+97jg2DtSPHBzNZd+61qyeEXu3Cb+rZ5244X4sT3H32+R1fscO2w/4Ent7jl0ef6hwV/sHVvNLjl8Z4r7ItfPrfu/bZ2e47Xj2hjKBzSkqqO9i9ZYC0bN7jAqCtyBpRawdRbLW9kucUGDAp6kZF+OzZooNM+vSpodA+GwuFk7vlddIMlVSv94upgBQCQnk4wFO6p1bss5i2vubyfPfBEvb25eZ8N7NfLzh3Sx9Zt2GOfGNLXHlmxw666+FRr3HvI5swcarfcs8FGnVdi697Y4+1b4Npvbm5yx5q1WuXUIfboiu22x9u/qG+ufWp4iVUteccqbxzsPU9/d7ye40zvoXBn264DNmp4sTtG53923fvuXN+/7Wx3jXMffNttV/+5g/t62/Z619fXGpt0/jz33Dqfru/3XvuBO4Z7V2H24BNbbKt3bl3jte7r2+KeU+dQoKbr+7b3fFo/LobCRQ4VS0gbbkjb/XdbY8VFrupI610NlaRlR72rXmqcdoU/hG7lY64SCgDQM17ZRbUSACA7KLCZM/PjLqhRWyHMm+/steK+uS6Yiff5CQO8//XrOhr3Ha4S+vz4M1wV05UXn+aqjHSswqVzBxe6UMnf75Dd6I73jvXaUtwnzwb26+3tn+e261zaprbOce5ZfV2Ape03X19q23but69PHeyuVW6+fpB/nZf1d2FSKAzE3nxnnwuQ9FC1lM51lXeNOj8Qj2AJPUpzJGnepMZpVx6eNykJYdLxhPMxaVidlpr8GwDQvZI1t9JlA82K8oOVkzj7lKDhUTt8dLcLvfcYzK0EAJntzH4FLgBSGKTARkuFSMV9cl1QM+q8YhfOqHpJ7ZCqixTMqE9hjQKaq0Z568OLvfZB1775ukGu/xPedvWHwvOpKsoPnfrawP4F3rKPbd31Yds+2qZwS0HQwP5+FZUeurb4a9V1hNcabm8MhrkpoNJ5rhp1qlvXua69vP8R5wLiMRQO3U7VQgdrqq25dmVaTLStoXK5Iy+xgutuspyhPfsxckNDg3u0N3RIQ4vq6ups/PgIl5UyFC5xDIVjKFyaULXSrc8HK12ku6q9vNPsHAVEMbPl75hNHOy3V289HDppuMLXRnrPu9oPk1Qx9MxmP+TZvtds2Vtmk88229ZkVr3RPyZVFlxudpH/4TMAIJ0l+a5wCpU+P+GMYO1ICqlU5XS87YlYt6HBNPRN1Uod9dTqnXZm/16uMqlLGAoXOVQsoVsoTFKI5CbW/tIVtv+Bu9MiVBINldPwON1tTpN+a7Lw1h3+JHjdQUGS3vTOnDnTBbkrVrR/7+1ly5ZZWVlZsAYAmSnZd4IbWGi2fZ8fIp19qt9uPOiHN+d463o0Nvv9CpHe2u0/tI9CLh132Zn+8nJvqfmPUkVBFqESAETTiUIjBTnJDJVk1HB/CFxnqCqpy6ESIolgCSnlhp7df7cLk5I5b1KqKGRS6HXEfEwpDpkUJo0bN87mzJljDz74oM2YMSPYciRVK4WVHwqj7rrrLqutrW1bD9sAkK5UUaQKo2RTSBTS8DgFOHqeqwf7bSny/rZWeKR9VbUUtkVLrb/1wZHnSjZVTQEAAGQbgiUkXdu8ScEk3KmeNylVXCgWTPqdqvmYwkBIFUuqSNK6LFq0yCZOnOj6ZP369UdUK82dO9cN6ykvL3frGuqzdu1aq6mpcesAkI6SXa10zzr/nAqs1N7e5Fch/XOtv5zxa7PbVvshk4bBKTTSQ30a/hYe90ywXPxG6oKlq4f41VMAAHSW5jia++Ame3TFDjdsTo+Q5kN6tGZ7sAb0DIIlJIWGumkImYIkTcS9/+EFGRkmHY8ql/bd9WU3VE4hU7KG8b377rs2ffp0V6k0e/ZsKykpcSGTlqpOCiuUFBiFIVIYQGnInOaxUTCldbW1jyqbACDdKMTRULRUUpikoCkMh+JDouO1Q+prrz9ZuBMcACBRz730fjAZd4G3POAm8dacTQ88scXdvU3rCpiAnkKwhIQpTGr+zUo/TKq4sMPzJsUK/bsbaBkbMMi1U8U9x1HP05UJusP5mPQ1u/mYltzXpaFye/bscSFSSOGQ5tPXUhVKsVjMVSMpPBo9enRbgDRr1iybPHmyLVy40FUzaUJvDaXT+u7du4Oz4URS9eLbmfOG+2oZf1x8fyi+rVvZbvP+uIjvA9JdsquVMomqlQamcO4mAEB2O/esvm7uI03wvW2n/zegqpQUNmmSbt3BTQET0FMIltBp8fMm7fvOlztVvZM/7gbrdcud1ve7j7g7scUKS1zwo7AnDIHC4KctFDqqX47e73jtvEvHW/51N1nuiHIrmHqre87ckX7lj/bTPm2PToZcbj6mhxd0aT6m4uJiO+uss4I1c6GQQiRVKmmuJQ1vU4CkYW/h5N5a37JlixsOp33OP/98V9GkUEnrCqAymYKzztKLaxiyKHDRQxTAiLaFfaJ+lRKHbXngyS1t54nfN349/nzh8ujt4XklfpuW8ecV7as/CPSJkx7a/x8W/MGeXr3L/bHw7LoP3HWF+8pTL+zy/qhost9vbmrrC68LSFfdUa2UTJpvKZmoVgIAJJMm5R7Yr5e3zLWB/Xtbo/c3pMIloKfEWlUecQJ6IyvcojnaWjbWWXPtKv+OaV0Y4pY/bpLlj73BDqx8zGIx7x/g6aVeX4Udeq3Wmr1Hr+tuskObNljz2hp3+//9D9/nwiC3z9qV1tK421UJ9fnWT+3Qxg0u3CnwzqnlEcd77QIds6nOWhsbLM87R8uOLdbibcsdPc6aV1VbztAyyxtxiR30zqvKoNwRn7a935gaXGni8rzz66GvNZkUuPT0bdtTTV+jblGvYYGqyjrGb8cGjSOpDNi9uBbm2nPr3rdrLu/nyoSL++S6MejbvPbnxw9wd8fQvucO7utKit1+O/e7T3h+v3mvVU4d7EIdBTVzZg51Qc8t97xhN19/pndMoftESNv0Yj7qvGIXFCkY8v4ley/qvWzbzg+97fvs+7ed447Vc7kX/H697SXvOvSCf/P1g9ru0KHtn58wwC0/MaTQBn60wDtVzJ07/Jre3Nzk7tDxrPd16VgFUHoufWIlaodfZ+XUIa6vXZ9eFTS6R/izXLNmTY//u1XVn4aYKqDltaxnfO6Z1ARL4STcGgJ3dDsc2qa2nlvbwmXY1rZwfwn7Jnr/KWnOpWRQtdI/jQpWAACZY8vP/Uca09+bor8Pb74+jd4nDL3drN/4YAVRQMUSjit+3qSmr16bpHmTWl21k0IfhUqqWFKopGDIbfXOr8ofhT5WdIrlDPMnrFb/gZXVbn+JDSh14ZB5/QqO3DFen/Y79Hqt3/b6NVQvpOcIn0fn12TcLd7XKAqiWi3m2l2l82oepmTPx5TtoZLoa9Qb/zAI6KjwRdX7IbrQyIVD7zR5/YfsE966wh2FSqJ9rxp1mmuve0M//5jb78x+vVyfgiKtiwKgay/rZ8+t+8CdU/uqT+d79qX37dwhfd2+Wm9s0nk/0vZpUXhOPZc+RVL5ssIphVi6hsOVTAfsxgln+Md5/wQVIIkfWJnb9oj3x0KoyHt+fU0hfZ06V3j9QLpJVbXSGd5/BneM8kMg3f3t8jPNJp9tVuE91K91VQppqbBId2TTuvaZ7r20/Eu59994gb/UtoGFfvui/sETJAnVSgCAVPH/Ls1Lr1AJkUSwhGMkMm9SRx167beWP3aSq1hSBdTBVY+5AChW5L/pP7DycWt9r94Ovf6iu5ucqB1rbXVVQAd++ZDrO/DwAsv/bFCdVLvSbTv45EPu+EOb3nDhjvpV7aTj1d+86nGzwhIXSGnfvHIds9htVzWTC6qSSCFW/HxMCtS6Mh9TVIRVJZ0JlxQmKZQ5s38vF+hcOeo0+/yEM1zgcu6QQrceUr+GkF056lT/OM+o4cUuJFLIoxfnKy8+vH9RobfuHe8HRIfcvqp0UrijoCgMrNSnUOhT5/lziCnoUVikyRS1Tef/hPdQn55DFVJn9iuwgd7jqdW73Hh5hU86v6qVbrl+UNv+qlRSv4R9WtdDX4++Zk3mCKSjVM6tpMDqDx/4AZHCI1UiNR0we2azHzZpmyh8emu3H0ZpH/WrmmmPt6+OldVb3a+RtmOSgbmVAABAFDAUDkdQEKIqm+6kIWM5Hx/uQqPWoKLoaHljJ1nzqseCtcylSqrCh55zbd29TZNxo326+111dfWRw+KOMxQOHcBQOIbC9YDwdv6pEFYsvbDNfx5VJqlq8Q+7/aqjxgNmL+/yQyWFRhIOg1PIJNqmYy/09n/GW1420K9c2tbkn7erll5NsAQAGSsDhsKlLYbCRQ7BEo6wr+of/coepExR9StusnC96U5kouqo0V3zXn/9dX+FYClxBEsESz0gVXMriQKiC/slJwBKBeZWAoAMR7CUOIKlyCFYwhE031EyJrBG+3SHut63fDNYw4koCNCd7pYuXWplZf5cWwRLXUCwRLDUzVJZrZQJqFYCgAxHsJQ4gqXIYY4lHEG34tdQrd5fv7fttv3pKHfEJUHrxDTHkqqDepKeP/+6adbnu0sIlTqo3VApRTQJdziRdio9+9Kfg9bxacJuf0JxIPOlcm6ldMfcSgAAIEoIlnAMzQOkeY8Kf/y09f3RU5Y39gaLDRgUbO0+mtC719fvtT53/tSFXAVTb3WBl0Kl3pXfc33aR9vVr+0KcPJGj7VeN3/TzcvU+5Y7LXd0z6Tlus4+3/qpFf7seXcdeSPLgy04ke4MlWTdhgY3GfazL33gQh3dtl93gHv6hV0udNLtW9X3wJNb3PrcBzdZ1ZJ33J3d1Ke2jnv6hZ1uXY83N++1R2u2t+0n23YecOfSQ0FW1ZLN7lwKk3SM2prwW9cDZLplb6VuCFwm4E5wAAAgSgiWcEK5w8qsT+X3rOih513FjQuZuqkCKFZYYjm6i1ttjbvrW+7QMne3N1Uhte5411o2bXD7tDQ1uDuwaVu+t1/+ddOt1evLHTbcDm2sS+pd7U5GYZJCraLql63vvY+469Y1omM0mfmKFSu6LVQS3aFNd1VrbGq2rTv3B3dsa/LDpnXve8s8169Jga+6+DQb2K+XW765eZ/r053itH1gv95u/ZrL/LvDvfmO7vrWywVKorBJO+i5tL/uKqd9n/P2PfOjvezi80q6pXIKSLXtTX6wFFXTzqNaCQAARAvBEjpMFTcuZKp+pa1yKNVa3qu31sY91qLb9MfMCq67yQ66ycVjFhsQzNvS1GCtTXvcfloeWrvSVTMd2rjBhU95l6Z2Xh4FbaqW0hBChUkF199EmJQgTdS9fPnybguVRBVFxX1z7XdvNNibm5tcBZG8+U6TjTqv2IU9xYV5bh/Rsrgw1x0XViPFb5NzB/f1AyTv2CJvX1U6ycD+vf3j9jW7PlU6aV+FWOGx4TmBTLV8c3SrlXSnuokfC1YAAAAigsm70SWqFFJF0IEnF7sQJyoUJuWNm+Qqkhji1o1SMHm3KokU6qgSKVUUFmkI3M3Xn3gS65ReC5N3M3l3N1C10q2roxssqVppevfl4gCAVNq5wuzt7wUr6JRz5pqdNiZYQRQQLCFpFDIpYNKQtFZVGGUZhUk5Q8us4Au3uiGCVCX1AO4KlziCJYKlbqAJu6M6abeqlRZcwTA4AMgq9T832/NqsIIOUaB0xg3BCqKCYAkp0fxarR1c+ZgblqbhaZlMQ/5UmZQ/fhJhUk8jWEocwRLBUoo1HjT73DP+MoqoVgIAAFHFHEtIiaPnY8orz6xAIHZ6KfMmAUAnaBhcVEMlVSsRKgEAuktdXZ37EA9IFwRLSLn8cZOsz5z7XUjTXZN+J0JD3fKvm+buflf0s+es1xdus5xwgnAAwAmdfarZhf2ClYj52sigAQBAN1i4cKGryAbSBUPh0CPSZT6m+HmTmIQ7AzAULnEMhWMoXDfZFrGJu4vyzYq9BwAA3YX36Eg3VCyhR6gSqPctd1rRQ8+7CqG8sTdYbMCgYGvqqWqq183ftMKfPe+GuhEqAUByaPLqKD0IlQAAQNQRLKHHtc3H9NDz1vvOn6RsPiZXmTT1Viuqfpl5kwAgQmpqamzixInBGgAAAJKJYAlpJf/S8Umdjyl+3qTCHz/l5k0iTAKAaNm9e7c1NDQEawAAAEgmgiWkJQ2V06TfqixSyKRhax0dKqcwKW/0OH8Sbt2V7pY7GeoGAAAAAEAKECwh7Slk0rC1k83HFD9vUp9v/ZQwKRsVXxA00Cl9hwUNAAAAAEgu7gqHjHXwNzV26PUX3dA25kuKiP3bzbY/bnaoKejASeUWmp1xg1mvM4KO7sFd4ZBOli1b5v4N6N8jAACZjvfoSDcESwCApCNYQjohWAIAZBPeoyPdMBQOGU1vFvQGtiM0cavuDLRw4UKbO3eu+4WsZUePB05E4QUAAAAARA3BEjKaPoFeu3ZtsHZidXV17s5AUlJS4hL+OXPmuGqK2tpaq66udtuEsAmdoX8v+rfIvxsAAAAAUUOwhMgoLy+3yZMnu8oltUVthUorVqyw8ePHuwommTlzplsqKFA7XAcAAAAAAIcRLCFyVLl0/vnnu7YCJYVJqlwSBU0aXqeKJtHwprKyMvcAAAAAAABHIlhC5Cg0CoMjVSTNmDHDtRU4KUDSPExhkKRqJlU3aR/mYwIAAAAA4EgES4gcVSWFFBTpTlGiMEnhkoKk0aNHuz61FTSpimn27Nk9fncrAAAAAADSCcESIufBBx8MWubColA4obfmYQrnYNIQOe2jiqWwygkAAAAAAPgIlhBp7VUgxQ+Vi28DAAAAAIAjESwBAAAAAAAgIQRLAAAAAAAASAjBEgAAAAAAABJCsAQAAAAAAICEECwBAAAAAAAgIQRLAAAAAAAASAjBEgAAAAAAABJCsAQAAAAAAICEECwhoyxbtszq6+uDtWMtXLjQGhoagjUAAAAAAJBKBEvIKHV1dTZlypR2w6XKykpbtGgRwRIAAAAAAN2EYAkZZc6cOVZeXn5MuKRQqba21pYuXWqlpaVBLwAAAAAASCWCJWScqqqqtnBJ1Unz588nVAIAAAAAoAcQLCEjheFSOOyNUAkAAAAAgO5HsISMpXBp1qxZhEoAAAAAAPQQgiVktNmzZxMqAQAAAADQQwiWkLFam/bYwZWP2aHXXgx6AAAAAABAdyJYQsZRkLSv6nZr+tIV9uEPbre937jRmqZd6UImhU0AAAAAAKB7ECwhIygwOvDEYhci6dG8SiGSP3G3tOyodyFTGDa17tgSbAEAAAAAAKlCsIS0puqkD++/2wVG+x+4+6TD3hQ2qXKpcdoVLoBSGwAAAAAy1cKFC23ixIltd8SOpz5tq66uDnqA7kewhLSj6qTm36xsq046+OTiI6qTOsqFUqpimnYlVUwAAAAAMtKECRNcgDRlypQjwqX4vvLy8qAX6H4ES0gbbrjbkvtcddK+73w5aZNya5gcVUwAAAAAMpHugr106dIjgqT4trZxp2z0JIIl9DgFSAp8GisutP0PL0ioOqmj4quYDj75EFVMAJCF6uvrbd68ecHaserq6hgyAADIKPHhUk1NjXsQKiFdECyhR4TVSY0VF7lQKVnVSR3lJvu+/zuuiklBU3c/PwAgdUpKSlxwVFlZGfQcplBJn/C+++67QQ8AAJkhDJe0jG8DPY1gCd2qO6uTOkpD43RNrorJa1PFBACZTcGS/tiura09IlwKQ6Xp06fb7Nmzg14AADKHgqTly5e7B6ES0gXBElKube6kr1zTI9VJHeWqmH5we1sVU8umDcEWAECmCT/JVbg0f/78trkoCJUAAJlOH6DoAaSLWKsnaLcr/KSvqqrKLYGOUoB0cO1Ka1YVUBpUJiUiZ1iZFXx2muWPmxT0AMfSfC5jxoyxNWvW8MlRIJ2+J5prR8FCRUUFr2URpH+LCpS0nDVrFqESAKDjtvzcbNeKYAUnlVtkVnKh2eC/CzoQFQRLSCpVJx2sqbbm2pVZNW9RzoBSyx15ifWaepvFBgwKegEfwdKxCJaQTvTvUZVL+jcAAECH7Kox23RvsIJOOfcus1MvDVYQBQyFQ1K0bKyzD++/25q+dIXtf+Duk4ZK+ddNs5wBg6z31++12Ompe9OZN3qsxQZ0/fwaJqf5lzRMTsP51Ea06Y3qiWjYDYD0oHCTUAkA0Cn7twcNdFpzY9BAVFCxhC5p/s1KO/DLxZ2uTsofd4MLlPJGlrugRgFQztAyixWV2MEnF1vB1Nvs0KY6a91Rb7kjyu3Q67UWG3CW5Q4d7kKdWFGx21+VUTmnD/KPLfSO9a4lb+wkVzmlfVVptH/JAnd9eaPHefsU26G3N7h9dVzLe1sSrqyiiinahgwZ4obUaGjN0dU5qo5Rlcw777wT7B09VCwhEW99YPbyLrPGg0FHBJxzqtllA4MVAED60DA4PdB5Q2836zc+WEEUECyh09xwtycX24EnFic8d5IqlQ69prCo1E3sXTD1Vjv0+ouWP3aSNa+tcWFS7rDhXnuV5Qz1lq+96NZdeLTqMRce5Q0rs5bt9dbsHZc34hLXr6An5/RS11bYo/Cnea0/LE9hlhza9IYLmFQx1bIj8WApnkIrzcOkJaIhvJW5wiUFFmGIon4FGfqdGeUKCYIldNb2JrPpv45WqBT62kizyWcHKwCA9ECwlDiCpchhKBw6TAGMqosaKy60/Q8vSPqE3AqVFASpMkmVS+Kqlhob2kIl9WuZq0qkJxZb7gXldmhtjetXsKNrbPGuS9dW4J0vd2iZO49TeIqrklKo5M6ldpKG4Sm82nfXl61p2pWuoqp1x5ZgC7JVGFIotNBDwnbUQyUgEYs3RDNUkrd2Bw0AAIAMRMUSTkpVPQqUNCwtVcKKpZNVDykQOl6gdaJtPaHXF25zXxeyW1i5FCJU8lGxhM5QtdLnInzTnTtGmU0cEqwAANIDFUuJo2IpcqhYwkntv/87KQ2VRMPhOjIk7UTBUTqFSuKqulL8fUPPC8OKkpISQiUgQapWiqoz+hIqAQCAzEawhJNiYuouKDolaCCbKUx6/fXXCZWABKhaafnmYCWCbhoeNAAAADIUwRJOSnc9yxvrT3zdUzQvUl75WMsdcUnQk950nX2+u8RdNwDg+KhWClYAAAAyFHMsocNadtS74Wq6fX+yJ6fWnd80lE3nVSjT8p4/hCycNylv9HjL9fbRZN7NKx+z2BmlZt6/3HD4m9vPuz7dsU4VVuG65Awtc/M36TnUH7bD50sWF34Fd4bLG1ke9CKpdtaYvftvZs2NQQdOqtcZZmd+0ax/945zZ44ldARzKxEsAUDaYo6lxDHHUuRQsYQO0x3bdOe1ooeed9U4yapiyh93gzuvKqM02XXOsDLre+dP3Xr+peOtz7fut5i1umBLAVPepeOs4LM3WcF1/qPvdx91S4U60ufr33P7FajSalyFFVx/k+VfN83rv9dyR17inq/3LXe6ACgZFFzpugt/9rx/XkKl1NnqvbgTKnXO/u1mm/8tWAHSyz0vBY0EXdjPrCg/WDmJ+P3UVrWQHj2FaiUAAJAtCJaQEIUnfSq/Z4UPPWe9v35v1+ZhKjzFWrZvsUObNlisSJVG77rKIzlQ85hZ425XXaRgKdT8Wq1bb1670u2vW/yrGklUOdSyqc6dK1/hUVDV1Pz6i269tbHBHV9w3XTXn6hwuFvhj59yd4ALnx8ppJAEnXeIMA7p55VdZi/vDFYSpGDm7FP8gOnqwX5YE9/WtvCx6DN+oKTt/1JudvmZZpOH+ftKxdlmlw30291B1UoAgMxV9cg79g8L/uAeT63eZc+ue9/27G1227bt2u+WEra//eAm1w730TJ8qF/b39y895hzPFqz3da9scfmetvDbRJujz+n2mH/Lff4Y83j95PwOcNjjm4/+9L79sATW9r69dBzS/xzAfFyv+0J2u2qqalxywkTJrglEE/hTe6wMlcxpOFldmC/tdT7v3g6quWNVyx38DDvuI12aN1qyznvIju4/FG3ruFsOl/Lpjes5b0tLjAK2616vL/LW99gLW9vsNYPdnnrOy3/ymvcMQdXPe5CpebXXrRDb7xqsYJedsjrP1S7ynLOGmYHf/VIp4fCKbQq+NyXrc+cn1rBX9/oqrjQjShHTtygLwaN7tHQ0GCLFi2yGTNmuDvm9aTa2lr3KCsr47Usjdyzzmz73mAlQQqHigvMzjnF7Px+3ktQi983sNAPloZ4//SGFJsdPOS3/7PerCDP2/cjZm/t9tq5ZhedbvaR3t5xA80uGWD2a28fnSeVFG5NLwtWAADpac+r/qMdW3ftt5W1f7bv33aOfezM3van3c228sU/24NPbrGiwjwXMj3+Xzttf3Ora699fbcdONjqAqJeBTH72MA+9s//ttG27TrgttV4xxbk59gft+2zp1/4k1tqX51D+xxobnFLBU96HoU/CnnefHev/fAX9VbSN9fOHVJot9zzhnctB91xBw622Ce8vpraP9kDT2515ysoyLF/X7HDHvuv9+z1jU22Z+8hu+dnf/T262vF3jkUkun44r559t/edp0n5n29T7+wywb2L7C1r+22Hy2rt0mf8V48T+S0MWZ9hwUriAIqlpA0btjanPtdFZOGyXWmikkVR5q/SVVIB59cbC0b69y6KpfCfoVM8W3tE/apCknrsn/Jfe582haeN2zr3NpXS/V3VFidVFT9CtVJANBFyahWivdWg1njgWDFo8qkpubD1UqNXrsoz98W7qd9FGxpXX80q63rajzob08l7gQHAJlNIYwo6FG1klx18Wk2sF8va9QLkGdgvwJbt6HBrr28v1016iOu76U3GuzMfr1dW9v9CqVDbee7ccIZbl39Z3rnGnVesZ07uK+3LHGVQpVTh9jWIGAa6J3HPzbPrvGeIxSeQ9Z5z6e2Qiid69EVO+zKUae5vk945230zqmlf37/XNde1s9rN7tjZWD/3u659GqpfcJzA/EIlpB0quLRMDnNxaRhct19J7fOBEYn4qqTpt5qRdUvW997H2HuJABIkn/9XdDoomUbzZa/Y7Z6q9/WZODy0Bve+ltm1V6f2n/4wOyHr/vbFCCpX8eEx2nfZzb7j1RTtdJFh//+BwBkID/M6WePrthuo4YX25n9ClxFj8Il9YuCoZuvH2RPrd5p23Z+6IKd7992rgubRIGT+vTQMVoW9c115/u6C5D2++ccdZo7XucWbdd5FVKpT+shXdcj3jVVTh3stimUCq9Vj227/PN8fvwAd/5Rw0vc80oYZKkaSuf0A61iK+7jXZPbx7/n11UXn+qWQDzuCoduoSqj/Q8vcHdkS/Yd5ZJNQZgm/NZE31QmpZnfjg0a6LRPrwoa3YO7wuF4FARpGFwqqAoprERKV0uvNhvYg5OGAwA6KAPvCvfAk1vs5uvaHzXih2AlLjBKOe4KFzlULKFbhFVMhT9+2lUxufmY0oiqk9yd4767xK9OGj2OUAkAUmCxP5doSmgYWzqHSlcPIVQCAKTO8UIl+fyEM7onVEIkESyhWymsyR83yQVMCnE0F1NPUnVSr5u/aYU/e95633Inw90AIIVUrdSdwU9YwZQumFsJAABkI4Il9BiFOK6K6aHnXBVTZyb77oqjq5M07I3qJABIvVRWKx1Nd4X7l3L/bm+dCZd03NdGBCtJRLUSACAZNDeS5kGKp4m21T/3wU3uDm5AdyNYQo/TMDlVMWmy71RWMeUMLXOTcVOdBADdL5nVSgp/FlzuB0eaDFtLrU8+2+xfR/ttBTlu30K/f+Fn/Ioh7au2llqfdp7ZHaO8/Qf7x6mvqMA/NpmoVgIAdJbmRfqHBX9wd4GrWrLZrb/0xh5r3HvI3eFNQZJCJS1f2tDghrtpsnCguxEsIa3EVzEpBEpGFZOGuymwKvzxU9brC7dRnZRldDtU3UJVD7VTKXyusH20VDz/ic4Zfz1AuktmtZKCpVd2+efUHdaeeces0ftPRZVJutObAiw9tE/ohW1mL3t/a7+125+L6Yev+ef5qyGHA69i73jdJS7ZqFYCACTi0ZrtNrBfQRAWtbqAaeBHC2zrzv0uUNKt/3U3t4H9ets1l/d3d4T79syh/sFANyJYQlpSFZNCIFUxaZicwqHO0HA3BVNF1S/7k3FTnZS13nzH/wTn2XXv27MvfeCWYdiiF9/4IEjt9rate2OPW5f4/viljte233uPp1bvcp8Sifp1vDzwxJa2tvZVu73nbe+5dOvZqiXeu2NPfP+z6z5w7fi+8Bx66A8KLcPnBdJRsudWUjikUOjyM/1zX+YtX/H+5laQtL3JX771wbEPXYOWCpkULumY+17zAymdc7XXf1E/vz+ZqFYCACTiyotPc3/rXTXqI+7vvaK+ubb1TweCrd7rl7e+p+mQt89B9zfnmf0VMvUKtgLdJ9bqCdrtqqysdEtu0Yye1rKj3vY/vMAOvf6ite7YEvQeSQFUwRduJUjKVr8dGzSOpEDn2sv7uU9v9KKrMebnDim0mLXa79/Za5VTh7jgJtymMuGX3mjw+va4F99R5xXbA09utau8F+/iwpy2Y1RuPNB7gX569S53F434F2qFPDdfP8g991WjTvPO+6E736jzSlx5chg46Q+CRq8dXlOx9wfA06t32pXeHwjx1/fm5iYXWBX3zXPXo2N1fvWd2b/ABWg6h24Tu837OhVw6blEX4v+sLjR+7qO+8fEp1cFje5RX19vY8aMsTVr1lhpaWnQ2zPmzZtn8+fPt4qKCl7LesjnnklusJRJVK30T6OCFQBA5tjyc/+Bzht6u1m/8cEKooCKJWQMVTFpmNzRVUxt1UkPPUd1EoLwJs8am5pNsbmCnJBCF5ULP7fufW9bzH0CJMWFeW4/hUMDP9rLRg0vdv1XjjotCI5OdevHo9DpzH693fOeO6SvC5VckBTc0jX+mvT8Re1cn/q0j4TnCOk6de06j0IlLeMpYDp38JF9QLpIdrVSpqFaCQAAZDuCJWQkTfatEElD3TQZt5s7aUDPVkWg56hiSBU7CmTO7Ffg1lWVJGFVj2gsuoIcBUaqKrrm8n5uX1UNqV/HqFJIIZEoBKq8cbCrOlJFlAInPT7hPY+OE51D4ZOOV1+4VKikh/YPr0n76rn03Edfnz8+vsDto2F2117e3/W75zyv2AVNsdZWt/3Nd5rc84TXEl6XvgdAuunOO8GlG+ZWAgAAUcBQOACZ4zhD4TpCFUQxb3n0UDH1P7fuAxfMhBVGqaJw6OnVf7KB/QvcsLtE6RazqnjSJI0dxlA4hsL1AFUr3bMuWMkQmm9Jd5rTPExdtfRqgiUAyFgMhUscQ+Eih4olZLSJEydaTU1NsAYcn18RdOz8Q+r//IQBKQ+VREPd9FxdCZVEx3cqVAJ6gCbHTmW1kgKgaeeZ3THKn8i74mx/2NnZp5h9baS3Psxvq++ygWaTve1aKjS6yTtOS+0X7vO1Ef4xOo8mBe8qqpUAAEBUECwhozU0NNju3buDNQBAulj2VmrnVlKwdM6pZqu3+kFQcVBpdFF/P2iKxQ6347dNHGJ2tnecwiQFX1pq2+I3zK4YlJxKJV2bzgsAABAFBEsAACCpdMt/DYNLNYVGCpXC4Wuqkmo84C8nDjbb5l2HHhf2N3tl1+FjXtjqh14Kf8LwS8cU5fnHdZUqn6hWAgAAUUGwBACdNPfBTW6C7Tc373UTdz/w5BbXrlryjn3b26ZJwtVWPxBFyzd3z53g3tpt9tAGv/Lon2v9h577h6+Z3brarz5a4a1rnidVUKn/Nq9f+6ivOq5Ppv/aP1dX5oVScDXxY8EKAABABBAsAUAn6e5r11z+UXt23fvu7mzbdu63dRv2uDu5fWJwX3vznX1uPiXRhN1AlHRXtZKCK4VC2+IqjkKucilYD7e3p71t8edJxNWDqVYCAADRQrAEAJ2k6qRHV2y3q0ad5oIjBU26q9xTq3fa771tapu1uv8PAyYgKpZt7J5qJelqCJRsVCsBAIAoIlgCgE7SXdluvr7U3UlOy8qpQ1xbd5hTBVPYf/P1g4IjgGhQtZKGnEUVcysBQBbp6/1SR2JyC4MGoiLW6gna7aqsrHTLqqoqtwTSyZgxY2zWrFk2efLkoAdZ7bdjgwY67dOrgkb3qK+vd/99rlmzxkpLS4PenjFv3jybP3++VVRU8FqWYvf8zp+/KIpUrfSLq4MVAEB22LnCbM9rwQo6RIHcGTcEK4gKgiVkNIKliCFYShzBEsFSiqla6XPe399Rdccos4lDghUAAIAIYSgcAADosnSb76g7ubmVCJUAAN2krq7OfYgHpAuCJWSURYsWuV+kx6OqhIaGhmANANBdzj7Vn2Moaoryzb42MlgBAKAbLFy40FVkA+mCoXDIKPoFqnBp6dKlVlZWdsRQOP1bra2tddt6eugNUoShcIljKBxD4brJnrhb/UeBgqVi7wEAQHfhPTrSDRVLyCizZ8+26dOn25QpU46oXCJUAoD0oJBFd0ZLt0dhc0O7/V19ECoBAICoI1hCxokPlzTsTZUIhEoAgOOpqalxrxkAAABIPoIlZKQwXArnUyJUAgAcz+7du5l/DwAAIEUIlpCxFC59//vfJ1QCAAAAAKCHECwho2nSbkKlCCm+IGigU0r4vgEAAABIDe4Kh4zV2rTHDtZUW+6wMssdeUnQi6y2f7vZrppgBR2SW2jWb4JZXlHQ0T24KxzSybJly9y/Af17BAAg0/EeHemGYAkZJQyTmmtX2qHXXgx6zXIGlLpwKX/sJEImIA0QLCGdECwBALIJ79GRbhgKh7TnwqSVj9neb9xojRUX2v4H7j4iVJKWHfVt+zRNu9I+vP9ua92xJdgKpN7cuXOZHBgAAABA5BAsIW0pPPrwB/9oTV+6wlvefkyYdDwuZHpysTVOu8KavnqtC5wImZBKqs5ZtGgRwRIAAACAyCFYQlpxYdL9d1tjxUWu+ujgysettSnxN+stG+tcKKWQyT/fY64CCgAAAAAAdB3BEnqcwp8DS+6zxmlX+uHPk4u7FCYdj18BdbsbTrfvri9b89qVwRYAAAAAAJAIgiX0CFUNHXhisT8n0levtf0PL7DWHfXB1tRTqKRwyc3H1IlhdgAAAAAA4DCCJXSb+DDpeJNwd7djJv3+we3WsmlDsBUAAAAAAJwIwRJSSmGSwiMX3HzpirQIk44nDJmavnKNC5kUgjHpNwAAAAAAx0ewhJRw8xndf7cLkxQqaT0V8yalikImhWBHTPpNyAQAAAAAwBEIlpA0Co/cJNzhHd1SNAl3d3MhWXBnOc3LxJ3lAAAAAADwESyhS9y8SUvuc8PHFCa5SbizIEw6Hk36rZBJlVhM+g0AAAAAiDqCJXTaMZNwP7wgchNeKzw7etJvQiYAAAAAQNQQLKFDFCaFQUq63NEtXRxzZ7n772Y+JgAAAABAJBAs4YT8+YX+kaFfHeRCpicXu/mYmr56LZN+AwAAAACyGsESjuHCpPvvPjwJ98rHs3repFRp2Vjnwrgj7izHpN8AAAAAgCxCsARHIYi7o9u0K/0QJEvu6JYu/Mqv290wQt1ZTpOAAwAAAACQ6QiWIix+Em4N23J3dNtRH2ztutyRl7hH76/fazlDh1usqMQKpt4abD1W3uixbv/O0PlihcXBmi9+vdfN33SPo/dpT+6IS9w1pJpCJYVLTPoNAAAAAMh0BEsRc8wd3VI5CXerH9bkjix3q7HCEosNKLX8625qC5v63PlT6/vdR1yglH/ddGvZscX19fnWT912BUeuPczb11vquLyxN7h98q+bZq3v1VveuEnu/Nqn1y3fdOcXBVkH//Nxt8wZVub6wnPkDBjklu7cXlvLguu947xrFIVRep5UOmbS7x/cHrm76wEAAAAAMhvBUgQoTFJ45AKML13RbXd0yzljkAtPWne8e0RgUnDdTW6YnQKnWFGxq5RSACWqmAr7woBItL210R+a1/reFrOYa1rL9i0usBItc04vdc/ptLb6i7ghfYc21lnOgFIXZGmr1vPGTnLL5rU1/k6eA0sWWK/rp1uvL9wW9KRWGDI1feUaFzIp/GPSbwAAAABAuiNYymJuXp/773ZhkkIlrXfnvEmtjXvMmva4YKuN9/wHV1a7EKhlU53bpmty+zQ2uCFrsQFnuUCn5fUXLW9kuQuUdC5VHrnqowGDXF/u0LIgvPIDGH19+77zZYvFgtTJW/aaeqsLkrSPjtX52oKn4Hl1HerPKx/vrlcKvOf/8P7vuICru+n6FP4dMek3IRMAAAAAIA3FWj1Bu12VlZVuWVVV5ZZIfwpRFEgkc76k7qDhagqWVNGkOYg6QlVNmrMo077WRGiYn743SD/19fU2ZswYW7NmjZWWlga90ZZO35N58+bZ/PnzraKigteyiFq2bJn7N6B/jwAAZDreoyPdULGUhZp/U5ORQYvuTOeqjjoYKom7e10EQiU5+ORDQQsAAAAAgPRAsJSFcocND1rIJrHTBwUtAAAAAADSA8FSFtKk2LrjWTghdjrTnd+OR3Mp6U5vnXGy/d1d6oLvi/bNKx/r2unMDQ/U3fHm/DToAQAAAAAgPRAsZan8cZOs772PWOFDz7Xd2j/daFJtzZEUBjwKUHS3tvyxN1hswCArmHqb6dZt8X0KhcIwKG/0uLbjDm8v9/qD7V6fHtou+h7kXVDuvjfap8/sey337PNdaJNu3Nd03TTr890lVlT9ipvMPLz7HQAAAAAA6YJgKcu58GbcJCv88dMuZFJYoQAmnfS986eWq8Dnupus99e/5+7elj92knedpdayaYPr093bCj57kx8yja9wYVCvW+501Vl+OFXmQiXN06SlNK963Pv6z7K+333EretcuiOdvid6joNrV7o7rul50oEL1kZc4sKkwp89b729r093qwMAAACAntDQ0H13FUfmIliKEAUqCiuKHnrehReumicNQqbWxj3uFvsKflp3vGuHNm7wNzQ2tFUbheFP/uhxbt/WpgYXEqkCqWVTnatsKrjev2Oatkn+OO/ri5nt/cZUt66hdQqZml+rdZOEK7TR90DtnqQwqdfN33RhkqrMdF1UJwEAAADoiK6EPzq2pqbG6uq891Tt0N11gZMhWIoohRd9Kr/nQqbed/7EBSzdzYVDS+6zfd/5spnXVsDz4QP/Yi1vb3DVRodef9FVIils0p3fDnj77vcezWtXWvNKf/uH93/HW1/l2vtuv9FVZx30jpWD3j77H17QFjSp6mnfD253+yrM+tBrK5RqXvWY296dFCap6qqo+mUXJikUI0wCAAAAcDSFO2PGjLH6+mPvhq2+iRMn2sKFC4Oejlm0aJHNnDnTnXv37t1WWnrsKA6qldBRBEuw/EvH+yFT9cvdOul3a2ODX6nkPRQCKQDSULaw/8CTi731DS5sUpik7VoqgFJby7DaKNyu4EkhVHt03vAY91zefgqluouqrxQm9f3xUy5MYt4kAAAAACczY8YMKykpsSlTphwRLqmtPm2bPHly0HtyqlBqbW11550wYYI7VueQ+MqlFStW2OjRo4O1w2FUaNmyZVZdXR2sIcoIltBGIcfRk353V8h0PGHY1FHHC5V6SnuTcOcOLQu2AgAAAMCJKfRZunTpEeFSfKgUbuuo9evXu3BJy+Jif+oRBUqVlZXuEdI+5eX+nK8KkVTZ9OCDD7at6xoUPgEES2hXOOl3GDJpDqB0m/Q7XbkwaewNbWESk3ADQPfSH7pz5849bgm/Pl3lE1YAQCaJD5Bqa2vdI5FQSfQ6qYBIFUvnn3++W1dQpBApPJf61A7X9bqp11UFT1pqXfvMnj3bLY83RxOigWAJJ6WQSXMAaT6mvj96Km0m/U43bhLur9/r39Gt8nuESQDQQ/RHsD5l1Se5R4dL+kNYfxS/++67QQ8AAJlBr28KksrKytwjkVBJwtAopHmWFDLpNVPhkuZrUiVSuI+GwI0fP96FSOHrqp5/zpw5tnbtWrev1hFdBEvolNxhZW2TfrfdWS64c1sUhXd0a5uEe9wk5k0CgB4W/uGtP37jw6UwVJo1a5b74xgAgEyj17jly5e7RyKhkihEiqdQSOGQ+jXfktbV1oTemhhcS60rgArnY9I+CqA0R9PR50P0xFo1a9cJhGMsq6qq3BJoz8GVj1nzb2qsubb7JsPuKTlDyyxv9Fg3VFDVXIA+9dGdOtasWdPuHTWiKJ2+J/ojaP78+VZRUcFrWcTo32E4F4X+CFbARKgEAACQXARLSCrdaU13XVPQpNv6ZwtVZeWNm2R5o8cxxA3HIFg6FsES0kV8uESoBKBH7d9h9va93nJ70IEO6TfBbNAXg5Voa23aYwefXGwHvPdasaISK/jsNPfehGlK0NMIlpAyYch0wPvl17JpQ9CbOQiT0FEES8ciWEI60b9HTXKqfwMA0GPe+TezHY8HK+iUT95v1ndYsBI9/nuqRd7yt+6u2UfTSIr8sZMsd2TP3tEb0cUcS0iZ8M5yhT9+2t1ZTrfdT/c0XWGS5k3S/FFuEm7u6IbjONmdL7gzBpA+FG4SKgHocYcagwY6LYLfO1UnHXhise39xo3u0bx2Vbuhkmi0iPZpmnala+tYoDsRLKFbKGRSSHPEpN9pFDKFk3ArTNIk3K6klEm4cQIaWqMqmPaoX9sB9LzwD/P9Dy+w1h1bgl4AANKTqpM+vP9ua/rSFbb/gbvdekdpxMiHP7jd9n7lGrfkdQ/dhWAJ3U6hTXhnud53/sSFTD1BYVLB1FsP39Ht+psIk9BhuuOU7oRxdLikdfVrO4Ce07Kxzg4sua/tD3O1G6dd4T7R1ae5AACki6OrkzSP0vGqkzpCAZNe63jdQ3chWEKPyr90vB8yVb9svb9+rwt7UklD3RQm9f3xUy5M6vWF2wiTkBDdYjUMlzSHj2gZhkraDmSC8Fb87dHt+TONPtl1wwG+eq1fpXTUH+buk+Af3O6GC/BpLgCgJx39IUhnqpM6itc9dAcm70baSfad5ZiEG6mkuZQ07E1vznU7c0IlH5N3pzdNZL1s2TL371Y/n8mTJx/z71bb5s6dmxHfs7a75DyR2Ce8en3QnIBapgMF1Prdop+BHvrZnH/++cwTBWS6Tfea7aoJVtApw73XouILgpXMp/c6+5csSEmQ1BHp9rqHzEewhLSmkKn5NyvtwC+9NwudSNddmKQgSb8wCZOQYnoDqN+V+j1JqOQjWEpfCpT0b3bGjBkuDNWjPdpPP7vRo0e79TCMCr+HOoeO7cmfb7L/MNd8gKpqdfPs9eA8gPrvR99b/V558MEHg16/X/+eFQSG33f1lZf7r3P6mfA7CEhjBEuJy4JgqasfgqRCurzuIfMxFA5pzf2yu/4mNx9T3x89ddJJv90k3F+/17+jW+X3CJXQLfRGbvny5byhQ0ZQ+KCHqpEUFonCCYUYEydOdOuibfGh0ooVK9pCpTBkCoeBdic3D4XmS6q4yA15S+anveGkp5qTQsue+iRZodHRgZ9+ZvoZzZ4921Ux6Wewdu1aW79+vduuKif9TGpqeNMKAOlEryV6vWqsuLDdIdr/f3v/AmVVeef73v+6Q93UCIJaYjekiZSvJoEeLUgSOXtDMXxfzVbBw1AcuxUHYHb38UYuu3uLqO0ZOdFGNCfZCTLw0kN005SXDEhnULC7wRtlRmOMxILYLWm0ABGMWheg7u/8/decxaKoAmpRa9W6fD97r55zPvOyZoFhzfqt5/k/wylVn3v63NKzhl7ITgRLyBgFE6p7i373zixXVtE7o1tvEe5Zc6ibBAADUEChXjB61dTU+EOeQib1gonCDD0ARrSu/doX1VxSiKFtBU/Rw2Ky6WH3yEOLY3UoUvBgruHYXqspmro5xTUpFBjF9wZTqHT33Xd7m/apl5J64inQ1rYCJf09aJsHdwAYXr1fggSfIUP9JUiyDPXnnr7sWLhwoZeM0GeYtvWFCLITQ+EAZI6PXzLb9w9mnS1hA07LuP9mNja1sy/qF1uGwqUnfa7H/zloW8Pi1CNJFBZpXcGResdEPWN0TFRzSQ+JCqYUUulYHde3h81Q8GEDdbXWWb8pLR7KVY+i+LrbLH/8pLAleRQUffTRR/7nLvozj2ab1N+Zai7pz15/D1oq4FM4qNDvoosuoh4TkI4YCpe4DBkKp8+qjm2brFPBTBr1TErUUHzuRV9eRT37oy+0Zs+e7W166bMr+rzTuvYN9/MjBoceS8hofCubY/YSKiVEf25AqO+DmgKJ6IFO+/TvqoIiLRVmqDeMthVmRA+FWuqhUN9NLVu2bMhDJT2YH135cFJnyUmEvsFt/atr/BtdrSeT/myj2kn6u9BDeST6u9J+/dkrSFLIp2+DtY9QCchO+w+1+bL5cKcvkR68d9LLT/tng38+vDL4Gkp551X5K1ofLI3iSIboc08zrSb6uafPp+j5QV+a6LNKzw76DNPzh77A0kv0RaA+14ZjqD3ODD2WkNFUD2TBggXHPXAji/16ZriCQfuLzeFKaugXYXosZbZoOFwyeiL1Rw/mnW/WWcfmFzNiyICoDmDB5VdYyfy7KHoK4NTOoMfS8uf3BP9QxtabD3fZzbPHWkVpgZ0/qsTe//BwsCy2/YfafdkS7JfyYH9FaaHv17ERnS869v0Pj9iUSyr8GJk4rrR3ve/++PfTuq4f7VfY1fda0TG6H513RgbosaTPqlR9TvU1lL2Tyn6y3rp27/T1vOCz5cgPbvZeQrpu/nlVPlO2bx9oDJbVx7aD/SoBokmL1NbT0uRtBcExKheiL2ei8/Q5e6YS+dyL73GrL6WiWU4VJkVfbilk0pdY+t1OIVT0BZeeIYf7ORKnp+CBQLjer6gIpLqjAenmZz/7mf9DpH+gkAPoeZO4C/9ruJIaelB46qmnvPfEcD3wRaJvwvSgwmfZ6SspKfFXsnUf2Gsdv3jGjv7wLut8dUPKaxmdCT28dwe/CLS/8rQ/0IvqAQJAvz57w+zwB+HG4OzZd8SDmxlTzrH/2H/UPv2i3V6o+8R7Me34oMU2vP6pbXn7s6C907YGyy1vf27XfnO0rX/9kL30z59Y3Vt/tN9/eNiPr3vrUw+CXvqXg1ZSlOfbW4Pj5bIvl9vf/s9/t/aObnv2l/v9msVF+cGxn9iLwau4OFgPrqf9L9R9HLxfh5UEbXX1fwzu4aBVlBXaCxsPxN7r0/bg2IO2bccXdu7ZxXbBmYRLo4PP75Kx4UaMesIoiPjyl79sEyZMCFuTS+FM17++akd/stRrKHXvesesI9aT7EwUXXWN9wgq/PNvBVt51v2HnT4ETbVj/XOlvc3Do5Jb7rL8cRMs75xRNmL+Xf7eRbPmWsFFE/xzqOhb19iIBd+37s8OWkFwXI+Wl3zdr6XP2DM12M89PQ9u3brVvv3tb/u2fndTaKTnCw2zX79+va9fe+21lpeXZ21tbd5h4LnnnrPzzjvPvv71r/t5SH8MhQMA5ISoBw7Sg77pjRUJTU0x7mTz4XuPfd+LnuqXjUwKyACkv32HOmzR9Rfaky/H/m1RaCT7DrXZjClf8qBoxuRzbPuupqhjk3t/T6v3PNJLdF55aaEvdc6USZUeWGn9ptnHgptrgv0KgtSDSWGUeh+pN5IurjYFVzpGtmz/zHspqVfS/oOxY3Vuc2un35/OU9tQUqiknjAauaCJKJLNh7sF/7ZriPaRv7tjyHvWqtdRXkWlHXnoO75dOHVmrAdT+VnWua3OSubfaR3/+yXf1/XBTssLlp3Bfg96DjT6Sz2U8sor/V4V/qj3ktryg7a88qEfKhf/uaflQJ978SNL9HcVfeGodk1KoTZ1ElDPJD2rRbUbU/H3iqFDjyVkNPWIoMdSDqHHUuLosWQHDx60W265JSW9cNA/Pex2rFsZPDjfYR3/9Pwpwxd13y+86lornHKV5U+ojn0znCQli++zru2vhluJ00O+Hrb1bW7PJ3v9lwUNHQCAM+mx9CcXjPBeQXP+j/PsgtEl9ifnj7CS4jwPd7Zu/8yHxk2ZVGElRfkeFqnnkcIdLRUcfWVcqU28uCw8L9+X0y4/26+5+PoLrbys0I9xeXm+rt5Jf3LBSKuZ+iVr6+i2UWcVhUHUYbv2G6OsvbPHh7nN/U/neQ8mXfPK4JrqraSeTFdedraHUO0dPb33lrC4HkvxoZICiGSKwpO2/3dpLEwagt5J/elpb7fOzS/59fPyeqxr22bLVy+k4D27d7xlhTOutfbnngj2t3s9pc5Xf2nW+oV1bv2lH9f90W7r+t2vvSdTV/BZ2b2j3ofUea+i4HPI2xRUJUF8LyYt1Xsq75xY6KhnrvjeZJMnTw7XYtQrSb/HRc9mM2bM8ElEeFbLPNRYQkZTDRcl3dRYyhHUWEocNZZ8XcUi9SCK1NKDcduaJ2IP5YOgb16Lb/6/rOjKGju68u+sM3jQHrn05/4Qq29wFdio1oQeZjU8QN/Otv/iaRuxaKl1vhsrBKpzCi7/Cw949I1u0bQa69rd4NcovHxqcNxbVjB+UnCtC+3wD+Z7gKVvikVD9Ir+y62x9eCBXzUqEqH7LJ5/p78ftZiAHJYjs8Ktf+2gB07XfHOUqcbTkAhrLEWhkr5Y1pdXyRDV9el8c5P3ThpuRbNuCD63dln3Bw1hS/or/dHzXotJXzTq7yyTqZTCcH9JmgkIlpDRCJZyDMFS4giWeh8KfvWrXw37PeUC7530ytPW8WZdwt+SKpApmn+nL1XIVEp/usGOPnSHt3fvbgjDoXovVCoq/l00c44HRz0tzVY0babXcRK1tT33Yxu57GfBA3rs21X1VDryg/nBQ/AaD5b0DW/BZX/hx+vb48KZN/h6145fJxwsxdPUzbo/PXADyDE5EiwlRRgsLVy4sHdETbLodwv1hNJMbyp+jcEbce8j/nmXir+vVFC4xKyrJ0ewhIxGsJRjCJYSR7DkDwO6L700OwnhUnKoV9JQzZLjwdJ1t3pvIw1FkLJnXg3eo946g/dQMVL1PlK9icIwqFG7htDpXIVMXrBUbcF21wcNXvw0uq/2l5+xoitnWd55F1r+2Cofoqfj1MNJ1NupcFrs353Od4cmWIrofbwX05U1PqwBQA4gWEpcGCypB4x6LGmZ7M9y9XJVLUBq5g2OegCrx5K+qMkG7733npd3UECmnnLKRejBdCKCJWQ0gqUcQ7CUOIIlD5Y0FE5T3dbW1vq2vn3St1AYGnoAH+xwt8Eaef/PPQDKFgqY9DMpDAOQ5RIMllQA++1dzXbNN0aFLamn2eVUV0mWP7/HJl5UZtd+8/TuZ0NwrmotqbD4TTXHz+x22sJgSVIZLolma4vqB6WD2JcnF/qXH5HCmXO8rlLx/Ls8EFOh8VRToXB9eVNUM8e/EMo2erbVf3cKlfTfHeHS8QiWkNEIlnIMwVLiCJY8SIo+y9atW+ffPmncvx4MeDhInP5+9YClXkQaSobBU/2MEfc+6v9dRvXAUk3/G9DfpSZroas/kCQJBksvbPzYZ1xTMLNk/sW2fM2HdsGoYi+SraLd618/aPsPtvfOGqdZ2FRgu/lwl907f5w9FhyvWdmumnKObXjtkF+zPNj+80mVPnNbdB2FP8vX7LH9h9q9PpJmeNM+BUgPrPqDPbDwT/0+7vjhTlt4fZUXDdd1VUBcM8dFtu9s8veO7kczzi0Kjtf6yr+5JDxqkOKCJYkPlzTEPRWf4+r1qoDJi2ynSNF1t3kdQL2vhpaplqC+wFG9PtUfFO3TZ8jRx77nw9BHLLrPv+hJBfW4LQzuS4GShqZnuyhc0mfl/fffH7ZCCJaQ0QiWcgzBUuIIlo4LliK6z48++siXSIz+fjWDix52W2/9lj/UYnBU50lD9vTf4bZt28LW1ItmUBTVFyFgAoZYgsGSh0WTKoNlo638m0m2+Ie7bMbks3y2t8mTKuyFjQc8TFIwtPXtzz1MWhWcM/mSSsuzHg+Htu9qDs45x2eKUxC1bOF4D5k2BOtXBe0699pvjvZrL7ruAj9er2UL/9SvpV5Tem/RMTfNHuPBkwKkgShQ0vvpGN3/Cxv3ezCmcGrQ+gRLolBJNXz075WGKKWKegRFk1Ike5ichn9rsgrVClQvJYVMqhWoOn2a4EI9g3QfI+99xL/c0edJ+yvPDOnQ7f5ke++kk9HnpMKlHTt28MVkHIIlZDSCpRxDsJQ4gqV+gyUMLT1stz33REq/ze1LD7p55RUedMUPE0hH+qZX30ZrRrt0Ev1vRr+s6TMWwBA5gx5Lml2t+XCHh0kKatT7SD2DZkw5O1g2e5uGqm15+zO7afZYP2fKJZXek0jBkpYKlhTq6Bj1JlKPI52n0Ei9knT8g6t2e2gUXdOHr4XbCod0DR2j8OrBVX/w+4vvmaT9kfNHl/T2kNI9DWWPpXShySM0VC5Zn3uqxVcwodrfQz2WNBxPPad8oonxkzxcOrryYQ+Wjjz2fSuaeUPShsHpM6vg8qle+zAXeiedjJ5xNctwsmYmzEQES8hoBEs5hmApcQRLBEsppIBJD8Eqnj2U3+bmT5jk35KqMHj++GofCtBVv9kK/j9/4Q/XXX/YaSOXrrS2lQ95zykV6Y6+Sc0/70Lr/mSvF+rWLwD65jf/TyeZBedpWw/KemDXt7wF02bFCn6fVxV7j2B9KHti6WcovuXOtH4wVx0yPQNqmGMqewIAWS3BYEmBjQIahTOZTGFXwj9DmgZLEX3udb65ydp/8XTWFfuOvgQpvv62nOudNBDV69Sz7qpVq8IW5IdLAACAIaGC1OqFU/7Mqz7lsIKUoTBi0VIPfzSTmoaO5ZdX+re5eq/8CdUeFPUc+Cg4Ms/fc+Q9j8TqTdz7qO9Xm77xFQ0jUFvRtJrY+nnBPS9eGtaz0LFTY9fVrDblZ/k5Z0IP5rrX8trfWOkjz6f9t70KYvVtbPQFI4Dho95KmR4qSTb8DAPxmT6vvy32ubf0Z0P2uTec/HP0R2uCz613/POQUOkYDYHTUEwcQ7AEIOOpC7eKTWrWERWrjC8gOZxi9/VhuBWjWVWAXKIgR0FK2TNbrXDmDd4DKFF6qM07Tz3gws7WwXZPS7N17t5p3bsbYm0BDYPzZWuTdX/Q4GGT9usbZYVOEa9PEbwKp86KNbd84XUzdF7RtFnWsa3OhyBouEGiMvnBXEPh9OAc1V0CAJyaimoP1edeqmXalyBIHwUPBML1ftXVxbprqvI5kG40q5O66F966aVhC7La3n8IV46n8ObKy8+xtvYu+/SLTnuh7oD9x8dHvY6AxvPvCdb/Y/9R/72xrv5T+7Spw0qK8r12QLT/sgnlHgRp+49NsRlSNOPKS//8iZUU59tP/vEj/8VT13kxaBt1drFfa9uOL+yC0SVeOFNFLlVPILrmS/980PepXUUxN731R9vw2kEvjqk2dQn/3e5W796u4/q7XkVZoT2zYZ9fT/esdd2P6iL87oMWf7V3dvu1dE/nnlUU+0Pp68L/Gq6khn4Z1f8+NfZ8uAsbRgWJq6ur+SwbRgpw9LDtPY3GVHn40/PJ4IYLdG1/1a/TufWX1v37dzwA6qrfZN27gvUDe2O1J37/W+tp3O2vzh2/tp7PDlrXH3ZZz0e7Y/t1bNBWMGFS8PRf4sP1Ol/9pV+/459eCPYdMmtvsw4VPw3uT8dqWNxg+IP5/3mHldxxn5UES+/1lIFKSkrsgw8+8O7+M2bMCFsBJOyzN8wOfxBuYFBGB5/fJZnV42koPvdSRV+CjLhjqY1Y8qiHSXnFCRRYzyF6rtRnI+VYjqHHEoCMp6Dm/T2t3mOpJSwc6duvHbIZU77kxS21rfBFPYbUHs1Iomlyn994wNff36PeTu0eMOmclsNdtuXtz703lIpUigIfFanUMS/UfezLLds/8+KWqoEQ6zHV7qGVwiQVwoym3dUysu9gm31lXJmfqwKc61872O/1tB1dT+ui+9fPoamAdX9PvrzPu8nr5wMywQm9mMoqwj0n5zUswpBH6967KHhQ17pevT2UorZg3Y8Nlr37w55NXe/+2sOj6Bq6bnQdrfux4frp0oN5yaL7rOzZV713kobUZTrVSGtoONYbDAAweIl+7iWT7kH1BUt/uj7WO2narHAPMHgESwAy3vt7Wk4Y/lZeWuhT7ypsUSijcf0+U0rNWN+WKEiKVJQV2Pmjij0AUm8l9TxS8DRj8tm+rml1ta0eUgqwFE5pe+LFZR4iKVRqaVV77BoRHTNQ6KNAqGJkgS/jr6fpeXVv0fW2bI/1dtJxov0KuWTiuJG+nDJp+B9SgMHQN7gjlzzqQYxqMaVyuEAUNJ2p6MFcw930YE5xUwDAQIbzcy8S/yXIiMVLs+JLEAw/ZoVDRlG3Q317Gs0y1XdWOA3d1NC44R56gyQ5yaxw6t0ThS7xBmqPKJCKei9J/PHx6/HHxa9Hx2gp0Xrf9+yvrT+nul60HgVm2l4y/+ITfo4TMCucMStcZkj21M1DRQ/m+na3qGZOVgdJ+t+PPns1OxyAM5TgrHAIpPmscGciFZ97+hKkcNYc/9yibtKZ47PxRPRYQkZZvXq1zZs3z39p7Uu/OCoIpUJ/bhootBmoPdI3jIk/Pn49/rj49egYLePX++qvrT+nul60rh5Y135zlIdKctJQCcggeuD1b3Of2Tps3+YOxB/Mg4dyeicBAIZKMj/38sdXezHuqHcSoRKShWAJGUW9DdQbqW+4pFBJoZNS4+HuHQGkCmESspmGC6gmhaZuVpBTOHXgHovJpkApejAfef/PeTAHAAy5Ez73Zt4Q7hm8aEbSsp+uz7gZSZGZCJaQURQqKTyKwqVo5qkoVNKsTwCA7OLf5i5b6d/mqp5RqnoxRQ/m5bXv8GAOAEiZ+F5M+mLjdD73oi9Bymt/EyvGzZcgSCGCJWSc+HBJwZJ6LhEqAUD207e56sqvb3M1XEDBz1DjwRxA0hRn1nT5aaOgLPizGxNu5BZ97umLjZN97vElCNIBxbuRsRQqPfjgg3b77bcTKuWKkxTvxilQvJvi3VlKs7u1PfeEde14y3oO7A1bB08P5qqZxHTLx6NAKTDEDm40a3433MBpGVVjVpmdhbsToc+99lee9gCJWn/Dg8/GExEsAcgcBEuJI1giWMoBmlVHD9vdu3eGLSfHLDmnxsMzAADH47PxRAyFQ0bTLw9n8g01ACB7qOhp2U83WOlP1p+06Kl6J5Usuo9ZcgAAAIYAwRIyTte7b9nRlQ9by9yvW+tfXWMtt37LDv/gZv+muqe1OTwKAJCrCiZUnzB1s3onqfC36lCodhLDBwAAAIYGwRIyQo/GEq/5sbXcelUsRHrlaetpbQr3hmHTY9+3lrlf82Xntk3hHgBAroqfullFTemdBAAAMPQIlpC21Puo/eWnPUhSoKTirAqYTkU9l448dIe1BucoZFLoBAAAAAAAhh7BEtKKwiQFQx4mzf2atT35cMLBkGZMiK7lIdPKh0+7oCsAAAAAADg1giWkBYVHRx5abK1/+a2k9DLykOmVp70mU+tfXxurx0TRbwAAAAAAzgjBEoaN10UKi3CrV1Hnts3H1U1Klu4PGmL1mOKLfhMyAQAAAAAwaARLSCmFSV6EOwyT+hbhTjUPt8KQSXWZFDIhjVV8NVzBoJwzPVwBAAAAgKGV1xMI1/u1ZMkSXy5fvtyXwGB53aRXnrbOd+uHfIhbMmj66cIrZ1nRzDlWcPkVYSvSQmeL2WdvmLUfCBtwSgVlZqNmmxWWhw2p0djYaNOnT7c33njDqqqqwtbhsWLFCnv88cdt7ty5fJYBg6T//dTX19vatWvDFgAAchufjSciWEJSeJhUV2ud9ZsyIkwaiKaqVrhUfN1tlj9+UtgK4FQIloDswMMzAADH47PxRAyFw5BRmNT55qbYLGx/+a0zmtEtXUQzy3nR71uv8mF81GNCX01NTR7CawkAAAAAuYRgCWfM6xStfNjDpCN/d4dvD2fdpGRRyNT23BMU/cYJFCjV1tYSLAEAAADIOQRLSEgUJqVLEe5U85+/78xyrc3hXgAAAAAAcgPBEk5bz4HG2Ixut16Vk2HSQHpDprlf82Xntk3hHgAAAAAAshvBEk5KvXDaX37agyQFShoKpoAJ/VPPpSMP3eH1mBQyKXQCAAAAACBbESzhBD6j26YXY2HS3K9lRRHuVIuKfuvP0EOmlQ9b9+6d4V4AAAAAALIDwRJ6KTw68tBiL8JNb5uh4yHTK0/HZpb762sp+g0AAAAAyBoESznO6wPFFeHu3LY5qXWTShb/D8sfc6GV3PtI2DI88sorrXDmDeFWTP74SeFa8nR/0HBi0W9CpoxXVVVllZWV1tDQELagsTE2ZFZ/NgAAAACyF8FSDlKY5EW4h2FGNw2zK77lLssvq/Ttolk3WF5ZRdB2p+VPmOSBkwKewmkzrWTRfZanECpYKgTSUvvVVnTdbb5dcNkVveta6rzoOjpO4reLrrs1dkzwHgqXdE7x/DuD68+x0h89HxyTul+CPdQLQybVZVLIhMxVXV1tGzduDLewbt06mzp1argFAAAAIFsRLOUIL8K95sceJOnlRbiHYUa3wsuusK53661jW51vF1wW/OJZdpa3FwbreUGbAp+S+XcHK2bF/+U2K5gwyTo3v+TLrm2brGjmHO/1lD+2ygouv8IKwpCoe3eDFV93m41Qb6jgZxuxaKm/R/x2XvBeJfPv8l5C+eOrrWjarOBaVX6uXsNVmFwzyXnINPfrDEPMUPfcc4/V1tbSaymg3kr6s7jxxhvDFgCZIvrf70D0b1xdXewzHAAAQAiWsthxM7qpCPdzT6RdYNF9YK+V3HKnWflZ1qP/19pkhVNnWfcnjdbT0mSd9cdP3a82BUGF02p8XVTDyJcfx4aUKTTyukabYw/G8dvqHdX9yd7e3kxdH8RCAIVMeWMuSslwuJPRz39c0e/Hvk/R7wyh3jlz5861hQsX9g4Dy0X62efNm+d/FnoByCz63/CSJUvs8ccfD1uOUaik/32/9957YQsAAIBZXk8gXO+XHi5k+fLlvkRm0NAqhUjD0SvpZHyoWRgIRfcWDT9TbyGtR72GovUTluEwOisPluG1RNfre2xkwGtIcJ34tnT7MxOFaSPv//mwB184uaamJv+lS8tly5ZZTU1NuCc31NfX+2eG6k2tXbvWl+lgxYoV/kuygi4+y4BTU48l/W9ZPTH1mKj/bevfNP37tmDBAm8HACBX6dlSn4163kUMwVIWUo8X9XRBdlG4VPbM1nAL6ezBBx+0p556ynsx6ZXtBawVpGlojD5go1860yVUEoIlYPCicCn690v/OydUAgCAYKk/BEtZqH3Ti9ZGsJR11Fup7Kcbwi2kOw0nWb16tQ8dyfahcfrFUwGaaiqlY4hGsAQkJgqX5O677yZUAgAgQLB0IoKlLHV05d95QehsmMo+77wq6/nkxF/MVS9JQ9tyoQaRZr8bsfg+y59QHbYAOF0ES0Di1Bvxo48+sttvvz1sAQAgtxEsnYji3VlqxOKlVv7MqzZi6c98qv5MNmLJI6Zi21HB7ajOUEnwMxZePtUDpqgtFjYFx4bLTKYwqXj+nVZe+xsrfeR5QiUAQMqpVhyhEgAAOBmCpSxXdGWNjVzyqIcTmnZfYUUmKp4110YsWmoli++zwmmz/GdRzaHuliYbef9KK77uNg/QSn/6Syu8/ApvU7im3k6ZRIGYwqSRP1rjYVLJLXcFbelTqwYAkFs0EYh6QAMAkKvUe3f69OkDlrfQKC/NDJ3LCJZyhMKJollzPKxQAWgPZjJohrGON+ssr7zS8jUsrrXZh8Z1HwhePgyuxwuWK2jqOfCRdX0QGxqnfXnlFb6ezhQmFV13q4dJ5bXveJiknlgAAAyH7g8arH3Nj61l7tft8A9u9plmta6JQRQ0AQCQS9R7V/VENTtq33BJoZKGxWn21FxGjaUcp3Cm/ZWn07oeU9EsDeXL83vVPapnUmf9Zss/78LgAbfeCq+ssbxgveOVZ6xg2izr3Pyih2hWVhm0PR27SJqJDd+rtuJb7rSCCdX0SgKSiBpLwKnpSxt9ZnYGn6unCo/0RU7B5Vd4b+FM+pIKAIAzEYVICpkUMGnSmqjWUrbPAn0qBEvopYdJ9fzp2vFWVhT9TkcaiqihfEU1cwiTgBQhWAL652FSXa111m9KuCeSQiZ9mVM0M/hcy/DahgAAnIryEc2aKgqTCJViCJbQr96QST2ZggdPJI4wCRheBEvAMfpM11C3tjVPBMudwXZTuOfMqReTAiafWIOQCQCQpaKeS4RKxxAs4ZQUMHW+WefDz3B6VDRcQ/j0La6+zQUwfAiWgFgR7o5tm6wz+EwfyjBpIL0hk4arl6V/vUMAAAajqanJKivpNBCheDdOSeHIyGUre4t+Z+rMcsl2XBHuZ7d6EW5CJQDAcFGYdHTlw71FuFVDKRWhkvh7P/b94L2/5kvVcgQAIFsQKh2PHktIiAppd765ydp/ETyk5nA9JoVJGuZWOCvW9R9A+qHHEnJJT/D53LH5JZ9NNTZzavqIin6rJ5OWAACc1McvmR14MdzAaSn9stmffs+ssDxsSA2CJZyxLk1L/MrTOVX02+smqVjplbOomwSkOYIlZLuhKMKdah4yTZtlxRoyzsxyAIC+mn5rtiuWRWCQxtxgdvF/CzdSg6FwOGOaLn/kkket/JlXfRhY4cwbsrJop8KkkkX3WXntb6z0kef9YZhQCQAwHDxM2vSiD3HTcLO2Jx/OmFBJ1PNZQ/Na/+oaa/3ra/1nydQvp1RnQ9NOq5CrXgAADKuu1nAldQiWMKQ0HCwKmUYs/ZmHTJlMYVLx/DuPhUnX30aYBAAYNrHaRd+z1r/8ltcuyqQwaSCapc7rMd36rVgtqAwJmVavXu09+xcuXGgPPvigffTRR/bFF1+Ee2OBEwAAuYBgCUlTdGVNLGSq/U1GFf1W3SSFSep9pTBJRbgJkwAAw8XDpPgi3JteSlkR7lSLBWexkOnIQ3d4yJSubr/9dh9eO3XqVFuwYIHdeOONNnv2bO+9NG/ePFu3bl1vD6aHHnrIl6KhuXV1deEWAACZj2AJSadQRjPLKaSJZpZLt3oKx83oVvuOh0kU4wYADBf14mlf8+NhmdEtXWgmudjMcl9P695ZDQ0Ndumll/q6AiP1ZFLgpKApCpfee+89369QSUGU2gEAyBYES0gpFetUyFT20w0eMinMGa56TAqT1ItKYVLZs6/aiMVLCZMAAMNGdZMUJilIUt2htueeyLkwqT/6M4jqSbXeepWHTOk0452mnI6mnVaApJCpqqrKA6fq6moPkbSUjRs3+vayZcs8cFLvJgAAMh3BEoaNQiaFOaku+h0V4VaYpF5UCpMY6gYAGA4eJr38tIcmXoT7uSeyom5SsnjR700vxop+33qVB3HDXY8pvpaSwiT1SJKKigqrra319WnTpvlxCpjUk0mzVWpiZgVQAABkurzgQ60nXO+XihIKUzQjVTrfrfeHxq5tm/yBeygoTCqcNsuKapjJDcg1+gVOw0/mzp3LZxnSgj7bNNStbc0TwXInvZKGQMHlV1jRzDmxL4tS3BNaPY+iMCl+XdQjKb4Xk3orKWBSuBT1cgIA9KPpt2a7YlkEBmnUbLPx3ws3UoNgCWlNAVPnm3XWWb85bDl9eedp2N0NPvROvaMA5KYoWKqpqbFVq1aFrUDqqSdSx7ZN1hl8thEmJU9vyHRljQ97BwBkIIKlxA1DsMRQOKQ1hUIjl63sLfp9qpnljivC/exWL8JNqARAotmZgFQ6YUa3JBTh1kymhdNmWsni+3q3T+ZU+4eCPosHos9qDUk/2TFnondmublf86WKgAMAgOQpeCAQrvcrmg5V06cCwyWvvNIKJlR70OQ9kM6rsu7GD8xam2Nh0lXX+AP1iP/rYSv886sIkwD0UqCkV1tbm9c5oaYJkq1HdYB+8YwdXfl31r5upXXvesesoy3cO/QKr5zlQ8A0xK5r+6tWfMtd1r2jPvhcXOrDwgou+ZoVTvmW9+QRfUbmT5hkPX88ZCW33Gl5xcVWGHyOWl5wrWk1VnLjHdb1+9/YyHsfNSsusaLrbrOiabO8vpGOK/7/3mw9LU2xGVSD9oLglR+8T37VBCsOjvXjNBlG8DOr/pHaioJzunY3+Od2/pfO88/w4plzg/vdGhzX7veVDCry3bl1g3VufsnXNRyeZwQAyABtB8wOxbIIDFLpl83OmR5upAY9lpBx9EBYfP1tXvRbPZl8RrcljzKjG4BT0vDu+EK7wFA5rgj3rVd5Ee5UzVxWMH6SdX3QYJ3bjj2AKwzy5bSaYH+199opvPwKyx97oQc/ahOdmz/mIv9s1RByD4Y+abTiWXMtr7zCOje/aAVjLoydP21WbzCjkErXkfbnfuzBk4afq82vsbshuF6s1lF0XyXz7/KljtEXRgqyUkXvedzMcisfTquZ5QAAyGQES8ho/iBMMW4Ap0E1llQsd968eUzxjSGhMCkKK3xGtycfTpsZ3aLQxHsJBXpaYpNhdB/Y66GO9qu3kpWf5aGLhucVTJjkgZD1xCbSiKceSjrvZF/i6GfXZ3KnludVWc8nsdna8oLP6raVD/uwNFEoVTL/Tv8M1/unmodMrzwdm1nur6/1v8PhnlkOAIBMRvFuZLSrr77a7rnnHv+FEQD6Ez8rnP69WLhwofdaiv7tYGYmJKL9lae9p06mFeFWOKQeRepRlUwanq4wKZNoqL3qOQIA0gDFuxPHrHDA4EyfPt3uvvtun7YXAPoTHyxFn2Wa8ltt6rlUXV1NuITTppkF9d9L89UTwhZkk9IfPe89qvTvw7Zt28LW5Jo6dao/x1D/DQDiDHGwtO9Qm7Uc7rKJ40pt+64mm3LJ4J79mg932vsfHh70ebJ9Z5NNvLjUKkoLfVvXkmh7yBEsAYNDsATgVPoLliL6xbGhoYG6SzgtCpRuv/12X9fQNw2FQ3YZ+aPnvRaVJq957733wtbk0b89+jdIEwxEvSoJmAAgMMTBksKd7buabdH1F9riH+6yZQv/1Da8dshmTDnHQycFTvuD5b5D7V4C8JpvjPJ2naPtyZdU2KqX99o13xzt15oyqcKvKxeMKrEt2z+3iReP9O339xwOjhvl6xte+zS4xhfB+1YF5zXb+aOL/XyFXAuDe9E9XBsce35wjSFDsAQMDsESgFM5WbAEJEp1etp+/nfWWb85bEkvmg3OWsLAtLxywBpCmln1ZPuHgt9LIJ3rGBVcdoXPrqdhgsNBvSdV/03Wrl1LuAQASQiWlj//YRggtdtNs8f0BjzNwWvKJRW+VG8mLR9YON6aWzttw+uHrLy0wHsXKXiaOK7Mj9F11INJhQnVpnUFUbqOgqabZo+1J1/eG6wX2/rgGgq0tmz/zIOqm2rGWsuRTg+TontYFrzfkBmGYIni3QAAAIOkwtMjl6302UlVl0fBRKrpPRXa6JU/YZLlj5/k7YVTZ8ZmYCs7K2irtqKZczxAiu7RQ5TgGClZvDT4v3l+ro7RtbQ//tjoPTRETMdp6W3B8bqOv7/ag2O1jK7de25wH8X/5Vhgo/OKrrs12De84Ynuo3j+nVb60/VW+sjzwxYqiYKkN954w4fFKWCiFyUADL0Zk8/xwEg2vHawdyjaxHEjPfyZMeVsb1M4pIksRGGRgqaK0gLf3vL2H+38UcW+HgVO2tZ+naftiReX+X61KUjS+QqVoveTfQfb7YWNH9sFo0aELZmNHkvIaPRYAnAq9FhCqqgXU+ebm6z9F08nvXdO/pgLrXDmHJ/mv2PbptiMbZdd4e+dP+YiKwzaDz94hx+nIEizuanQeNcHDb6u2eK0Xjxrjh197AdWNP9O695R77O5RdfU8YWXTfVrRO/hD9qHm/29jz72vVgINb7aez11BcfoffXnoOvrOgqtjjy02EY+8oId/qtr/BqlP1nvhb07g+NTzcOw4GfWfZ5shrvhokBJE5NEw+IAIGcNcY8l1TVSwKPeROpdpFBo/8E2O390iQdA6sWkXkjH1WLa2WRb3v7Mrv3maA+PdH5LcJ3yMCBSj6Q/v6Sid3icriW6XhQiqb2irMB7J+k99L793YPahgw9lgAAADKTejEVX3+blT/zqocnhTNv8B47yaCeSAp0elT4IaCQpls1n8rOsu7mJuuJvmoNKMzJK6u0rnfrzYJjug40WvfuhnBvTH6wv+CyWPjUueMtD5x0fQ/Lgm3Re/j+4DpqVzgjeeWxOhPa79cOXvnlZ2mPB0ym9XBYXk+wPPrY94/1flIwpZ5OE2I9ppLBe0gFfxcjf7TGymvfsRGLl6ZlqCSq46UA/KmnnqLXEgAMIQU9UXij0EjrUyZV+tJ7GQVtou1oXQW3NaRN29H5GvYWO6fAbg72KVSS6FrR9SJq1znRe2i/9L2HTFfwQCBc75eKF8rs2bN9CaQTPXip2/ill14atgDA8VQUVy/N/sZnGVIl/0ujrejKGh9epRBFFMoo2BkKPZ8fMsvrsa5/fc26fv9b6/nskIdFXdtftfyxF3p7T+MHflz3J3s99NHQM/Uq6vlEwdIub1cY1v1RcFyw3vX7d6xr128tr7gkOL7O2tet9J+ja9c71v2HXf4eOu7Ye71mpsBqR72/b2zfQT9W51jw8+ra1t5m+RdN8Hvwez8QvJeOD66TP7ZK+ZNZsG7FI/ycoaLAqviWu2zEnQ9b0VXX+s+aCRQu6flm2rRp1FoCkLvaDpgdimURw6WkKP+4kCie9p17VlG4lWZKv2x2zvRwIzUYCoeMxlA4AKfCUDikk4436zxg6dz8Utgy/NSbyUOvJNH1JZnvEVGYpJ5URTWqKzX4KaHTRTQcLpqFEAByzhAPhcspDIUDAADIXurFNHLJo1Ze+5thK/rdV7IDH10/me+hYYEqwq1C6l6E+/rbMjpUEvVaYigcACBTECwBAACkmIKPollzPAiJZpZTzSGcnmhmOdVNKvvpeiu55a6MGeoGAEC2IVgCAAAYRgpEFDKV/XSDh0yxqfiTU/Q7k8WHSelehBsAgFxCsAQAAJAmFDIpMNHMcgpQkjmzXCZQmKThgt4z6dlXCZMAAEhDBEsAAABpSAGK12OKD5mSNCV/ulGYVLLoPg+TNFxQfxaZXjcJAIBsRbAEAACQ5npDJg0Bu/cRK5w6M9yTPRQmqQi3CptnSxFuAAByAcESAABABlE9ppHLVvYW/U6HmeUSpR5YCpNKf7rewyQV4SZMAgAgsxAsAQAAZKCo6Hc0s5yGjmVCPaa+RbgVJhWMrw73AgCATEOwhIzS1NQUrvWvsbExXAMAIHcoZNLQMdVjKv3J+rQr+u1hUnBPzOgGAED2IVhCRlmyZIm/+lNbW2vTp0+3hoaGsAUAgNxTMKH6xKLfwxQyeRHuex+JzegW3BNhEgAA2YdgCRll2bJlVl9ff0K4pFBJbXfffbdVV9OdHgAAiZ9ZbsTSn3nIlGzRjG69RbhnzaFuEgBgcArKwxUMWsXl4Urq5PUEwvV+Rb/AL1++3JfAcNNwt3nz5tnUqVM9ZFKQVFdX56HSPffcEx4FADErVqywxx9/3ObOnctnGRDoaW2yzjc3WcemF61rx1th65nJH19thdNmes0nDcvDmYmec3iuAZDTPnsjeL0ZbuC0FI8xq/qv4UbqECwhI0XhUlRTiVAJwEAIloCBdR9otK5337L2V5627t07w9bTo7pJhbPmWOG0WQxxG2IESwCATMJQOGSkqqoqW7t2rS8JlQAASEw0s1zZTzf4zHKare1k9Zj6zuhGEW4AQK5R5waNmMExBEvIWAqV3njjDUIlAACGgEImBUV9i34rTFLdJLV5EW7CJABADlu3bp2tXr063IIQLAEAAOA48UW/1TNJRbjVRhFuAADQF8ESMk5Pa7O1v/y0Hf7BzdZ89QRrvfUqO/rY971GBAAAAAAASB2CJWSE+DCpZe7XrO3Jh3uDJBUe1cw22kfIBAAAAABA6hAsIW2dLEwaCCETAAAAAACpQ7CEtNJzoHHQYdJACJkAAAAAAEgugiUMOw+T1vw4FibdetUZhUkD6S9k6ty2KdwLAAAAAAASQbCEYaHg6Lgw6bknUtabKAqZjjx0h7XM/TohEwAAAAAACSJYQspEYZKCJAVKqQyTBtLT2nRCyKRt1XcCAAAAAAAnR7CEpOovTNLQt3QUhUwKl1TfSWETIRMAAAAAAAMjWMKQU5h0dOXD3gMo3cOkk9HwuBNCpgN7w70AAAAAAIBgCUOib5jU8crT3gMoW/SGTLd+K/bzETIBAAAAAECwhMRle5g0EP+5CZkAAAAAACBYwulTraFcDZMGQsgEAAAAAMhlBEs4qd4w6bHvWetfhuFJjodJA+kbMrW/HPw5ETIBAAAAALIYwRJO0G+YtOklwqRB0J9f25MPe8jU+tfXEjIBAAAAALISwRKcwiQN41KIRJg0tLo/aDghZOrevTPcCwAAAABA5iJYymF9wyQN41JPG8Kk5IlCpta/usZab73K61URMgEAAAAAMhXBUo5RmKQeMwqTWuZ+bcjDpPwxF1r++ElWcNkVlj9hUtg6vPKCe8orqwi3Bqdw2sxwbeh1H2j0elXxIZP+LgAAQG5paGiwxsbGcOtE69atO+l+AACGE8FSDugbJqnHTNICjLJKK5gwyUYuecTyz6vypoLLr/DASQGPAqfCqbGwpnDaLA+htE/HRC/tVxBUNPOG2Dlhm46Nzo2/juhafkzc8aJrjFi0NLivs3xfdJxE6/HvpWOidckbc9Fx+5MlCpm895hCpjDwAwAA2W/btm129dVXe8DU1+OPP27f/e53CZYAAGmr4IFAuN6vuro6X86ePduXyAw+zO2Xz1vbM49a2/+71Lq2v5qS4tH5VRMsf3y15ZVXWvs/rjTraLOR9z7iPaLyzquyEXfcb9beZvlfGmWFU66yoquutR7LC9a/5UFU/pfOs6L/380+PKzgsqlWsuD7lldWaT2fH7SS//M7lvel0R4wFU2rscKvTrWu3cEDWEe7h0kl1y+wnvZg/Stfs6Ira8zKK/x6+RdNsM5tmyx/TJUVB9fWveWdM8rbi6+ZH7y/+b3o3KJZc/z9rHiE38OI274XHDvaCiZUB0flpWTYmv6s9D4dm1+0zs0v+bruSfcPYPDq6+v9VV1dzWcZgLQ0efJka2trs//xP/6HzZgxw7Zu3WpVVVX21ltv2YoVK2z58uVWUxM82wAAhp2eKxX233jjjWEL6LGURVLaM+k0RMPr1OtHIZECnY5NtZY/tsrygzbp+qDBrPUL63y33o/3ZUuz9ybq/qTRfybp/O2vretAo/fsUZuO9XMDPuwuDF3Uu0hhk47zHlN9hsD1tDR5SFMwvtpf3hZet3jWDR5A6foKqiIKdrqCV1FwT6nmPZmiOlj0ZAIAIGvdc889tmDBAps3b57/wlJbW9sbKs2dOzc8CgCA9JPXEwjX+7VkyRJf6kMN6an9lac9EEmHwMF7A42pigU84f2oB5PlxUIdDTUT7VN4pIBIPan0H6HOjY5RW/74S3qDJRW9zp9QHQuV+lxHdC3p/iS4Vrhf5xRcPtXbu96t9/tQj6TObXXBa3PvOdqn43SuBecWXP4X1vnmZr83BUyxe5nk7xWFZcNNQZr30pp/V1KH6AHZQL+YaSiJfjHjswxAuov+zRJCJQBIP/p3Wr2W1q5dG7aAYCnDKRQ5/IP54RZOJgq9FDhlC4VLpT96PtwC0B+CJQCZRv9uXXTRRYRKAJCGCJZOxFC4DNeVgrpJ2UI9mbIpVBL9TAAAILtoWByhEgAgUxAsZTjV/UnmlPhIXxpuWHLLXeEWAADIFqrvmIoJQwAAGAoESxlOw7tG3r/Syp7ZaiPufcQLWWe7olk3eKjSV0nw82c7/dxF191qI3+0xspr3+mtEwUAADKbajkeXfmwtcz9urX+1TWx119f6xOzpGJmXwAAEkWNpSykmcT0cKLZxLp2ZO4MYiPv/7kP9dIsbypWrZdmjSu5boEXLNerZPF93t7xZp2V3HK3z/DWvqnWCsOi3Z3bNlnxdbf1FjjPRAqTCmfN8RAp+rkAnD5qLAFIV3pu6dj8UvDs8qKvn4zqKhbNDJ4HgmcBJu4AgOFDjaUT0WMpCylo0exnpY88n9k9mcoqfXp9DfcrGD/Jjjx0h68rXOp4MxYSFYyvtqPLv+cBWs+Bj6ztuSesYEK179OfQ155hR+faaFS355JIxYvJVQCACALaIZb9UI6/IObreXWq/zZ5VShkniPpuC5qOXWb/kzkb5ABAAgHRAsZblMDpm6d8cKbXft3mmd2zZ776T2V57xmgOFX/2L2L4db1nxLXdZXvlZflxPa1PwcBbrLq6eWz0tzdbzSWZ0H887L/i7IkwCACDrHBcmzf2atT35sAdFidIXZh4yzf26L8/kWgAAnCmGwuWoaLhc55t11lm/OWxFqnmYNOsG795OiAQkB0PhAAwHhUmajbb9laeCZ65f+5dfyaQvE6PhcloCAJKDoXAnosdSjop6Mo1cttLKa3/jPZkKpzK7XCqox1jx/DtjPZOe3eozuxEqAQCQHXzI2sqHrfUvv+U9lNTrOtmhkuhLQw2P03u23nqVta/5cW8vbgAAkolgCZZXVnl8yLT0Z1Y4s/+Z15CYKEzScEQNSyRMAgAgeyhMUpCjoWkKdjpeeTolYdJAFDKpdpPqMWlmOQVOhEwAgGQhWMJxPGS6ssZGLnk0VueHkClh/YVJ6ikGAAAyn9dNWvNjD5L08iLcwxgmDUTD8aKi3x56KWQK7h0AgKFCsIST6jdkYorbASlMKll0n/f8IkwCACC7nFCE+7knMqpwtg/T86LfX/NlOs6a29TUZI2NjdbQ0OBLAEgH+rfpZE61P9sRLOG09YZMz7zq9YEImWL6hknF19/mPb8AAEDmU5jU+eamY2HSGc7oli7Uc+nIQ3d4PabhnllOv5A9+OCDPmnQ9OnTbfXq1fbee+/ZRx991LsfAIZLXV2dXX311f2G3fr3SfuiSc9yFbPC4Yx1vlvvDyea+j9Xxu8rTCqcNsuKauYQIgFpjlnhACRCQUvH5lrrfDM1xbfTQTSzXPF1t1n++Elha2otXLjQVq1aFW6Z1dbW2saNG+3222+3qqoq/yVOv9zV1NT4ct26db6vspLnMQDJo1wkmglO/+5oXf9WzZs3z/9dUrv+jcpV9FjCGVMR6mzvyaQaU/RMAgAgu/lQsZUPHyvCvemlnAmVJJpZrvWvrvGi3xr2l8ovDRUUxQdETz31lPda0i9v27Zt81/e1JupoqLCj1UvJ1HvJgBIJn05OXXqVA+S9O+P/j0iVDqGYAlDqm/IVHTdrRkbMvWGSfc+YmXPvkqYBABAFuo50Bib0e3Wq2Jh0jDP6JYuVPRbw/6OK/qd5JBJdZWqq6vDLfMQ6cYbb/T1KHTSkJRLL73UgyZRm7bVDgDJFIVL6kmpf68IlY4hWELSKGQasXiph0ylP1mfESGTwqTCqTOPD5NmMdwNAIBsclwR7luvis3odoBC0QPpLfp967e8LpNCpmRQz6MoWNK6foGL/4VNQ5s1BE5hkoKmZcuW+bp6LsUHUgCQLAqXFixY4P82ESodQ40lpFzXBw3WsflFf0jp3r0zbB0+HiZNm2WFs+ZYwYRqQiQgy1BjCYAoTOqoq7XO+k3DWqg6W+h5qfDKWVY0M3h+uvyKsPXMqGaJAiKFRdHwNvVGkqjHUlRTSdvq0aSgadq0aX4MAGB4ECxhWGksv2ZaUdCUypCJMAnIHVGwpF8+4gvCAsh+CpM0pKv9laes691fM8QtSaKi30MZMgEAMgfBEtJGFDJ1btvkM8wNNQ+TZs2JBUqXTw1bAWS7KFjSN907duwIWwFkM5/RLXie6FRdoCEOk4pm3eDPKyWLl1rbmh+nbAidSgp0vPJMuJUYn+kt+PPIv+wK69z8Utg6tBQyFQXPWwqZsm0yFwAptud/mn1aZ9bZEjbglEonmP3ZQ2YlY8KG1CBYQlpSyOQPhcED4ZmETIRJAKJgSTQWXjU7AGQfPTfomcFnMktizyQFS1L8X27zGk3546uDBw4FKhda1+6dVvSf51j3J8FzTHAvWu/aUe/H5JVX+vON1ru21VnemIss/7wLrf0XT/u1LNgfhVSdm1+0oqBN53Zu2+yTiehZpuN/h+3B+bqOio57DcuyymPXH1MVLPf6M5B6hMcCnioP2UYsedSOPLTYRt77iM/6lmz5E6qDn+1WfwYjZAIwKE2/NdsVyyIwSGOCz6mL/1u4kRoU70Zair7tUvHssme22ojgAUgPVadDD1J6yNKsdOW173gBcUIlAKIvSzSDB4Ds4EW41/zYAx69vAh3koe7FVw21bo/3mudu3f6++ePvdDyzrvQ2wvGT/JnGAU9JYuW+r0UTquxguA5pP25H/t6+5MPW9HMubGL5Vls+NiESda9o96DIa9bdN1tHhRFx+k9unY3+DX18+p9dU0pmjbr+OsHy+LgfN2Htgsvv8KvrWCn58BHXnqgOzg/77zkF5zVMMSo6HfvzHLBewMAkqirNVxJHYIlpL3TCZkIkwCcimosybx587zoK4DM5GFSNKPb3K95mDScxbjVO6hI4dGEauvpyYuFQ8EzSNe2TR4wdYb3FgVePS1NllcePLdMm+XbffW0NPdO66+eT74MtvU8pGuWzL8z1ksquE7Jovt8v/ReX8tgn96ne3eDtx2TF5w7ydd6wmuniv6OPGQK/s60VOkDAEB2YCgcMpYPl/ugwb/RI0QCMJD4WeHuueceD5ZE62oDkDnaVj5s7a88HW6lDwVIUbBz3PqYqgFrMOk4iY7tK/46MnLJI3Zk+fcHfK++BtrnX9hdd6v/WQ636F7UwwoAjsNQuMSNmm02/nvhRmoQLAEAslp8sBR9lqmttrbWh8VpamsA6UvTzd9///3W9W69Hf7B/LAV2UJfEJav+42vL1y4MO2HK+szY9q0ab29YAEkCcFS4giWgMHRf5833ngjxXgBDKi/YCmybds2q6+vD7cApKOLLrrI//dLsJSdVPS87JlXfV3/Xqe7hoYG/9zQTKP0fAWSiGApcQRLwOBMnz7d7r77bg+XAKA/JwuWAGQWFX9uW/NEbw2ibKLaRyqs3R8V2u6vJpJqTGq43UDnpTvVzByx+D6fPS6TqE7funXr/LNF4ZKeRQEMMYKlxA1DsETxbgAAAGQETeZR/syrPllH4cwb0m4KewU9CoiiSUa0rnssuPwKK7n3Ed8f3+6v6JzgGK3rXLWPXPpzb5PiW1SwOzwnPEZG3r/yuPMkOj86Pt3o/orn32nltb/xiVkyLVSSqqoqD5TWrl1rq1evtqeeeircAwC5iWAJAAAAGUWTdoxc8ujxIVMY2gynwitnWcktd9mIO5b2FqUeee+jwb1VWsGY2PT+RbNusJL5d1np0p978erSHz1vmuWtcFpNcM5tHp4VXDbVaw/pPMkP1gsmTLIRi5Za8eKlHsYcmxEuz0YEfxZ6b11bPYA045zeQ690+HPRPShM0t+VwiT9GUU/WyZTKQb1VlLP2HSvDQUAyUSwBAAAgIzVGzLVvmMj7n3ECqfODPcMj44362Kz1oazsmkWW9H0/z2tzWZlZ1n3H3Za5463fMa4vLEX9Q5z6/lkrx+vYEjL6Fzp/niv5ZVX9AZU3eGx3cF7WU/s+nnnXWSdu3cG7XuVN8WWw0RhksI1hUn6u1GYlI2z+N5+++3eg0k9lwAgVxEsAQAAICuot8/IZSut7JmtHjJFw8NSpWv3Lq931Lltk3W88nRs/d23fFtBksKWzs0veiDU9cFOH8bW+lfXWN55FwbttdYVHCttz//Y2tf82AtbS8emWssfW2VHn/y/7ehj349dR9cMXt27G6yzfpOHVh2/eNq6ttUd2xe8j4dZKaL7Kpw2y8OksmdftRGLl2ZlmNSXZohjIghg+Ow/1BauDY3mw529r3h9t09m+65j//YO1f0N5v1TjeLdyGgU7wZwKhTvBnKbwpXONzdZhwKdDC1yne4U4ClQKqqZ4z21ck1dXZ3/zrRjx46wBcAZO43i3Qpa3v/wiD35cqOt/JtJwfphqygtsPLgpfYpl1TY4h/utAcWjg+O7QrPMj8mno6vKC3sPX/ly3uDcys9EFp0/YW913hg1R9syfxxNnFcae976z0k/r33H2q37Tub7KbZYz1g6nt/548q6V3fsv0z72F6U83Y464T3W90zdjPuTe4ziXeflIU7wYAAACGjuoYFV9/m5X9dIOV/mR9Whb9zkQKk1TnKSrCrT/jXAyVpLKykhpLwDBQ0LJl+x9t36F2W//6IXth48e2fM2H3q5gR9vap5Dmu0+8b7/fc9j3PR+0r3/tkJ+jEEmh0r5DbUHbQVv8w13h1WMUIEXX2H/oqB+j6+o4rW8IrqFjdN3la/bYC3UHfP+Wtz8/4f50/JIn/s3XtU9BlV//YLu/1/ZdTX7f+hl0rWj9u8E5+w4Oba+soUawBAAAgJxQMKH6xKLfhEynLe+8Ki/CraGGuR4mARh+CntmTPmSr7+/p9V7Ep0/qtgmXhzrUaTeQhcE27FeQiPsKxeP9HUFSTpWwU2enx0butYSXE+9g+Lp2PhrzJh8jodQKm6n3kpRbydRTyQFVlcFx4iOmzLpLF/X/X1lXJmvt7R2Bu8/0l+65gWji73dey8Fot5K6vGkdb+H0SXelq4IlgAAAJBz4meWG7H0Zx4y4UTHFeF+dqsX4VYvMAAYbhqmpsBGyyiEUfCjYWwKY6L233942K79xrk2cVyZTb6kwkOiGVPO8eU13xzt11JIpLDp5tljfN9XLi61KZNiw9x0DYVEusb5o0t8/6LrqzyIiobC3RScd21wLb2nzr32m+f6+v6DR+3mmti+fYeOhu85yu/vK8H7zZhytk/AIDpG+/U+0X1p/d754/w6Wk9X1FhCRqPGEoBTocYSgNOlWdy8HtOmF61rR6yQdi6KinAXzpqTE8W3z5QKd8+bN8/27NkTtgA4Y6dRY+lMqEfT1u2f9QY4yaZgasNrh7z3U9LfkxpLAAAAwPDQsC7NLKdhXtHMcvnjJ4V7s5/qJo28/+exGd2WPEqoBCBrqcdQqkIluWBUifdgSuV7phLBEgAAANCHhnspZFLRb4VMqi2UjfWY+hbhVk8l6iYBAAaDYAkAAAA4CYVMqi2ULUW/FSYpKGNGNwC5wmdue2VvuHV6VNBbs7tpZrbYdpPtP9TmM7YNJDbjW2O4lTuosYSMRo0lAKdCjSUAydL5bn2sHtO2TdbT2hy2pqdYEe7brODyKxjiNsSosQQkwRDVWFr+/B7bf7DdVDBbNZU0a5ym/7959lif8l8WXX+Bh0cq0q1i3I8F6yoErnUNmVNYtPJvLrHFP9zpBb7f//CwL32mth7z4uAq2H1TzVi7eenvbMbks4Njjvisb1qK3l81lkT30Pdc1WBqbu3y+9K1zwg1lgAAAIDM0DuzXO07Xo+pcOrMcE96OG5Gt+Ae1euKUAlArlBYo1BpyfxxVjGywNs2vH7IZ17bvrPJAx75/Z4jXgNJM8pFU/170BOuRzTb3IwpX/L1JfMvti3bP/ceTTp338E2b1copNnddK5mjove4/09sTCqPHhvhUfx5za3dnrIlOdHZiaCJQAAAOAMqR7TyGUre4t+a7jZcIhmdFOY5EW4Fy8lTAKQkxTaKNh5YNVu31aoc803YqGP1vcfau8NfrQd0X6dqwBK7VqKjt2y/Y/BssS31T5j8lnB8Z1+fNQmmv1N7dF7qD16SXSuAqzovTSUTOdkIobCIaMxFA7AqTAUDsBw6T7QaJ1vbrKOzS9a9+6dYWtyKMhSoFRUM4d6SSnGUDggCYZoKFxOYigcAAAAkB1U9FuFsTWzXOlP1g950e++M7pRhBsAMBwIlgAAAIAkK5hQHavHdIYzy+WdV+UzumnIHWESACAdECwBAAAAKdRb9PuZV23E0p95yHQyxxXhfnarF+FWbygAANIBwRIAAAAwTIqurAlnlvvNcUW/PUyaeUPvjG4U4QYApCuCJQAAAGCYaTibZpbT8DaFTD6j25JHCZMAAGmPYAkAAABIIwqZqJsEAMgUBEsAAAAAAABICMESAAAAAAAAEkKwBAAAAAAAgIQQLAEAAAAAgPRROiFcwaBVXB6upE5eTyBc79eSJUt8uXz5cl8C6WT69Ol2991324033hi2AMDxVqxYYY8//rjNnTuXzzIAwJCrr6+3efPm2Z49e8IWAEOi9d/NDtWZdbWGDTglhUqjZ4cbqUOwhIxGsATgVAiWAABDraGhwaqrq329v2Apfj8AZDuGwgEAAADAaWpsbLSrr77av7Toj76Yj76cB5B99G9AXV1duAUhWEJGOdmHuL4Zuuyyy3wJAAAAJENVVZX3gI16xMZToKQeTKtWrQpbAGSbdevW2erVq8MtCMESMoo+xPU/4r4f4gqT1AV5wYIFdDsGAABAUkXDqxUuRb9gRqHS2rVrPXwCgFxBsISMotBIH9bx4dLOnTt7Q6V77rnH2wAAAIBkisKlaEgMoRKAXEWwhIwTHy5pfKuWhEoAAABItShcmjp1KqESgJxFsISMFIVLlZWVPiscoRIAAACGg8IlQiUAuYxgCRlL4dIbb7xBqAQAAIBh1dPaHK4BQO4hWEJGU48lAAAAINW63n3Ljq582Frmfj14fc1a//pa3+7evTM8AgByQ15PIFzvl2Y3EI0dRpra+w9mhzaGG8gZBeVmf/aQWcmYsAFAf6LpoKM6GAAAJEphUse2Tda56UXraW0KW0+UP6bKCqbNsuJZcyx//KSwFUA20LNlVKwfMQRLme6zN8z+bVm4gZxT+VWzS/jfJnAyBEsAgERpiFv3Bw3WsbnWOt/cfNIwaSAeMl1+hRXNnONLAJmNYOlEDIXLdF0t4QpyUtuBcAUAAABDQWGSD3N77HvW+pffssM/uNk6Nr2UUKgk3Qcag/Nf9Ou03npVcN3v+/UBIFsQLAEAAADIaQqTFP4ceeiOIQmTBkLIBCAbESwBAAAAyDlRmOQhz19+y0Oezm2bhjxMGgghE4BsQbAEAAAAICcoTGp/+enjwiSFOakKkwbSX8ikkAsAMgHBEgAAAICsFR8mtcz9mrU9+XBahEkDiUImDctrmft1QiYAaY9gCQAAAEBWGShMyjQKv+JDJi21rZ8PANIFwRIAAACAjJctYdJAFDKp55J6MOnnS9eQqbGx0R588EFbsmSJTZ8+3ZfarqurC48AkG0IlgAAAABkpJ4DjVkdJp1MvyHTgb3h3uFTVVVly5Yts+XLl/u6ltquqamx+vp6W7hwoYdPTU1NvmxoaPDztE34BGQmgiUAAAAAGcPDpDU/joVJt16VU2HSQHpDplu/5X8u6RAyvffee1ZdXR1uma1bt842btxoq1atstWrV3uotGLFCvviiy98XYGT9kdBE4DMQbAEAAAAIK0pODouTHruiZwPkwaiP5d0CJn27t1r06ZNC7fMHn/8cbv99tt9XUFSZWWl1dbW2qWXXmrbtm3zbfVwUhhFuARkFoIlAAAAAGknCpMUJCkgIUwavOEMmRQWKSgS9V6aOnVq77ao19LcuXM9UNIQuQULFngQpXpMagOQOQiWAAAAAKSF/sIkDX3DmesbMqk2VTJDJvU8iobCNTc3e4gUUc8lvaIASaGT6iupJ5PqMcUHUADSX15PIFzvl6r4i4quIQ0d2mi2+9FwAzmnZKzZV58LNwD0R/Ub1P1eD7R8lgFA+lHg0bFtk3X6DGdNYStSJX9CtRX95xus6MoayxtzYdgKYCB6tlQvu7Vr14YtoMcSACAn6AEAAJAevPfMyoetZe7XY0O0Xnl6SEOlgsuvsLyyCiu67lbLG5MevV90T4nIK6+0wmkzw62h1/1BgxdAV0+m1r++1nsyde/eGe4FgFMjWAIAZD1Ncazu9YRLADB8kh0mxSuaOccKZ8214usWmLV84b1y8sdPssJps7xXjgInBT35wXrx/DtjbbNu8ABHL62rLX/CpGP7g3Oi8wpnBvt7g6tYLx9dK9rW+fHX0PElwXUkOl/vE39O/HvpPnVMr7KzrOCyK2LHBu+bLFHI1PpX11jrrVf53xchE4BTIVgCAGQ91XBQuKSuywCA1OhpbU5pmNSXajMpKNF9FIy/pDdYKpxWE2xX+6vk3kctf0yVjbz3ESucOde6D+y1ousW+HLEoqVWeNkVVqChYjPnWHHwMsuLBTyzgu1b7rL882LninpG6Zp+XngtrZcEr55P9lpPS7Mfp/N1HT8/uKe8skq/RsnNd/l6QdBWMj9YL6/0a3rb5VdYSXC8Kz8rtkyy7uDPT39f8SGT/j4BoC+CJQBATlAxUPVaeuihh8IWAMBQ6w2THvuetf5lOBNZCsOkeD0tTdYdvq9CncLLp3pI1HPgI9+nkEnhU9fuBuvcEQtMot45+hnyyiusIDim++NY8XD/GVq/8MBFwZAHRXnBseE5Cp+0T+dJdI3gEMsrPb6XkcIjC84vCO4p0llf59cruGyqdWyrsyIPwILjQmrznyGuLVWikEl/nx4yPfZ9QiYAvSjeneko3p3bKN4NnJJ6KSlQ0udYQ0ODLVy40Geb0TazzgDA0FDvnPY1j1vnm5uHJUTqK398tfV80ui9fWJBUGwImsKg7t0Nvt79wU6/12hdvYO0T+f6ckK1WUvwswTXMP1M5cEy2FYoFR0bfx31fPJjJPgN67hrhO3qQaXhbvrz6tq2yXsl9Z7j170wdi9hu473nku6Bwnb0oV+ZgV0JYvvC1uA7Efx7hMRLGW6NA2Wtu9qtu07m+zab46yfYfabcoliY0Ff//Dw36dm2aP9e3mw5229e3P7fxRJf1ec/uupqA9/ODNBQRLwCnFB0uidbXV1tb69MaaCjma7hgAMDg33nijh/RHln/fOje/GLbiZBTGKJxKhwBuqChYKr7uNv9le9u2bWFr6k2bNs0/24FkIlg6EcFSpkvTYOnbS96xv79roodCCocmjiuzKZNiQdCW7Z954KR9548usYrSQtt36KjNmPwlPzbar/Do5qW/s2u/McrKywpt/8E2mzHlHD/2hY2f2LKFf2obXjvkxzYf7vLrbXn7c1v5N5d4wPT+niP+fgqjbpo9xvepK/JVk88OzvvUKsoKbPIlFX4NXTe6hq73r7uaraW1yyZePDI4Iy8Mt8b4vaYVgiXglPoGSxG1bdy40R8Mmpqy5+EeAFIp6v155KE7rHPbprAVuWbEvY943anVq1dbXV1d2Jp66pmsL4sUeN59991hKzC0CJZORLCU6dI0WFr/2kHb+vZnNmVSpW3f2Ww31YyxDa8f8t5LS+aPsydf3utBzsRxI32pwGfZwvG2/vWD9v6ew9YStGn7gVW7bfH1F/r11Asq6o2kdfUxvmBUiZ+/71CbPRAcr+v+/V1/5suJF5faCxsP2DXfGGXvf9jq9+MBV3CNLW//MVgv9dfbwbWumnJ2cJ1uD5AqSguC4494kKR72RDc0+TgnK8Ex0Y9p9IGwRJwSgMFSwCAoaPhZqq/03Ngb9iCM6XZ31SzKt2pGPnIZT8/NlxvmK1bt84ef/xxX9cv/gx7x1AjWDoRxbsx5NRDSCHSlEvO8mBGQY16JonWfx+0nT+q2EMlBUgtwfHRsLat22PhT7x9B9ts+64W78EUT+foWAVIuq4CLIVMEQVBEQVQOl/Hnj9a713qvaPy8vKsPDhXPaA2vHbQezGpV1Lz4Q7v9STaf0Fw/wrJAAAAcCIN7yp/5lUre2arlSy6z2c7Gy7RdPya7l9T9kfb8dP0x6+X/uh5X57quMjIPsfLqc4ZSHRsf+cXXlnjy77X07ZqOxVdd2vYknoKk/T3XF77Gyt95PngntLnOVm9lfQLv3ouqa4ivZKB5KPHUqZL0x5L6kGk0EgBjoKmWFgTW8aGxsXa48WGxLV5SBRtx5+jdoU8omsrKFIPo1iwdOwYtUfn7Q+uF52j0Cm6Jx2rcEvHRNfQ/ui91dNJ9/Lnl1TYVVPOCa7T7uelHXosAadEjyUAGB7qxdT55ibr2PyiRbOtJVv+mAttxL2Pev2iznffsqJpszz0aFvzhIchBRMmebuCsLaVf+eFuhXSxM6N9Wzx2eQ+afQZ2Lo+aAiWV1iP5dmRH9xspT9a4+vtwfUKp87yc/ReOqftyYet+Lpb/Zp6T80Wp/vR+41YfJ8PFdQMdMUz51hH/SYrvGyqn9uxqTY4b4HvU8Hvwqk11v2H4Nzgfjs31/oscZoJriM4X++n9cP/fb6NuOcRO/J3d/g9p4L+/FSou6hmTloFSQNRoHT11Vfb3Llz7Z577glbgTNHj6UT0WMJSaEeQlEQo/AmfhnfHv8SnRe/HS11jgKjaF/Ue0m9iPoeI1Fb/Dnx96RldEx0jfj3vuabo+zm2WOD5Wjfjs4DAADA6VEIUnz9bVb20w3ek0l1eBROJJNCIk3LryBJ2jfVemCj2dZc+Vm+UNilYWb5Y8P2gNo021tUVFs9g+ILkvdeI6DASPLGxsKo9lee8aXPRhcGU13v1nuvo67gfro/2Rsc83Rsv0KvTS/59bs/1ox1edYZHFug2egO7PVALu+88PrnVXkgpXaFOR7SBfftM9OVn37PqER4zyj1TAr+3qKeSfr7zIRQSdRjSXWWnnrqKXotAUlGsAT0Iz6EAgAAwJlRyKTizgonkhkydW7b7AGNevmo90/PJ3uta8db3mNK0/Z3vlnn6wpmouMVJkVt6omke9V2R7CvaNZcP67jlaetOFjvDK4VBT2i8EjXt9YvfLv9F7GASbWmFHIdeWix5U+o1jARK1JPpWC/38+BRuv43y/5sQqd/N6Ca0U1lfT+ep/OzS/5n5PO0Uv3qHYNNYzuYSjFh0llz74aC5OCv7dMCZP60rA4Ue8SAMnDULhMl6ZD4ZAiDIUDTomhcACQvhSwdL37lnVsejEW0AwDBUC6h7407Ev7FOT0t38wim+509qf+3G4deYUVilk6gn+/M6UwiT/WYNX4VenZmyINBDVWaqurmY4HM6Ier2pF5z0HQqnfXrlcqF4eiwBAAAAGBap6sl0MgOFRgqU2lY+fMahkgxlqCTdHzScUaikMKlo5g028kdrvGfSiCWPWtGVNVkXKonCAH3BBCRKIdL06dOtoaEhbDlGgdK8efNs9erVYUtuIlgCAAAAMOz6C5kKp84M9+JMeZh03a3HhUkqUJ6NYRIwlKZOnWoLFizwACk+XIpCJcn1HnEESwAAAADSShQyjVy20gtHEzIlJj5MKq99x0YsXkqYBCRAwVF8uBQfKmlIXDRMLlcRLAEAAABIWwpBjguZlv7MCmfe4KEJTjRQmATgzEThUl1dXW/PJUKlGIIlAAAAABnBQ6Yra2zkkkdjoQkhkyNMAlJD4dLdd9/tBeEJlY4hWAIAAACQkfoNmcZcGO7NbnnnVVnx/DsJk4AUU7j0q1/9ilApDsESAAAAgIzXGzI986qHLdkYMh0XJj271UpuuYswCcCwy+sJhOv9WrJkiS+XL1/uS6SZQxvNdj8abiDnlIw1++pz4QaA/qxYscKnGeZzDAByU+e79dax6UXr2vGW9RzYG7ZmjoLLrrCCy2MvQqTB4/fZDLYr+Ltr+m24gdOi3w8vCf5bLxkTNqQGPZYAAAAAZC2FMZnWk0lhknomlT2z1UofeZ6eScg9CpQIlQav7WOzj18MN1KHYAkAAABATugbMqngdbqETAqTShbdd1yYlD+mKtwLAKepqzVcSR2CJQAAAAA5RyGTCl4rZCr9yfphCZmiMKm89jceJhVffxthEoCMQ7AEAAAAIKcVTKg+LmTSMLT88ZPCvUOrvzApr4zZpQBkLoIlAAAAAAgpZNIwtLKfbvBhaQqBzjRkIkwCkM0IlgAAAACgHxqWphAoPmRSSHQqeWUVhEkAcgbBEgAAAACcQhQyKSRSyDTi3keOC5l6w6SgvezZVwmTAOQMgqVMVzw2XEFOqrg8XAEAAECqKGQqmjWnN2TSDHO9YVLQTpgEIJfk9QTC9X4tWbLEl8uXL/cl0lDrv5t9/ma4MTzq6+utsbHR5s6dG7Yg6QrKzEbNNissDxsA9GfFihX+7xOfYwAA5B5+n81QTb812xX7u8Mg6XfE8d8LN1KDYAlDQr+4KVxau3Zt2AIA6YFgCQCA3MXvsxmKYClxwxAsMRQOAAAAAJAV9IXS1VdfbU1NTWHLMfqiafr06VZbWxu2ABgKBEsAAAAAgKxw4403eqg0b96848IlhUpqq6ystJqamrAVwFAgWAIAAAAAZIWqqiovzxEfLsWHStqnJYChQ7AEAAAAAMga8eFSXV2d14IlVAKSh2AJAAAAAJBVonBJy+rqakKlHLDvUJs9+fJe2/D6obAlZvuuJnv/w8O25e3PfHt/cFzz4c7guIO+3Z/omBc2fty7vr7PdYdCMq45HAiWAAAAAABZR6HSr371K0KlHPHgqj/YjMnn2L6DRz1IUsj0Qt3Htn1ns/1+z2Hbuj0WLC364S4Pn9a/9mlwzu7e0Gn5mj0eIsUfIw8E133y5X224bWDHl7puCikis7T+8Tv0zW1vnzNhyeco229r7b7XlMhmNZ1vkIt/QwKtdIdwRIAAAAAICspUCJUyhU9NvHiUrtp9lg7f1Sxtzy/8YAv4025pMIDKAU2C6+/0AMcvS4YVRIc//Fxx2x5+/PY+pRzvF3HVZQW+FLe33M42Pcl274z1itK+xQGKRy6ObiPKOBS+4bXYkHVY8G+RcH7Vows8O2Ww12+/7E1HwbXa7X9h9q9ff3rB/0etT/d5fUEwvV+LVmyxJfLly/3JdAfTeupscv6NgAA0on+fVLRTj7HAABIoj0/M/v89XADp1RQblb5NbNx3wkbcJym35rtimURp+vJlxs9lFEPIIVCCnV+H7y0fv6oEnt7V5MtWzjeQ5+vXFzqPZaWLfxTW+W9gro8jJoyqdKPf2DVbvvzSRV+zIzJZ/v11aPomm+M8uua5dmS+eM8NFIvJ72nAihdZ/uuZrv2G+cGxx3x99d685Fua27t8nNe2Ljf95WXFvi1Jo4r9evrPAVY+w622QXBvehaeul+omDrtIyabTb+e+FGahAsYUgQLAFIVwRLAAAk2aE6s92PhBsYlIkPmZ19ZbiBXgkESxING6soLfTAR+FNPLVL1BNIgZPWo+O1HYk/JrqWjot/DwVLCoamTKrovYbsO9TuvZm2vP1HW/k3k064drQdvXff94r2ifYPyjAESwyFAwAAAAAkri02LAgJ6GwJVzAUFMJEQYzCmWg7vl20HgU9UXu0HYk/JrqWaBmt3zR7TG+oJDpOr9jwubM9VIra40Xb8deM2uL3RfvTHcESAAAAAADAIJ0s/OkbJmUzgiUAAAAAAAAkhGAJAAAAAAAACSFYAgAAAAAAQEIIlgAAAAAAAJAQgiUAAAAAAAAkhGAJAAAAAAAACTllsFRdXW0NDQ3hFtA//Tei/1YAAAAAAEDuOGWwdOmll3po0NTUFLYAJ9J/I/pvBQAAAACyRfPhznAtpu92PO3bf6jtpMcA2eiUwdLUqVP99fjjj4ctwPHWrVvny5qaGl8CAAAAgAKWvq++7QpiIlp/8uW9tn1Xc+/+9z88bC/Ufdy7P160HX+96CXxx6tt8Q93hVuxff2dE9Gx618/ZA+u+kOwvtP2BcdrqW3dzwOrdvty/WuHbEPwku8+8W/2++B+t779ee979b1nIBsVPBAI1wd00UUX2d/+7d/atGnTrKqqKmwFzBobG23RokX2ne98x//7AIB0U19f771uZ8+eHbYAAIAh1fzb2KuPO//+ffuT80dY3Vt/tP/n2T3W3tFtlmf2k39s9PCl5XCXvfgvB+2yL5d7mPSTf/zIg5iJ40qD/Z/ZT9Y1WkVZgW3f2Wznnl1kW7Z/bi/UHbCaqefa8jV7bMcHLVZSnG919X/099iz/6j9bnerPbthf3Cd9uCaTfZScP3/CNo3BfsVDs35T+d5YLRl+2d+Le3Tvfxk3Ud20+yx4Z2bbQiOuWBUkV9ndvB+uocZk8+xRddf6PdfUVpgv/ug1ZcVpYV2/uhie+aXH9uVl51l23Z8Yc3Bz6afVe+je9A99+uc6WalE8IN9Go7YHaoLtzAoJR+OfbfVQqdVvFu9Vi6++67bd68efbUU0+Frch1+mXt6quvtrlz59rtt98etgIAAABArJdQ5KrJZ3t4pKBFYczEcSM96FFYc/6oEmtu7bJrvzHa19//6LAHM3pNvKjUgyYFOzrPA5vAlEmVvq5rKkBSSHWBzt1z2IMevbeOP39Usb3/YasHQpH9B9tsyiWVvl+u+WbsfUXXUi8ps57glefnrX/toB+r94rti1kyf1xvbyq95wXBe028uNS3ZfvOJj8vvg3IRnk9gXD9lFavXm0PPfSQ91q65557vFhzZWVluBe5Ytu2bVZbW+vBkgJH/bcAAOlqxYoV3rty+fLlYQsAABhSe/8h9urjhY0fe3g0ZVKF7T/Y7kHQNd8c5e0KXBTuqFePlgqCNAxO4ZB6/0RBknoRqV1B0vt7WoPj82zRdRfalrc/s63bP/P9vWHVxaW272Cb93KaOK7M3+cr40ptcnDuquAa548u8XN1T9oXvdcF547wQEnXivbpnqNr6DjtU8CkYOnmYP1fdzbZjCnn9AZN+hl0rH4+3de+T9vtmm/Eflbdg8Krfo3/vtkoSoqcoLPF7Le3mHUFSwzOn37PbHRqe+oPKlgSPZzrIV2hgtaRexQmqpfSjTfeyExwANIewRIAAEk2QLCE00CwNLC2jxkON1gVXw1+YQ9eKTboYCmealYwW1xuUahELzUAmYRgCQCAJCNYShzBErLAGQVLAACkO4IlAACSjGApcQRLGScavaVRPIg5reLdAAAAAACkypOv7PW6S8mmmkqq13QqXnspLNSN3Kaaw+vWrQu3IAUPBMJ1AACyjr5V0rDt2bNTW8QQAICc0fzb2GuIKFB6dsPH9icXjLT3Pzxi2979wto7u70Q9u92t/oxG147ZM1HuuzFf/7Etu1oCl6f26a3/mj7P22z3/17i730L5/YBaNL7IfP/IdP/68i21ve/jy45ggvBq7rqOD2/kPt/tIMbjrnKxeX2mNrPowV5c7L86LfG14/ZDVTv2TLg/Y5/+k8f/8ho2nhSyeEG8gEUY8l1RxGDD2WAAAAAABpQ7PHaep+zfDW0tppv/+w1dtagpdmf1MwdP6oEg+DFABp2n8tly0cb1u2f+7HlgfHabY4rU++pNJndtPMbwqn/D2C60ZLvY96JOnYf93V7NfWa8NrB305cVypB1x6bwAnIlgCAAAAAKQNBTj7DrV7uKQhcdGU/qKwaMbks23r2595WNSf+OPj6boKiWIBVaEHVAqMRL2WFEZVlOZ7ALXh9YM2edLxkxbpHAAnong3ACCrUbwbAIAkS0Lx7idfbrRF11eFW8mjukkVIwvsmm+ODlv6p+F5Gn530+yxYcsQoXh3xtGzpYbDrV27NmwBPZYAAAAAAGklFaGS3FQz9pShkqi30pCHSkCWIFgCAAAAAABAQgiWAAAAAAAAkBCCJQAAAAAAACSEYAkAAAAAAAAJIVgCAAAAAABAQgiWAAAAAAAAkBCCJQAAAAAAACSEYAkAAAAAAAAJIVgCAAAAACSueEy4gkEr4c8OmS+vJxCuAwCQdVasWGGNjY22fPnysAUAAAy5gxvNmt8NN3BaSieYjb0h3ECm0LNlfX29rV27NmwBwRIAIKsRLAEAAGCoECydiKFwAAAAAICs1NDQ4F8wAUgegiUAAAAAQFZavXq19zABkDwESwAAAAAAAKehsrLSe8I1NTWFLSBYAgAAAAAAOA2zZ8/2UIlg6RiCJQAAAAAAACSEYAkAAAAAAAAJIVgCAAAAAABAQgiWAAAAAAAAkBCCJQAAAAAAACSEYAkAAAAAAAAJIVgCAPiCDPcAABiZSURBVAAAAABAQgiWAAAAAAAAkBCCJQAAAAAAACSEYAkAAAAAAAAJIVgCAAAAAABAQgiWAAAAAAAAkBCCJQAAAAAAACSEYAkAAAAAAGAADQ0N4Vr/TrU/2xEsAQAAAAAADGDevHn2+OOPh1vHW7JkiS1cuDDcyk0ESwAAAAAAAANYu3atrV69+oRwSaFSfX29789lBEsAAAAAAAADqK6u7g2XVqxY4W0PPvhgb6hUVVXlbbmKYAkAAAAAAOAkonCprq7Ot1VXiVAphmAJAAAAAADgFKJwaerUqYRKcQiWAAAAAAAATkMULhEqHZPXEwjXAQDIOhoH39jYaMuXLw9bAABArlBxZeE5IEN1tpp1tYQbOKWCcrPCsnAjdQiWAABZjWAJAIDcRbCUwRr/wWxf8MLgjPtvZmNvCDdSg6FwAAAAAAAgvRAqJebAS+FK6hAsAQAAAAAAICEESwAAAAAAAEgIwRIAAAAAAAASQrAEAAAAAACAhBAsAQAAAAAAICEESwAAAAAAAEgIwRIAAAAAAAASQrAEAAAAAACAhBAsAQAAAAByQlNTU7gGYKgQLAEAAAAAssKKFSts+vTp1tjYGLYco7arr77aVq9eHbYglzQf7rT9h9rCrZN7/8PD4drg6Pp6n4jWX9h44Li2eAO9T6LvP1wIlgAAAAAAWeH222+3yspKmzdv3nHhktbVpn033nhj2IpMpNBl+64mfymwWf/aIQ909gWvaH37rmbb8vZnfrzav73kHW9b+fLe3nYt44+JtrX+wsaP/X20rWX0it4v2tZ+tUXty9fssZbDXb3HbHn78+D1x2B/rC26Nx2v+1++5kM/R8v4+9B2/M+2+Ic7vT36ubQvnRQ8EAjXAQDIOvX19d7tffbs2WELAADIViUlJfbtb3/b1q9fb2vWrPE2PQc89dRTHiqtXbvWl8gAe/8hXDnei//8iYc3L/7LJ3bu2cW25+Oj9tiaD+39D1utpCjfWo502pMvN9oFo0ps1NlFVlFaYNt2NNllXy63333Q6uHN/kPt9kLdxx7UqP3Tzzts01t/tE+/6LA9+4/69ds7emzr27HgacPrhzwI0nlvh+GOjm053GlXXn62Pbthv+UFx3n4dKTLz6sLrqdrS0lxfvDeLbYjeKl92uVn2f/ynkxdNu2ys4P9eXbZhHL77hP/ZldedpZf/ysXl/p76viSojybMeVL9rt/bwmu/XnwXnk2Mdjfr8LgPcfeEG6kBj2WAAAAAABZIz5A0hdMehEqZReFN/sOtduW7Z+Z9ZiVlxbYNd8cHesJtLPZplxS6eHM7/cctorSwuCM4KDAxHGlHjhpW8spl1REu/x6CnoURMn61z/x42Pnmy/PH1UcvEp626dMOivcV3Ds/JEFvde+4NxiP07D4bRUYKV73PDaIT+vL11HP5uo15Suo2uWB+dqqTBM95Bu8noC4ToAAFlHtRbU/X358uVhCwAAyAXqqaThb0KolIF+PTNcOd6TL++1C8KA5/zRJd5LSAGMwqX39xy2KZMqfPhYc2tXsB77O1dvJrM8P0YU4OhY0THbdzZ5EDVj8jneE0ghjnoj6Rra1tC0P7+kwsMrhVk6X++tZRQ8qf2C0cU2cVxZ7zHRtUTvF/Uy2n+wzc9X0KSgKHbflbHeVMG+irJCv9f4dQ+lWmND4HSd6H1PUDLW7KvPhRupQbAEAMhqBEsAAAAZaIBgSeFLfKAzFNSLSAFQrDfT8bRPQ+DUSykjDEOwxFA4AAAAAACQERT+DGWoJLpef6GSaF/GhErDhB5LAICsRo8lAACSrLPV7N/vN2v7OGzAaan4mtn474UbOMEAPZZwCgyFAwBgaBEsAQCQZIfqzHY/Em5gUMZ/32xUTbiB46QoWPIZ2MaVes2m/jz5yl5bdN2F4dYxar/mG6O8MPeS+ePC1uNFx6jG0/sfHvHrPLhqty1bOD48IgmGIVgqeCAQrgMAkHU0E4yKd86ePTtsAQAAQ+qzN8yafxtuYFDOmW5WOiHcwHH2/kO40r8HVu326fhf+peDdu5ZRbbqlb32/keHvbj3/k/bfZa2VcF6cXGB/e3//Hd75pf77N8+PGwbXj9knzZ12Ev//Ikfv+3dL3x7+65mW//aIWs50mU3L/1drED46BL74TN7fOp/BUIqFF4SXE8eW7PHJl5c5tere+tTu2D0iN5jRp1dbG0d3X6MhtKpre6tP/p1trz9efC+rVZX/8fgPtvssgnltviHO/39t779mTUf6fSwSvt+8o+N/jOqffvvm447Z0CFwb6xN4QbqUGNJQAAAAAAkHFunj3Wi2srIFIItH1ns7erZ9DbO5vCmeJaPdy59hujfVY3FenWLHCavc1nfRtXalMuqbQNrx30pWipY2O1l4qDZYHXYNI5up7Wzx81ws9Vb6drgmtv2f5HP1ezuEWFwKNjoutE19d9+nrc+LEHFo73wuQKoSQ2a11P8DOO8e3oHF0r3RAsAQAAAACAjLPy5b02Y/I5ZqrwE/z/ieNGepAjGtqmQEjT+atdy4qRBb6+6Poq277ri1jYM6nCtu/8onfIms7XMZEZk8/23k8KqdR7aMaU4P0COkYhUCw4KvB2re872ObXjY7Z92m7v7euEzte73+hX+v80bHjZPmaPf6zXHBuLIDStbS9Zftnvv+mmjF+f7pWuqHGEgAgq1FjCQCAJNOQpVMMW8IAqLE0sFPUWHry5Ua7afbYtOzBM1gKlZbMvzjcOkY/o1meh19Rb6dTGoYaS/RYAgAAAAAAGUW9jrIhVJL+QiXRz6jeTacdKg0TgiUAAAAAAAAkhGAJAAAAAAAACSFYAgAAAAAAQEIIlgAAAAAAAJAQgiUAAAAAAAAkhGAJAAAAAAAACSFYAgAAAAAAQEIIlgAAAAAAAJAQgiUAAAAAQFJs39VsG14/ZM2HO4P1prB1+L2w8WPbf6gt3DLbF6zHbyMNVHw1XMGgnH1luJI6eT2BcB0AgKyzYsUKa2xstOXLl4ctAABgSO39h9irD4VJi3+4yxZdd6F+87QnX95nMyafY9d+c5TtO9Ru23c22Ywp53io03y4K9h3tm3d/pld883RHkhpv449f1SJrX/9kO0/2ObH67pyQdD+r8FxecH6Nd8YZS9sPGAVZQU2+ZIK2/DaIZt4cakfsyW4pq6jY3WNKZMq7MFVu+3e+eOC/SNioVLQXlFaGLy3rvOx34/ObwmWp7reTbPHBPs/9fe+KvgZ/D78Wuf2tuv++jX++2ajasINnOCzN8y6WsINnJZRs8OV1CFYAgBkNYIlAACSbIBgSRTSbHn7M7tp9lh78uW9dlPNWO8ZpOBo0XUX+L79h9o9LFJoM3FcqR+rIEnBktoWXX+h3bx0h82Y/CU7f3SJhzkRXeuqKecEbe3BVo+VlxbY+x8etoqyQg+AplxS4SGRgqDla/b4NbT+wKo/eNijUOpfd8XeRy8FS99e8o7fZ/ORrt5rRNdT+KVQTNfQzzPlkkoPu7RPP4uO1XXUO2vKJWf5UsHV8rv+zAOyExAsIQswFA4AAAAAMOQUqCggUk+f9/e0ei+eC0YV+77mwx225Tef2VfGlXoYpJ5MCmYmXlzm+ze8dtB7+kQUCCmkaWnt9OO0XhGcp/dQAHX+6GIPlN7/8EjveyjwiQKjWCgUu8bv9xz2/TpO19J58c4fNSK4p+Bezy3x94i/XuxniF1PoZKup3VdQ8fFQqVmD5/0c+l8nddvqISM1NTUZAsXLvQlYuixBADIavRYAgAgyU7SY0nBj4aTqSeSehcpYFHvJPUiitqjoW2i4EZ0nkIZUVv8dbSunkYKbnQdreu6CnfOH1XsxytsUqCl9ag9/j2je4n2RXS89unakdO5Xnybakrp+L+/6898Wz+HzusXPZYyjp4rp0+fbm+88YZVVVWFrbmNYAkAkNUIlgAASLKTBEu5KD6EOiWCpYxDsHQihsIBAAAAADBEpkyqPL1QCcgSBEsAAAAAAABICMESAAAAAAAAEkKwBAAAAAAAgIQQLAEAAAAAACAhBEsAAAAAAABICMESAAAAAAAAEkKwBAAAAAAAgIQQLAEAAAAAACAhBEsAAAAAAABICMESAAAAAAAAEkKwBAAAAAAAgIQQLAEAAAAAElc6IVzBoJWMCVeAzJXXEwjXAQDIOitWrLDGxkZbvnx52AIAAIbcwY1mze+GGzgto2rMKr8abiBT6Lly+vTp9sYbb1hVVVXYmtsIlgAAWY1gCQAAAEOFYOlEDIUDAAAAAGSl+vp6a2hoCLcAJAPBEgAAAAAgK61bt85Wr14dbgFIBoIlAAAAAAAAJIRgCQAAAAAAAAkhWAIAAAAAAEBCCJYAAAAAAACQEIIlAAAAAAAAJIRgCQAAAAAAAAkhWAIAZL2GhoZwDQAA5JLGxkarqqoKtwAkA8ESACCrTZs2zR8qm5qawhYAAJAr9OXSpZdeGm4BSAaCJQBAVquurvZlXV2dLwEAQG5Yt26dL6dOnepLAMlBsAQAyGqVlZW2YMECW7FiBb2WAADIEeqt/Pjjj/szgJ4FACQPwRIAIOvdc889/lA5b948f9AEAADZS18kLVy40Nf1DAAguQiWAAA5YdWqVf6gqXCptrY2bAUAANlCn/Ma/nb11Vf79tq1a30JILnyegLhOgAAWU9D4hQs6eFT9ZfUk4ku8gAAZDYV6Y56JWv42+23387nO5JC/51Nnz7d3njjDWYcDBEsAQBy0saNG/0hFAAAZAd9YaTZYAmUkEwESyciWAIAAAAAADgNBEsnosYSAAAAAAAAEkKwBAAAAAAAgIQQLAEAAAAAACAhBEsAAAAAAABICMESAAAAAAAAEkKwBAAAAAAAgIQQLAEAAAAAACAhBEsAAAAAAABICMESAAAAAAAAEkKwBAAAAAAAgIQQLAEAAAAAACAhBEsAAAAAAABICMESAAAAAAAAEkKwBAAAAAAAgIQQLAEAAAAAACAhBEsAAAAAAABICMESAAAAAAAAEkKwBAAAAAAAgIQQLAEAAAAAACAhBEsAAAAAAABICMESAAAAAAAAEkKwBAAAAAAAgIQQLAEAAAAAACAhBEsAAAAAAABICMESAAAAAAAAEkKwBAAAAAAAkKCmpqZwLTcRLAEAAAAAAAzg4osvtscffzzcOp7ap0+fHm7lJoIlAAAAAACAASxfvtxWrFhxQrikbbUvW7YsbMlNeT2BcB0AAAAAAAB91NbW2pIlS2zu3Lm+Hi0VOmk9lxEsAQAAAAAAnEIULkUIlWIYCgcAAAAAAHAKCpEUJgmh0jH0WAIAAAAAAEBCCJYAAAAAAAD609lj1tZl1tJpdrQ7bIwzIj94FZiVFZoV5oWNuYVgCQAAAAAAQBQkfdpm9kWn2ecdZm39hEkDUbhUXmB2bnHslSMIlgAAAAAAQG77osPsQJvZp+2xcOlMqfeSwqWLS81Ksru8NcESAAAAAADITQqU9hyJLZPlrCKzr5RnbcBEsAQAAAAAAHKL6iXtbo31UEqVMSVZ2YOJYAkAAAAAAOSOT9rMPmgdmiFvg6VC3+NGxkKmLEGwBAAAAAAAcsPuw2Z7j4Qbw0g9lxQwZQGCJQAAAAAAkN3UO6mhObm1lAZLvZYmlocbmYtgCQAAAAAAZC+FSu82mbV2hg1pJAvCpeye8w4AAAAAAOQ29VRKx1BJDrSZvd8SbmQmgiUAAAAAAJCdVFMpnYa/9Ufh0odpUPcpQQRLAAAAAAAg+6hIdzoU6j4dew6bfdoebmQWgiUAAAAAAJBdjnZnXi8gDYlTPagMQ7AEAAAAAACyi3oAZVpIo/vNwHpLBEsAAAAAACB7qGbRJ8ErE2k4XLrXhOqDYAkAAAAAAGSPPZlbCNtl2P0TLAEAAAAAgOygHj9tXeFGhlKPpQzqtUSwBAAAAAAAskOmzAJ3KnuPhivpj2AJAAAAAABkPs0E90VnuJHh1GMpQ4qPEywBAAAAAIDMl2FFr09KoZKG9WUAgiUAAAAAAJD5DmTO8LHTkiFBGcESAAAAAADIfK0ZXrS7L3osAQAAAAAApEBLV8bUJDpt+nnausON9EWwBAAAAAAAMltblvVWirSk/3A4giUAAAAAAJDZWrJkNri+NNNdmiNYAgAAAAAAmS3bhsFFMuDnIlgCAAAAAACZLVuDJWosAQAAAAAAIFsRLAEAAAAAACAhBEsAAAAAAADpqCT9YxuCJQAAAAAAkNlGZGm8UZgXrqQvgiUAAAAAAJDZMqBnT0IyIDAjWAIAAAAAAJmtvChcyTIlBeFK+iJYAgAAAAAAmU09ezJg2Nig6OcpLww30hfBEgAAAAAAyGwKYcrSv3fPoJyVGb2wCJYAAAAAAEDmy5Ag5rSdS7AEAAAAAACQGmNKwpUscTbBEgAAAAAAQGqMKDA7K/1rEp0W9b7KgMLdQrAEAAAAAACyQ7b0Wrowc34OgiUAAAAAAJAdxowwK8nwqEMz3J1LsAQAAAAAAJB6F48MVzLUuMy6f4IlAAAAAACQPdRrKVNrLZUF9637zyAESwAAAAAAILtcXBquZJhLy8OVzEGwBAAAAAAAsotmVcuwIWU2rjRjZoKLR7AEAAAAAACyj3otZcqQOM1ml6G1oQiWAAAAAABAdqquTP9Z4lRXaXxZuJF5CJYAAAAAAEB2KswzuzyNw6URwX2prpLuM0Pl9QTCdQAAAAAAgOxztMvs3Saztu6wIQ2op5JCpQysqxSPYAkAAAAAAGQ/hUvvt5h90Rk2DKNzi80mZnZPpQjBEgAAAAAAyB17Dpt9eCTcGAbjS80uzMxC3f0hWAIAAAAAALllOIbGaYa6CWWxIXBZhGAJAAAAAADkpgNHzfYcSW7ApALd40aajRkRNmQXgiUAAAAAAJDbkhEwqYfSmJKsDZQiBEsAAAAAAADS0ml2oM3siw6z1q6wcRAUJp1VFHudHbxyAMESAAAAAABAX509saCpNXgd7TbrCrZVm0kK82MzuhUELw11U92k8uCVBbO8DRbBEgAAAAAAABKSHy4BAAAAAACAQSFYAgAAAAAAQEIIlgAAAAAAAJAQgiUAAAAAAAAkhGAJAAAAAAAACSFYAgAAAAAAQEIIlgAAAAAAAJAQgiUAAAAAAAAkhGAJAAAAAAAACcnrCYTrAAAAAAAAGaexsdG2bdsWbp1o9uzZtnDhQquqqrLly5eHrcdE51900UU2derUsBWng2AJAAAAAABktPr6eps3b164daI33nijd7/WdfyKFSvsxhtvtLlz5/aer/X+gicMjKFwAAAAAAAgo6mXkQIjvRYsWOBt999/f2+beiqtXbvWX01NTfbee+95mKSltvuj9oaGBn/1R/vV00lLvXS9vteKrqF9fcWfo5euFS/a37c93RAsAQAAAACAjKfwSK/Kykrf1jJqk+nTp3uvpI0bN9pDDz3kbU899ZQPketLgY6Ov/rqq/2l9b4Bj66j9tWrV/deW8dGQVT8NbRP69G+2tra48558MEHfTsazqf7u+yyy3rPi+43HREsAQAAAACAnDFt2jS7++67fV1D39SzKZ4CpCVLlngw9b/+1/+yJ5980nsPqa0/Con+/u//3q8ZnSvr1q3zUEvX0H7t0/A70VLX1Dl61dXVebvoPIVV6nn1T//0T77Udvwx6YRgCQAAAAAA5Iz4XkxaXnrppb4eUa8ihUDap15H2lbIpPX+KPhRcfB77rnHz4nOV62mZcuW+Xp0bvzwNg3f0zmq81RTU+P7JQqQdGx8mKQeUumIYAkAAAAAACD0xRdf+DIKhPRSYDTQbHHR0DuJAivRMDa9NNyuP/HHxl9DgZIooNJ7a6n3rq6u9vZ0Q7AEAAAAAAAQuuiii3ypMCcq+H377bf7sLn+aCicREGUQqJoXT2RfvWrX3nPpEgUEKk3ko7r2zMp2q/eTnpv9XzSdfr2rEoXBEsAAAAAACCnROGRehP1LYytQEkvBUZRryMV+FbPof4oHIqKdIsCKIVDCph0jmouxRcIV7uGzylQ0nl6xVOIpWN0jl66ru4x6smUbgoeCITrAAAAAAAAGa25udlKSkq8SHf8cDMFQOr1c9VVV3m7Xjpu9OjRfqyCGy0VCqnukfbrHB0zf/7843odiUIj9TRS8e+ol9G1115r//2//3c/Z/Lkyb3nf+c73/H9Ok7vMWPGDF+fMGGC71OQpB5OCqV0j9/+9retra3Nz//617/u76Fz0lFeTyBcBwAAAAAAwGnQ7G3f/e53fcY3BVGDoV5MCqY0zE2hknpFKUR64403jgvDMgFD4QAAAAAAAFJIvZUUJGmYm4bCqbeUeiVlWqgk9FgCAAAAAAAYJIVBeqnHkV6DpXPfe+89P1c1nxK5RjogWAIAAAAAAEBCGAoHAAAAAACAhBAsAQAAAAAAICEESwAAAAAAAEiA2f8fuMB4cg6BoxMAAAAASUVORK5CYII=;" parent="1" vertex="1">
                    <mxGeometry x="-1690" y="-1060" width="825.46" height="810" as="geometry"/>
                </mxCell>
            </root>
        </mxGraphModel>
    </diagram>
</mxfile>